<?xml version="1.0" encoding="utf-8"?>
<!-- Generator: Adobe Illustrator 25.4.1, SVG Export Plug-In . SVG Version: 6.00 Build 0)  -->
<svg version="1.1" id="Capa_1" xmlns="http://www.w3.org/2000/svg" xmlns:xlink="http://www.w3.org/1999/xlink" x="0px" y="0px"
	 viewBox="0 0 166.28 204.89" style="enable-background:new 0 0 166.28 204.89;" xml:space="preserve">
<style type="text/css">
	.st0{fill:#FFFFFF;}
	.st1{fill:#D0B3AD;}
	.st2{fill:#357181;}
	.st3{fill:#D8AB53;}
	.st4{fill:#D15137;}
</style>
<g>
	<path class="st0" d="M135.75,13.71c-0.31,0.03-0.64,0.07-0.96,0.07c-5.46,0.01-10.93,0.01-16.39,0.01c-1.25,0-1.43-0.25-1.04-1.43
		c0.73-2.23,2.71-3.71,5.21-3.76c2.62-0.05,5.25-0.06,7.87,0c2.86,0.06,5.12,2.11,5.36,4.75C135.8,13.44,135.77,13.53,135.75,13.71"
		/>
	<path d="M7.99,129.81c-0.48-0.09-0.81-0.15-1.14-0.22c-2.07-0.41-3.75-2.02-4.17-4.02c-0.21-0.99-0.25-1.98-0.02-2.98
		c1.2-5.15,2.38-10.31,3.57-15.47c0.76-3.29,1.5-6.57,2.26-9.86c0.37-1.59,1.33-2.76,2.79-3.56c0.76-0.41,1.59-0.61,2.46-0.61
		c4.58-0.01,9.17-0.01,13.75-0.03c3.48-0.01,6.97-0.04,10.45-0.07c0.89-0.01,1.77,0,2.66-0.02c0.76-0.02,0.87-0.12,0.83-0.82
		c-0.25-4.54-0.49-9.08-0.74-13.61c-0.14-2.56-0.29-5.13-0.43-7.69c-0.02-0.38-0.05-0.76-0.09-1.2c-0.31-0.09-0.59-0.19-0.88-0.24
		c-4.4-0.86-8.21-2.83-11.45-5.8c-1.71-1.57-3.17-3.36-4.2-5.43c-0.26-0.53-0.7-0.69-1.21-0.83c-1.84-0.51-3.42-1.43-4.58-2.93
		c-0.85-1.1-1.48-2.31-1.69-3.68c-0.05-0.29-0.11-0.58-0.18-0.95c-0.48-0.03-0.96-0.06-1.44-0.07c-0.37-0.01-0.73,0-1.1,0
		c-0.84,0.01-1.41-0.35-1.65-1.13c-0.37-1.25-0.8-2.49-1.07-3.75c-0.86-4.05-0.82-8.1,0.16-12.12c1.04-4.29,2.99-8.16,5.85-11.6
		c1.25-1.5,2.52-2.97,4.1-4.15c2.41-1.8,5.15-2.66,8.19-2.67c4.07-0.01,8.13-0.01,12.2-0.01c3.06,0,6.11,0.01,9.17,0.01
		c4.8,0,9.6,0,14.4-0.01c5.56-0.01,11.13-0.04,16.69-0.06c6.67-0.03,13.33-0.07,20-0.1c3.82-0.02,7.64-0.02,11.47-0.03
		c0.45,0,0.9-0.06,1.36-0.1c0.08-0.49,0.15-0.89,0.22-1.3c0.57-3.38,3.5-5.79,6.87-6.23c1.35-0.18,2.74-0.11,4.12-0.13
		c1.56-0.02,3.12-0.01,4.67,0.01c3.28,0.03,5.82,1.37,7.58,4.05c0.55,0.83,0.85,1.76,0.97,2.74c0.1,0.85,0.17,0.93,1.08,0.94
		c1.83,0.02,3.67,0.02,5.5,0.03c1.28,0.01,2.57-0.04,3.77,0.54c1.75,0.86,2.93,2.12,3.02,4.1c0.12,2.56,0.2,5.13,0.26,7.7
		c0.13,4.87,0.24,9.74,0.35,14.61c0.07,3.1,0.12,6.2,0.19,9.3c0.01,0.58,0.07,1.16,0.11,1.82c0.39,0.02,0.69,0.04,0.98,0.05
		c1.1,0.03,2.2,0.02,3.3,0.09c3.14,0.21,5.83,2.24,6.72,5.08c0.16,0.5,0.25,1.04,0.26,1.56c0.14,6.55,0.26,13.11,0.38,19.66
		c0.03,1.33,0.06,2.66,0.09,3.99c0.08,3.94-3.04,7.07-7.14,7.15c-0.98,0.02-1.96,0-2.94,0.02c-0.33,0.01-0.65,0.07-1.1,0.11
		c0,0.41,0,0.76,0,1.1c0.08,6.79,0.16,13.58,0.24,20.37c0.03,2.83,0.09,5.67,0.11,8.5c0.01,1.06,0.01,2.13-0.09,3.18
		c-0.18,1.74-0.98,3.24-2.3,4.41c-0.71,0.63-1.57,1.13-2.42,1.57c-0.52,0.27-0.7,0.57-0.69,1.1c0.01,0.94,0.01,1.89-0.04,2.83
		c-0.17,3.22-2.89,5.48-6.16,5.46c-2.66-0.02-5.32,0.02-7.98,0.02c-11.53,0.01-23.06,0.01-34.58,0.01c-7.86,0-15.72-0.02-23.57-0.03
		c-9.14-0.01-18.29-0.01-27.43-0.01c-11.34,0-22.69,0.01-34.03,0.01c-1.13,0-2.26-0.1-3.3-0.61c-2.16-1.07-3.25-2.79-3.35-5.1
		C7.95,131.76,7.99,130.82,7.99,129.81 M10.67,101.25c0.3,0.11,0.54,0.18,0.75,0.28c0.74,0.35,1.51,0.64,2.2,1.07
		c1.59,0.99,2.56,2.5,3.52,4.02c0.76,1.21,1.55,2.41,2.36,3.59c0.39,0.56,0.81,1.12,1.3,1.59c0.96,0.94,1.82,0.93,2.78,0
		c0.35-0.33,0.65-0.7,0.95-1.08c1.27-1.62,2.47-3.31,3.82-4.86c2.26-2.6,5.08-4.31,8.64-4.72c4.51-0.52,8.3,0.84,11.41,4.03
		c1.41,1.45,2.52,3.11,3.72,4.71c0.52,0.69,1.07,1.37,1.68,1.98c0.85,0.84,1.7,0.84,2.56,0.02c0.52-0.49,0.97-1.06,1.41-1.63
		c1.04-1.34,2.02-2.74,3.11-4.05c1.46-1.78,3.21-3.3,5.4-4.16c5.81-2.28,11.57-0.81,15.63,3.83c1.06,1.21,1.96,2.56,2.96,3.83
		c0.63,0.8,1.25,1.61,1.98,2.31c0.69,0.66,1.47,0.62,2.23,0.03c0.21-0.16,0.41-0.36,0.58-0.56c0.56-0.7,1.11-1.41,1.66-2.12
		c1.03-1.31,2.01-2.68,3.12-3.93c1.71-1.92,3.79-3.33,6.37-3.97c4.83-1.19,9.08-0.17,12.72,3.11c1.62,1.46,2.85,3.23,4.12,4.97
		c0.56,0.77,1.16,1.52,1.82,2.22c0.92,0.97,1.79,0.97,2.77,0.05c0.37-0.35,0.7-0.74,1-1.15c0.77-1.03,1.52-2.07,2.28-3.11
		c1.29-1.74,2.73-3.32,4.59-4.53c4.21-2.75,10.06-2.76,14.28-0.02c2.06,1.34,3.67,3.11,5.09,5.04c0.33,0.45,0.68,0.88,1.02,1.32
		c0.22-0.3,0.28-0.54,0.28-0.79c-0.04-5.49-0.07-10.98-0.14-16.47c-0.08-6.23-0.19-12.46-0.29-18.68c-0.1-5.84-0.19-11.69-0.3-17.53
		c-0.12-6.73-0.26-13.46-0.39-20.19c-0.08-4.37-0.14-8.74-0.22-13.11c-0.02-1.21-0.02-2.42-0.11-3.63
		c-0.12-1.52-1.16-2.37-2.75-2.38c-2.11-0.01-4.22-0.04-6.33-0.05c-6.08-0.01-12.17-0.03-18.25-0.03c-4.16,0-8.32,0.05-12.47,0.06
		c-7.83,0.02-15.66,0.01-23.48,0.03c-6.08,0.02-12.17,0.06-18.25,0.09c-1.8,0.01-3.61,0.01-5.41,0.02c-0.88,0.01-0.97,0.1-1.03,0.98
		c-0.02,0.41-0.02,0.83-0.02,1.24c-0.01,5.17-0.02,10.33-0.04,15.5c-0.01,3.87-0.03,7.73-0.04,11.6c0,0.29,0.03,0.57,0.05,0.95
		c0.65,0.01,1.22,0.04,1.8,0.04c3.06,0,6.11-0.02,9.17-0.02c4.16-0.01,8.31-0.01,12.47,0c1.59,0,3.18-0.03,4.77,0.07
		c1.42,0.09,2.62,0.72,3.59,1.76c0.98,1.05,1.3,2.31,1.31,3.68c0.02,4.13,0.04,8.27,0.05,12.4c0.02,5.05,0.02,10.1,0.04,15.15
		c0.01,3.19,0.04,6.38,0.02,9.57c0,0.94,0.02,1.9-0.41,2.78c-1.02,2.08-2.69,3.25-5.12,3.26c-2.96,0.01-5.93,0.01-8.89,0.01
		c-7.79,0.01-15.59,0.03-23.38,0.05c-4.86,0.01-9.72,0.01-14.58,0.02c-8.62,0.01-17.24,0.02-25.87,0.03c-0.79,0-1.59-0.01-2.38,0.04
		c-1.05,0.07-1.93,0.5-2.3,1.5C11.12,98.53,10.81,99.82,10.67,101.25 M73.14,49.71c-0.09,0.38-0.17,0.69-0.24,1
		c-0.65,3.1-2.56,5.23-5.57,6.28c-1.26,0.44-2.11,1.05-2.64,2.17c-0.04,0.08-0.09,0.15-0.14,0.23c-1.57,2.48-3.62,4.52-6.06,6.2
		c-2.7,1.85-5.67,3.13-8.91,3.8c-1.03,0.21-1.06,0.28-1.14,1.28c-0.12,1.5-0.24,3-0.35,4.5c-0.39,5.53-0.77,11.06-1.15,16.59
		c-0.03,0.37,0,0.74,0,1.16c0.38,0.03,0.65,0.06,0.92,0.06c4.86,0,9.72-0.01,14.58-0.01c4.8-0.01,9.6-0.01,14.39-0.02
		c3.91,0,7.82,0,11.74-0.02c1.86-0.01,2.89-1.01,2.93-2.8c0.01-0.68,0.01-1.36,0.01-2.04c-0.01-6.32-0.03-12.63-0.04-18.95
		c-0.01-5.58-0.02-11.16-0.04-16.73c-0.01-1.84-1-2.8-2.89-2.8c-4.8,0.01-9.6,0.02-14.4,0.03C73.82,49.66,73.49,49.69,73.14,49.71
		 M150.31,124.15c-0.38-0.15-0.62-0.25-0.88-0.33c-1.53-0.48-2.9-1.23-4.2-2.14c-1.75-1.23-3.12-2.82-4.4-4.47
		c-0.93-1.2-1.81-2.44-2.76-3.64c-0.49-0.62-0.72-0.61-1.2,0c-0.87,1.1-1.72,2.22-2.54,3.36c-1.26,1.76-2.67,3.37-4.42,4.7
		c-2.25,1.71-4.8,2.69-7.65,2.9c-4.91,0.36-9.02-1.29-12.27-4.81c-1.32-1.42-2.43-3.03-3.64-4.55c-0.43-0.54-0.83-1.1-1.28-1.62
		c-0.47-0.55-0.59-0.54-1.06-0.03c-0.32,0.35-0.63,0.72-0.92,1.1c-1.18,1.54-2.28,3.14-3.55,4.61c-2.91,3.35-6.6,5.27-11.21,5.35
		c-3.09,0.05-5.91-0.74-8.47-2.43c-1.92-1.28-3.42-2.93-4.78-4.73c-0.88-1.17-1.74-2.35-2.63-3.51c-0.22-0.29-0.53-0.53-0.79-0.79
		c-0.8,0.48-1.19,1.16-1.65,1.77c-1.45,1.93-2.8,3.94-4.61,5.6c-4.18,3.85-9.07,4.92-14.57,3.47c-3.15-0.83-5.58-2.76-7.57-5.2
		c-1.29-1.57-2.47-3.23-3.71-4.84c-0.23-0.3-0.52-0.55-0.88-0.93c-0.46,0.52-0.87,0.94-1.23,1.39c-1.29,1.64-2.5,3.36-3.87,4.94
		c-2.15,2.49-4.84,4.22-8.18,4.89c-5.18,1.03-9.68-0.2-13.48-3.76c-1.37-1.28-2.45-2.79-3.54-4.28c-0.18-0.25-0.39-0.49-0.67-0.83
		c-0.13,0.37-0.23,0.58-0.28,0.8c-0.53,2.39-1.02,4.8-1.6,7.18c-0.52,2.1,0.55,3.56,2.84,3.53c7.15-0.07,14.3-0.01,21.45,0
		c5.65,0,11.31,0,16.96,0c3.36,0,6.72,0.01,10.08,0.02c5.56,0,11.12,0,16.68,0c4.65,0.01,9.29,0.03,13.94,0.03
		c4.46,0,8.92-0.01,13.38-0.01c7.09,0,14.18,0,21.27,0c3.39,0,6.78,0,10.18-0.01c3.45,0,6.91,0,10.36-0.02
		c1.22,0,2.45,0.05,3.66-0.09C148.25,126.59,149.48,125.71,150.31,124.15 M150.66,119.13c0.08-0.22,0.15-0.32,0.15-0.43
		c0-1.36,0.01-2.71-0.04-4.07c-0.01-0.26-0.17-0.56-0.34-0.78c-1.06-1.33-2.13-2.66-3.22-3.97c-0.96-1.15-1.87-2.34-2.93-3.39
		c-1.75-1.74-3.93-2.67-6.47-2.75c-2.9-0.1-5.38,0.79-7.48,2.76c-1.24,1.17-2.22,2.51-3.19,3.87c-0.91,1.26-1.77,2.55-2.94,3.61
		c-1.9,1.73-4.8,1.77-6.6-0.03c-0.99-0.99-1.86-2.11-2.7-3.23c-1.13-1.51-2.22-3.04-3.63-4.32c-3.94-3.57-9.86-3.53-13.76,0.06
		c-1.36,1.25-2.43,2.72-3.49,4.21c-0.85,1.19-1.64,2.42-2.79,3.39c-1.88,1.59-4.34,1.68-6.28,0.15c-0.52-0.41-1-0.88-1.4-1.39
		c-0.96-1.22-1.86-2.49-2.8-3.73c-1.14-1.51-2.38-2.94-4.06-3.92c-3.78-2.21-8.54-1.75-11.83,1.11c-1.47,1.28-2.56,2.84-3.72,4.36
		c-0.9,1.19-1.82,2.37-2.88,3.43c-1.77,1.76-4.96,1.62-6.59-0.18c-1.1-1.22-2.09-2.53-3.08-3.84c-0.97-1.29-1.93-2.59-3.15-3.68
		c-3.78-3.39-9.5-3.45-13.35-0.14c-1.36,1.17-2.47,2.53-3.49,3.97c-1,1.41-1.99,2.84-3.35,3.97c-1.2,0.99-2.57,1.32-4.1,1.02
		c-1.34-0.26-2.3-1.05-3.13-2.03c-1.34-1.58-2.47-3.3-3.5-5.07c-0.66-1.13-1.35-2.25-2.45-3.06c-0.48-0.35-0.96-0.72-1.63-0.74
		c-0.06,0.13-0.14,0.23-0.16,0.34c-0.33,1.5-0.65,3.01-0.99,4.5c-0.09,0.38,0.11,0.6,0.32,0.86c0.6,0.74,1.2,1.49,1.79,2.24
		c1.13,1.43,2.17,2.94,3.39,4.28c3.73,4.12,10.33,4.25,14.23,0.45c1.11-1.08,2.06-2.33,3.05-3.53c1.01-1.22,1.9-2.54,2.98-3.69
		c1.99-2.1,5-2.11,7.07-0.1c0.58,0.56,1.09,1.19,1.59,1.83c1.23,1.58,2.36,3.24,3.67,4.75c2.87,3.29,7.27,4.34,11.38,2.79
		c1.87-0.71,3.34-1.95,4.57-3.45c0.96-1.18,1.81-2.45,2.76-3.64c0.73-0.91,1.45-1.84,2.32-2.61c1.74-1.53,4.22-1.51,6.05-0.1
		c1.14,0.88,1.95,2.03,2.77,3.16c1.19,1.64,2.34,3.31,3.89,4.69c2.74,2.45,5.92,3.18,9.51,2.3c2.42-0.59,4.23-2.08,5.72-3.94
		c1.23-1.54,2.33-3.18,3.58-4.71c0.59-0.73,1.32-1.42,2.13-1.91c1.93-1.16,4.21-0.78,5.92,0.92c0.7,0.7,1.3,1.49,1.89,2.27
		c1.26,1.67,2.46,3.37,3.95,4.87c3.21,3.21,8.72,3.79,12.53,1.26c1.88-1.25,3.19-2.98,4.5-4.74c0.91-1.22,1.79-2.47,2.81-3.6
		c2.03-2.23,5.18-2.25,7.25-0.05c1.1,1.17,2.06,2.49,3.03,3.77c1.16,1.53,2.3,3.06,3.89,4.21
		C148.67,118.32,149.54,118.87,150.66,119.13 M11.07,129.82c0,1.11-0.06,2.12,0.01,3.11c0.11,1.48,1.31,2.53,2.86,2.59
		c0.7,0.02,1.4,0.01,2.11,0.01c6.54,0.01,13.08,0.02,19.62,0.02c4.92,0,9.84-0.01,14.76-0.01c4.03,0,8.07,0.02,12.1,0.03
		c5.78,0.01,11.56,0,17.33,0.01c5.41,0,10.82,0.01,16.23,0.02c4.86,0.01,9.72,0.01,14.58,0.01c4.28,0,8.56,0,12.84,0
		c5.2,0,10.39,0,15.59,0c1.16,0,2.32,0,3.48-0.06c1.21-0.06,2.11-0.67,2.53-1.76c0.48-1.27,0.27-2.6,0.19-3.96H11.07z M27.83,46.93
		c0.04-0.56,0.1-1.06,0.11-1.55c0.07-3.51,0.11-7.02,0.18-10.53c0.09-4.66,0.2-9.32,0.3-13.98c0.02-1.12,0.05-2.24,0.05-3.36
		c0-0.7-0.14-0.8-0.8-0.72c-1.95,0.25-3.72,0.93-5.22,2.18c-2.47,2.07-4.45,4.54-6.02,7.29c-1.95,3.4-3.02,7.08-3.32,10.95
		c-0.23,3.06,0.09,6.06,1.01,9c0.26,0.82,0.28,0.83,1.14,0.83c3.82,0,7.64-0.01,11.46-0.02C27.06,47.04,27.41,46.97,27.83,46.93
		 M38.78,46.32c1.35,0.23,10.8,0.16,11.61-0.11c0.13-9.75,0.26-19.53,0.39-29.27c-0.88-0.27-10.62-0.32-11.61-0.09
		C38.96,17.65,38.58,45.29,38.78,46.32 M153.57,87.03c1.69,0.04,3.25,0.19,4.78-0.09c1.9-0.35,3.32-1.91,3.41-3.78
		c0.09-1.82,0.05-3.65,0.02-5.48c-0.07-4.45-0.15-8.91-0.24-13.36c-0.04-1.83-0.07-3.66-0.2-5.48c-0.13-1.85-1.57-3.49-3.45-3.75
		c-1.47-0.21-2.98-0.12-4.47-0.15c-0.08,0-0.16,0.07-0.33,0.16C153.24,65.67,153.41,76.28,153.57,87.03 M19.14,49.79
		c0.02,0.38-0.02,0.68,0.06,0.95c0.71,2.33,2.68,3.95,4.95,4.17c0.55,0.05,1.1,0.1,1.65,0.1c11.25-0.01,22.5-0.02,33.75-0.04
		c1.71,0,3.43,0.01,5.13-0.1c1.73-0.12,3.14-0.95,4.18-2.29c0.62-0.8,1.08-1.7,1.08-2.79H19.14z M27.1,57.85
		c-0.04,0.07-0.07,0.14-0.11,0.21c0.26,0.39,0.49,0.81,0.77,1.18c2.36,3.06,5.36,5.29,9.08,6.62c2.61,0.94,5.31,1.37,8.08,1.28
		c3.31-0.1,6.46-0.85,9.41-2.35c2.98-1.52,5.41-3.61,7.29-6.3c0.12-0.17,0.17-0.4,0.27-0.64H27.1z M53.87,16.89
		c-0.24,1.25-0.36,28.59-0.13,29.37h4.29c0.03-0.23,0.08-0.42,0.09-0.62c0.02-1.47,0.03-2.95,0.05-4.42
		c0.04-3.16,0.1-6.31,0.14-9.47c0.04-3.13,0.06-6.25,0.09-9.38c0.02-1.53,0.04-3.07,0.05-4.6c0.01-0.89-0.06-0.97-0.96-0.97
		c-0.95,0-1.9,0.01-2.84,0.02C54.39,16.82,54.12,16.86,53.87,16.89 M31.47,16.92c-0.16,9.81-0.33,19.55-0.41,29.28
		c1.15,0.21,3.68,0.17,4.35-0.04c0.21-1.08,0.67-28.57,0.46-29.31C34.45,16.83,33.01,16.71,31.47,16.92 M135.86,13.91
		c0.02-0.18,0.05-0.27,0.04-0.35c-0.24-2.64-2.5-4.68-5.36-4.75c-2.62-0.06-5.25-0.06-7.87,0c-2.5,0.05-4.48,1.53-5.21,3.76
		c-0.38,1.18-0.21,1.43,1.04,1.43c5.46,0,10.93-0.01,16.39-0.01C135.22,13.98,135.54,13.93,135.86,13.91"/>
	<path class="st0" d="M10.67,101.25c0.14-1.43,0.46-2.72,0.91-3.96c0.37-1,1.25-1.42,2.3-1.5c0.79-0.06,1.59-0.04,2.38-0.04
		c8.62-0.01,17.24-0.02,25.87-0.03c4.86-0.01,9.72-0.01,14.58-0.02c7.79-0.01,15.59-0.03,23.38-0.05c2.96-0.01,5.93,0,8.89-0.01
		c2.43-0.01,4.1-1.18,5.12-3.26c0.43-0.88,0.41-1.84,0.41-2.78c0.02-3.19-0.01-6.38-0.02-9.57c-0.01-5.05-0.02-10.1-0.04-15.15
		c-0.01-4.13-0.03-8.27-0.05-12.4c-0.01-1.37-0.33-2.62-1.31-3.68c-0.97-1.04-2.16-1.67-3.59-1.76c-1.58-0.1-3.18-0.07-4.77-0.07
		c-4.16-0.01-8.31,0-12.47,0c-3.06,0-6.11,0.02-9.17,0.02c-0.57,0-1.15-0.02-1.8-0.04c-0.02-0.38-0.05-0.67-0.05-0.95
		c0.01-3.87,0.03-7.73,0.04-11.6c0.01-5.17,0.02-10.33,0.04-15.5c0-0.41,0-0.83,0.02-1.24c0.05-0.88,0.15-0.97,1.03-0.98
		c1.8-0.01,3.61-0.02,5.41-0.02c6.08-0.03,12.17-0.07,18.25-0.09c7.83-0.02,15.66-0.01,23.48-0.03c4.16-0.01,8.32-0.05,12.47-0.06
		c6.08,0,12.17,0.01,18.25,0.03c2.11,0.01,4.22,0.04,6.33,0.05c1.58,0.01,2.63,0.86,2.75,2.38c0.09,1.21,0.09,2.42,0.11,3.63
		c0.08,4.37,0.14,8.74,0.22,13.11c0.12,6.73,0.26,13.46,0.39,20.19c0.11,5.84,0.2,11.69,0.3,17.53c0.1,6.23,0.21,12.46,0.29,18.69
		c0.07,5.49,0.1,10.98,0.14,16.47c0,0.25-0.06,0.49-0.28,0.79c-0.34-0.44-0.69-0.87-1.02-1.32c-1.43-1.94-3.03-3.7-5.09-5.04
		c-4.22-2.74-10.07-2.73-14.28,0.02c-1.86,1.21-3.3,2.79-4.59,4.53c-0.76,1.03-1.51,2.08-2.28,3.11c-0.3,0.4-0.63,0.8-1,1.15
		c-0.98,0.91-1.86,0.91-2.77-0.05c-0.66-0.69-1.26-1.45-1.82-2.22c-1.27-1.73-2.5-3.51-4.12-4.97c-3.65-3.28-7.9-4.3-12.72-3.11
		c-2.58,0.64-4.67,2.05-6.37,3.97c-1.11,1.25-2.09,2.61-3.12,3.93c-0.55,0.7-1.1,1.42-1.66,2.12c-0.17,0.21-0.37,0.4-0.58,0.56
		c-0.77,0.59-1.55,0.64-2.23-0.03c-0.73-0.7-1.36-1.51-1.98-2.31c-1-1.27-1.9-2.62-2.96-3.83c-4.06-4.64-9.82-6.12-15.63-3.83
		c-2.19,0.86-3.93,2.38-5.4,4.16c-1.08,1.31-2.06,2.71-3.11,4.05c-0.44,0.56-0.89,1.13-1.41,1.63c-0.86,0.81-1.71,0.81-2.56-0.02
		c-0.62-0.61-1.16-1.29-1.68-1.98c-1.2-1.6-2.31-3.26-3.72-4.71c-3.11-3.19-6.9-4.55-11.41-4.03c-3.56,0.41-6.39,2.12-8.64,4.72
		c-1.35,1.56-2.54,3.24-3.82,4.86c-0.29,0.38-0.6,0.75-0.95,1.08c-0.96,0.92-1.82,0.94-2.78,0c-0.49-0.48-0.92-1.03-1.3-1.59
		c-0.81-1.18-1.59-2.38-2.36-3.59c-0.96-1.52-1.93-3.03-3.52-4.02c-0.69-0.43-1.46-0.72-2.2-1.07
		C11.2,101.42,10.97,101.36,10.67,101.25 M122.34,52.35v-0.01c-3.55,0-7.09,0-10.64,0c-1.64,0-3.23,0.21-4.69,1.01
		c-2.82,1.53-4.34,3.86-4.35,6.99c-0.02,4.96,0.05,9.92,0.08,14.88c0.01,2.15-0.01,4.31,0.04,6.46c0.08,3.23,1.64,5.61,4.54,7.19
		c1.52,0.83,3.19,0.99,4.88,0.99c5.07,0,10.15,0,15.22-0.02c2.47-0.01,4.95,0,7.42-0.08c3.9-0.14,7.68-3.41,7.75-7.68
		c0.02-1.36,0.02-2.71,0.01-4.07c-0.04-3.92-0.08-7.85-0.14-11.77c-0.04-2.12-0.1-4.25-0.2-6.37c-0.13-2.69-1.52-4.67-3.79-6.13
		c-1.55-1-3.29-1.38-5.13-1.37C129.68,52.36,126.01,52.35,122.34,52.35 M110.96,23.82c-2.93,0.05-5.39,1.09-7.28,3.31
		c-2.03,2.38-2.47,5.64-1.06,8.56c0.87,1.79,2.27,3.11,4.09,4.04c5.08,2.59,11.89,0.29,13.43-5.37c0.71-2.62,0.15-5.07-1.63-7.15
		C116.58,24.96,114.04,23.8,110.96,23.82 M133.08,23.78c-0.64,0.12-1.69,0.2-2.66,0.5c-5.64,1.73-7.98,7.88-4.53,12.67
		c3.21,4.45,9.96,5.15,14.16,1.54c2.94-2.53,3.71-6.76,1.76-10.01C139.95,25.41,137.11,23.94,133.08,23.78 M88.59,23.86
		c-1.47-0.01-2.86,0.32-4.16,0.93c-2.95,1.38-4.72,3.66-5.04,6.79c-0.33,3.24,1.11,5.83,3.86,7.64c4.29,2.83,10.19,1.77,13.13-2.21
		c1.88-2.54,2.06-6.21,0.34-8.84C94.83,25.28,92.06,23.96,88.59,23.86"/>
	<path class="st0" d="M150.3,124.15c-0.83,1.56-2.05,2.44-3.7,2.63c-1.21,0.14-2.44,0.09-3.66,0.09c-3.45,0.01-6.91,0.01-10.36,0.02
		c-3.39,0-6.78,0.01-10.18,0.01c-7.09,0-14.18,0-21.27,0c-4.46,0-8.92,0.02-13.38,0.01c-4.64,0-9.29-0.03-13.94-0.03
		c-5.56-0.01-11.12,0-16.68,0c-3.36,0-6.72-0.01-10.09-0.02c-5.65,0-11.31,0-16.96,0c-7.15-0.01-14.3-0.07-21.45,0
		c-2.29,0.02-3.35-1.43-2.84-3.53c0.58-2.38,1.07-4.78,1.6-7.18c0.05-0.22,0.15-0.43,0.28-0.8c0.27,0.34,0.48,0.57,0.66,0.83
		c1.1,1.49,2.17,3,3.54,4.28c3.8,3.56,8.31,4.79,13.48,3.76c3.34-0.67,6.03-2.4,8.18-4.89c1.37-1.58,2.58-3.29,3.87-4.94
		c0.36-0.46,0.77-0.88,1.23-1.4c0.36,0.38,0.65,0.64,0.88,0.93c1.24,1.61,2.42,3.26,3.71,4.84c1.99,2.43,4.42,4.37,7.57,5.2
		c5.5,1.45,10.39,0.37,14.57-3.47c1.81-1.66,3.16-3.67,4.61-5.6c0.46-0.62,0.85-1.3,1.65-1.77c0.26,0.26,0.57,0.5,0.79,0.79
		c0.89,1.16,1.75,2.34,2.63,3.51c1.36,1.8,2.86,3.45,4.78,4.73c2.55,1.7,5.38,2.48,8.47,2.43c4.61-0.08,8.3-2,11.21-5.35
		c1.27-1.46,2.37-3.07,3.55-4.61c0.29-0.38,0.6-0.75,0.92-1.1c0.47-0.51,0.59-0.52,1.06,0.03c0.45,0.52,0.85,1.08,1.28,1.62
		c1.2,1.52,2.32,3.13,3.64,4.55c3.26,3.52,7.36,5.17,12.27,4.81c2.85-0.21,5.4-1.18,7.65-2.9c1.75-1.33,3.16-2.94,4.42-4.7
		c0.82-1.14,1.66-2.26,2.54-3.36c0.49-0.61,0.71-0.62,1.2,0c0.95,1.19,1.83,2.43,2.76,3.63c1.28,1.66,2.65,3.24,4.4,4.47
		c1.3,0.91,2.67,1.66,4.2,2.14C149.68,123.9,149.93,124,150.3,124.15"/>
	<path class="st1" d="M150.66,119.13c-1.11-0.26-1.98-0.81-2.81-1.41c-1.59-1.15-2.74-2.68-3.89-4.21c-0.97-1.28-1.93-2.6-3.03-3.77
		c-2.07-2.2-5.22-2.17-7.25,0.06c-1.03,1.12-1.9,2.38-2.81,3.6c-1.3,1.75-2.62,3.49-4.5,4.74c-3.81,2.53-9.33,1.95-12.53-1.26
		c-1.5-1.5-2.69-3.2-3.95-4.87c-0.59-0.79-1.2-1.57-1.89-2.27c-1.71-1.7-3.99-2.09-5.92-0.92c-0.81,0.49-1.54,1.18-2.13,1.91
		c-1.25,1.53-2.34,3.17-3.58,4.71c-1.49,1.86-3.3,3.34-5.72,3.94c-3.58,0.88-6.76,0.15-9.51-2.3c-1.54-1.38-2.69-3.04-3.89-4.69
		c-0.82-1.13-1.63-2.29-2.77-3.17c-1.83-1.41-4.32-1.43-6.05,0.1c-0.87,0.77-1.6,1.7-2.32,2.61c-0.95,1.19-1.8,2.46-2.76,3.64
		c-1.22,1.51-2.7,2.75-4.57,3.45c-4.11,1.55-8.51,0.51-11.38-2.79c-1.31-1.51-2.44-3.17-3.67-4.75c-0.5-0.63-1.01-1.27-1.59-1.83
		c-2.08-2.02-5.08-2.01-7.07,0.1c-1.09,1.15-1.97,2.47-2.98,3.69c-0.99,1.2-1.94,2.44-3.05,3.53c-3.9,3.8-10.5,3.67-14.23-0.45
		c-1.22-1.35-2.26-2.85-3.39-4.29c-0.59-0.75-1.18-1.5-1.79-2.24c-0.21-0.26-0.41-0.48-0.32-0.86c0.35-1.5,0.66-3,0.99-4.5
		c0.02-0.11,0.1-0.21,0.16-0.34c0.67,0.02,1.15,0.38,1.63,0.74c1.1,0.81,1.79,1.93,2.45,3.06c1.04,1.78,2.16,3.49,3.5,5.07
		c0.83,0.98,1.8,1.77,3.13,2.03c1.54,0.29,2.91-0.03,4.1-1.02c1.36-1.13,2.35-2.56,3.35-3.97c1.03-1.44,2.14-2.8,3.49-3.97
		c3.85-3.31,9.57-3.26,13.35,0.14c1.22,1.09,2.18,2.39,3.15,3.68c0.99,1.31,1.98,2.63,3.08,3.84c1.63,1.8,4.81,1.94,6.59,0.18
		c1.06-1.05,1.98-2.24,2.88-3.42c1.15-1.53,2.25-3.09,3.72-4.36c3.29-2.86,8.05-3.33,11.83-1.11c1.68,0.98,2.92,2.41,4.06,3.92
		c0.94,1.24,1.83,2.51,2.8,3.73c0.4,0.51,0.89,0.98,1.4,1.39c1.93,1.53,4.4,1.45,6.28-0.15c1.14-0.97,1.93-2.2,2.79-3.39
		c1.06-1.48,2.13-2.95,3.49-4.21c3.91-3.59,9.83-3.63,13.76-0.06c1.41,1.28,2.5,2.81,3.63,4.32c0.84,1.12,1.71,2.24,2.7,3.23
		c1.8,1.8,4.71,1.76,6.6,0.03c1.17-1.07,2.03-2.36,2.94-3.61c0.98-1.36,1.96-2.7,3.19-3.87c2.09-1.98,4.58-2.86,7.48-2.76
		c2.54,0.08,4.71,1.02,6.47,2.75c1.06,1.05,1.97,2.24,2.93,3.39c1.09,1.31,2.16,2.63,3.22,3.97c0.17,0.22,0.34,0.51,0.34,0.78
		c0.04,1.36,0.03,2.71,0.04,4.07C150.81,118.81,150.73,118.92,150.66,119.13"/>
	<path class="st0" d="M11.07,129.82h134.25c0.08,1.36,0.29,2.69-0.19,3.96c-0.41,1.09-1.32,1.7-2.53,1.76
		c-1.16,0.06-2.32,0.06-3.48,0.06c-5.2,0.01-10.39,0-15.59,0.01c-4.28,0-8.56,0-12.84,0c-4.86,0-9.72-0.01-14.58-0.01
		c-5.41-0.01-10.82-0.02-16.23-0.02c-5.78,0-11.56,0-17.33-0.01c-4.03,0-8.07-0.03-12.1-0.03c-4.92,0-9.84,0.01-14.76,0.01
		c-6.54,0-13.08-0.01-19.62-0.02c-0.7,0-1.41,0.01-2.11-0.01c-1.55-0.05-2.75-1.1-2.86-2.59C11.01,131.94,11.07,130.94,11.07,129.82
		"/>
	<path class="st0" d="M27.83,46.93c-0.42,0.04-0.77,0.11-1.13,0.11c-3.82,0.01-7.64,0.02-11.46,0.02c-0.86,0-0.89-0.01-1.14-0.83
		c-0.92-2.94-1.24-5.95-1.01-9c0.3-3.87,1.37-7.55,3.32-10.95c1.58-2.75,3.55-5.22,6.02-7.29c1.5-1.25,3.27-1.93,5.22-2.18
		c0.66-0.09,0.8,0.02,0.8,0.72c0.01,1.12-0.02,2.24-0.05,3.36c-0.1,4.66-0.21,9.32-0.3,13.98c-0.07,3.51-0.12,7.02-0.18,10.53
		C27.93,45.87,27.87,46.37,27.83,46.93"/>
	<path class="st0" d="M38.78,46.32c-0.19-1.03,0.18-28.68,0.39-29.47c0.99-0.23,10.73-0.18,11.61,0.09
		c-0.13,9.74-0.26,19.52-0.4,29.27C49.57,46.48,40.13,46.56,38.78,46.32"/>
	<path class="st0" d="M153.57,87.03c-0.16-10.75-0.33-21.36-0.49-31.93c0.17-0.08,0.25-0.16,0.33-0.16c1.49,0.03,3-0.06,4.47,0.15
		c1.88,0.27,3.32,1.9,3.45,3.76c0.13,1.82,0.16,3.65,0.2,5.48c0.09,4.45,0.18,8.9,0.24,13.36c0.03,1.83,0.07,3.65-0.02,5.48
		c-0.09,1.88-1.5,3.44-3.41,3.78C156.82,87.22,155.26,87.07,153.57,87.03"/>
	<path class="st0" d="M19.14,49.79h50.8c0,1.09-0.46,1.98-1.08,2.79c-1.04,1.34-2.45,2.17-4.18,2.29c-1.7,0.12-3.42,0.1-5.13,0.1
		c-11.25,0.02-22.5,0.03-33.75,0.04c-0.55,0-1.1-0.05-1.65-0.1c-2.27-0.22-4.24-1.84-4.94-4.17C19.12,50.47,19.16,50.17,19.14,49.79
		"/>
	<path class="st2" d="M27.1,57.85H61.9c-0.1,0.24-0.14,0.47-0.27,0.64c-1.89,2.69-4.31,4.78-7.29,6.3
		c-2.95,1.51-6.09,2.25-9.41,2.35c-2.78,0.09-5.47-0.34-8.08-1.28c-3.71-1.33-6.72-3.56-9.08-6.62c-0.29-0.37-0.52-0.78-0.77-1.18
		C27.03,57.99,27.07,57.92,27.1,57.85"/>
	<path class="st2" d="M53.87,16.89c0.24-0.02,0.51-0.06,0.78-0.07c0.95-0.01,1.89-0.02,2.84-0.02c0.9,0,0.97,0.08,0.96,0.97
		c-0.02,1.53-0.04,3.07-0.05,4.6c-0.03,3.13-0.05,6.25-0.09,9.38c-0.04,3.16-0.09,6.31-0.14,9.47c-0.02,1.47-0.03,2.95-0.05,4.42
		c0,0.2-0.05,0.39-0.09,0.62h-4.29C53.51,45.48,53.64,18.14,53.87,16.89"/>
	<path class="st2" d="M31.47,16.92c1.54-0.22,2.99-0.09,4.41-0.07c0.21,0.74-0.25,28.22-0.46,29.31c-0.67,0.21-3.21,0.25-4.35,0.04
		C31.14,36.47,31.31,26.73,31.47,16.92"/>
	<path d="M122.34,52.35c3.67,0,7.34,0.01,11,0c1.85,0,3.58,0.37,5.13,1.37c2.26,1.46,3.66,3.45,3.79,6.13
		c0.1,2.12,0.16,4.24,0.2,6.37c0.06,3.92,0.1,7.85,0.14,11.77c0.01,1.36,0.01,2.71-0.01,4.07c-0.07,4.27-3.85,7.53-7.75,7.68
		c-2.47,0.09-4.95,0.08-7.42,0.09c-5.07,0.02-10.15,0.02-15.22,0.02c-1.69,0-3.36-0.16-4.88-0.99c-2.89-1.58-4.46-3.96-4.54-7.19
		c-0.05-2.15-0.03-4.31-0.04-6.46c-0.03-4.96-0.09-9.92-0.08-14.88c0.01-3.13,1.53-5.46,4.35-6.99c1.46-0.79,3.05-1.01,4.69-1.01
		c3.55,0,7.09,0,10.64,0V52.35z M122.52,55.04C122.52,55.05,122.52,55.05,122.52,55.04c-3.7,0.01-7.4,0.02-11.1,0.01
		c-3.44-0.02-5.84,2.44-5.73,5.39c0.03,0.71,0.02,1.42,0.02,2.12c0.01,2.89,0,5.78,0.01,8.68c0.02,3.54,0.05,7.08,0.09,10.62
		c0.02,1.32,0.49,2.47,1.42,3.46c1.24,1.32,2.82,1.78,4.61,1.77c5.29-0.02,10.58-0.01,15.87-0.01c2.05,0,4.1,0.01,6.15-0.01
		c1.21-0.01,2.37-0.24,3.38-0.94c1.61-1.12,2.39-2.65,2.38-4.55c-0.03-3.93-0.08-7.85-0.13-11.78c-0.04-3.1-0.08-6.2-0.15-9.3
		c-0.08-3.25-2.47-5.46-5.82-5.46C129.85,55.05,126.19,55.04,122.52,55.04"/>
	<path d="M110.96,23.82c3.08-0.03,5.62,1.14,7.54,3.39c1.78,2.08,2.34,4.53,1.63,7.15c-1.53,5.66-8.35,7.96-13.43,5.37
		c-1.82-0.93-3.22-2.25-4.09-4.04c-1.41-2.92-0.97-6.18,1.06-8.56C105.57,24.92,108.03,23.87,110.96,23.82 M117.29,32.27
		c0.08-0.86-0.16-1.66-0.54-2.45c-1.82-3.73-7.58-4.7-10.57-1.12c-1.06,1.27-1.58,2.77-1.24,4.38c0.66,3.13,3.35,4.98,6.33,4.96
		C114.51,38.02,117.5,35.31,117.29,32.27"/>
	<path d="M133.08,23.78c4.03,0.17,6.87,1.63,8.72,4.7c1.95,3.25,1.18,7.48-1.76,10.01c-4.2,3.61-10.95,2.91-14.16-1.54
		c-3.45-4.79-1.1-10.94,4.53-12.67C131.39,23.98,132.44,23.89,133.08,23.78 M133.49,26.4c-3.16-0.02-6.47,2.29-6.19,6.33
		c0.22,3.2,3.4,5.46,6.43,5.38c3.79-0.1,6.16-2.8,6.16-5.66C139.89,28.5,136.41,26.33,133.49,26.4"/>
	<path d="M88.59,23.86c3.47,0.1,6.24,1.42,8.13,4.31c1.71,2.63,1.53,6.3-0.34,8.84c-2.94,3.98-8.84,5.04-13.13,2.21
		c-2.75-1.81-4.19-4.4-3.86-7.64c0.32-3.13,2.09-5.42,5.04-6.79C85.73,24.18,87.12,23.85,88.59,23.86 M88.61,38.1
		c1.78,0.01,3.2-0.51,4.47-1.71c2.25-2.11,2.5-5.27,0.61-7.63c-1.72-2.16-4.68-2.88-7.35-1.94c-3.78,1.34-5.24,5.54-2.97,8.69
		C84.63,37.26,86.42,38.09,88.61,38.1"/>
	<path class="st0" d="M122.52,55.04c3.67,0,7.34,0,11,0c3.35,0,5.74,2.21,5.82,5.46c0.08,3.1,0.11,6.2,0.15,9.3
		c0.05,3.92,0.1,7.85,0.13,11.77c0.01,1.9-0.77,3.43-2.38,4.55c-1.01,0.7-2.17,0.93-3.38,0.94c-2.05,0.02-4.1,0.01-6.15,0.01
		c-5.29,0-10.58-0.01-15.87,0.01c-1.8,0.01-3.37-0.45-4.61-1.77c-0.93-0.98-1.4-2.14-1.42-3.46c-0.05-3.54-0.07-7.08-0.09-10.62
		c-0.02-2.89-0.01-5.78-0.01-8.68c0-0.71,0.01-1.42-0.02-2.12c-0.11-2.95,2.29-5.4,5.73-5.39
		C115.12,55.07,118.82,55.05,122.52,55.04C122.52,55.05,122.52,55.05,122.52,55.04 M134.67,68.48c0.08-0.93-0.11-1.95-0.49-2.93
		c-0.68-1.75-1.79-3.16-3.59-3.96c-2.58-1.14-5.01-0.63-7.31,0.77c-0.77,0.47-0.75,0.51-1.53,0.02c-1.44-0.91-3.01-1.45-4.74-1.4
		c-2.25,0.06-4.01,1.04-5.2,2.85c-1.74,2.65-1.74,5.47-0.55,8.31c0.84,2,2.33,3.55,4.1,4.79c2.25,1.58,4.61,3,6.92,4.5
		c0.34,0.22,0.62,0.13,0.92-0.06c1.03-0.64,2.08-1.25,3.1-1.9c1.86-1.19,3.72-2.38,5.3-3.93C133.56,73.62,134.73,71.36,134.67,68.48
		"/>
	<path class="st3" d="M117.29,32.27c0.2,3.05-2.78,5.75-6.02,5.77c-2.99,0.01-5.68-1.84-6.33-4.96c-0.34-1.61,0.18-3.11,1.24-4.38
		c2.99-3.58,8.76-2.61,10.57,1.12C117.14,30.61,117.37,31.41,117.29,32.27"/>
	<path class="st3" d="M133.49,26.4c2.92-0.08,6.4,2.1,6.4,6.04c0,2.87-2.37,5.57-6.16,5.66c-3.03,0.08-6.2-2.18-6.43-5.38
		C127.02,28.7,130.33,26.38,133.49,26.4"/>
	<path class="st3" d="M88.61,38.1c-2.19-0.01-3.98-0.84-5.23-2.58c-2.26-3.15-0.8-7.35,2.97-8.69c2.66-0.94,5.62-0.22,7.35,1.94
		c1.88,2.36,1.63,5.52-0.61,7.63C91.81,37.59,90.4,38.11,88.61,38.1"/>
	<path d="M134.67,68.48c0.06,2.88-1.12,5.14-3.08,7.07c-1.58,1.55-3.44,2.74-5.3,3.93c-1.02,0.65-2.07,1.26-3.1,1.9
		c-0.31,0.19-0.58,0.28-0.93,0.06c-2.31-1.5-4.67-2.92-6.91-4.5c-1.77-1.24-3.26-2.78-4.1-4.79c-1.19-2.85-1.19-5.66,0.55-8.31
		c1.19-1.81,2.95-2.79,5.2-2.85c1.74-0.05,3.3,0.5,4.75,1.4c0.77,0.49,0.76,0.45,1.53-0.02c2.3-1.41,4.72-1.92,7.31-0.78
		c1.8,0.79,2.9,2.21,3.59,3.96C134.57,66.53,134.75,67.54,134.67,68.48 M122.57,66.92c-0.41-0.38-0.73-0.66-1.02-0.95
		c-0.64-0.64-1.29-1.25-2.12-1.67c-1.64-0.83-3.24-0.72-4.42,0.37c-0.64,0.58-1.05,1.31-1.24,2.13c-0.62,2.64,0.14,4.91,2.12,6.78
		c1.8,1.71,3.93,2.98,6.05,4.29c0.53,0.33,0.98,0.35,1.5-0.01c1.77-1.26,3.61-2.43,5.31-3.76c0.83-0.65,1.58-1.52,2.07-2.44
		c1.08-2.02,1.15-4.14-0.03-6.19c-0.72-1.24-2.21-2.04-3.91-1.58c-1.08,0.3-2.03,0.8-2.8,1.6C123.62,65.96,123.13,66.4,122.57,66.92
		"/>
	<path class="st4" d="M122.57,66.92c0.56-0.53,1.05-0.96,1.51-1.43c0.78-0.8,1.72-1.3,2.8-1.6c1.7-0.46,3.2,0.33,3.91,1.58
		c1.18,2.05,1.11,4.16,0.03,6.19c-0.49,0.92-1.24,1.79-2.07,2.44c-1.7,1.34-3.54,2.51-5.31,3.76c-0.52,0.37-0.97,0.34-1.5,0.01
		c-2.11-1.3-4.25-2.58-6.05-4.29c-1.98-1.87-2.73-4.14-2.12-6.78c0.19-0.82,0.6-1.55,1.24-2.13c1.19-1.08,2.79-1.2,4.42-0.37
		c0.83,0.42,1.48,1.03,2.12,1.67C121.84,66.27,122.15,66.54,122.57,66.92"/>
	<path d="M95.92,161.54c0-1.32,0.01-2.64,0-3.96c-0.03-2.22-0.07-4.43-0.11-6.65c-0.01-0.72-0.04-1.44-0.03-2.17
		c0-0.67,0.32-1.02,1.02-1.03c1.91-0.03,1.56-0.19,1.56,1.34c0.01,7.78,0.01,15.55,0.01,23.33c0,0.77,0,0.77-0.81,0.77
		c-0.16,0-0.33,0-0.49,0c-0.89,0-1.13-0.22-1.29-1.06c-0.68-3.6-1.38-7.2-2.07-10.8c-0.06-0.33-0.13-0.67-0.27-1
		c0,1-0.01,1.99,0,2.99c0.04,2.92,0.09,5.85,0.12,8.77c0.01,0.77-0.34,1.1-1.16,1.09c-1.58-0.02-1.42,0.25-1.42-1.34
		c0-7.76,0-15.52,0-23.27c0-0.83,0-0.83,0.87-0.83c0.24,0,0.47-0.01,0.71,0.01c0.61,0.04,0.91,0.3,1.01,0.89
		c0.54,3.17,1.07,6.34,1.62,9.52c0.2,1.14,0.44,2.28,0.67,3.42C95.87,161.55,95.89,161.55,95.92,161.54"/>
	<path d="M76.55,162.63v0.69c0,2.85,0,5.71,0,8.57c0,0.98-0.33,1.3-1.37,1.29c-1.37,0-1.24,0.15-1.24-1.15c0-7.84,0-15.69,0-23.53
		c0-0.77,0-0.78,0.82-0.77c1.17,0.01,2.34-0.04,3.5,0.05c1.95,0.14,3.1,1.37,3.1,3.21c0,2.79,0,5.57,0,8.36
		c0,0.92-0.28,1.69-1.18,2.22c0.08,0.08,0.14,0.16,0.22,0.21c0.67,0.47,0.96,1.11,0.96,1.87c0.01,2.98,0,5.95,0.01,8.93
		c0,0.43-0.15,0.65-0.64,0.6c-0.2-0.02-0.4,0-0.6,0c-1.09,0-1.38-0.28-1.38-1.33c0-1.69,0-3.37,0-5.06c0-0.96,0-1.93,0-2.89
		c0-1-0.3-1.27-1.37-1.28C77.13,162.63,76.88,162.63,76.55,162.63 M76.58,160.56h0.66c1.21,0,1.52-0.29,1.52-1.43
		c0-1.27,0-2.55,0-3.82c0-1.45,0-2.89,0-4.33c0-0.62-0.25-1.06-0.73-1.13c-0.47-0.06-0.96-0.01-1.45-0.01V160.56z"/>
	<path d="M10.15,160.41c0-3.32-0.02-6.64,0.01-9.96c0.01-1.62,0.96-2.66,2.65-2.91c0.7-0.11,1.47-0.1,2.17,0.04
		c1.66,0.31,2.59,1.4,2.59,3c0.01,6.59,0.01,13.18,0,19.77c0,1.73-1.01,2.84-2.82,3.05c-0.79,0.09-1.65,0.04-2.42-0.15
		c-1.36-0.34-2.16-1.38-2.17-2.71C10.13,167.15,10.15,163.78,10.15,160.41L10.15,160.41z M12.76,160.43c0,3.3,0,6.6,0,9.91
		c0,0.71,0.4,1.09,1.09,1.09c0.68,0,1.1-0.39,1.1-1.09c0-6.59,0.01-13.17,0-19.76c0-0.8-0.53-1.19-1.36-1.05
		c-0.56,0.1-0.82,0.45-0.82,1.15C12.76,153.93,12.76,157.18,12.76,160.43"/>
	<path d="M44.51,159.16h2.19c0-0.19,0-0.37,0-0.55c0-3.22,0-6.43,0-9.65c0-0.91,0.32-1.22,1.27-1.22c1.5,0,1.36-0.16,1.36,1.26
		c0,7.79,0,15.59,0,23.38c0,0.81,0,0.81-0.85,0.81c-1.61,0-1.78-0.16-1.78-1.68v-9.6v-0.6h-2.19v0.57c0,3.29,0,6.57,0,9.86
		c0,1.2-0.27,1.46-1.53,1.46c-1.07,0-1.1,0.15-1.1-1.04c0.01-7.86,0-15.73,0-23.59c0-0.83,0-0.83,0.89-0.83c0.16,0,0.33,0,0.49,0
		c0.92,0.01,1.25,0.32,1.25,1.19c0,3.22,0,6.43,0,9.65V159.16z"/>
	<path d="M140.24,167.77c0-0.95,0.01-1.89-0.01-2.84c-0.01-0.39,0.13-0.58,0.57-0.56c0.27,0.02,0.55,0,0.82,0
		c0.84,0.02,1.2,0.35,1.21,1.14c0.01,1.58-0.01,3.17,0.01,4.75c0.01,0.93,0.78,1.41,1.62,1.04c0.54-0.23,0.6-0.71,0.59-1.18
		c-0.03-2.58-0.46-5.1-1.46-7.51c-0.74-1.79-1.56-3.55-2.26-5.36c-0.86-2.24-1.17-4.57-1.1-6.94c0.04-1.33,0.93-2.45,2.39-2.71
		c0.89-0.16,1.86-0.15,2.75,0.02c1.41,0.27,2.22,1.33,2.25,2.75c0.04,1.87,0.01,3.75,0.02,5.62c0,0.4-0.2,0.54-0.61,0.54
		c-1.47,0.01-2.08,0.08-2-1.8c0.06-1.34,0.02-2.68,0.01-4.02c-0.01-0.71-0.27-1.08-0.81-1.19c-0.85-0.17-1.44,0.22-1.39,1.06
		c0.08,1.4,0.18,2.81,0.43,4.2c0.39,2.15,1.4,4.11,2.31,6.1c1.31,2.86,2.03,5.83,2.05,8.95c0.02,2.62-1.71,4.01-4.48,3.6
		c-1.99-0.29-2.92-1.32-2.92-3.23C140.24,169.39,140.24,168.58,140.24,167.77"/>
	<path d="M123.18,167.8c0-0.95,0.01-1.89,0-2.84c-0.01-0.41,0.16-0.61,0.62-0.58c0.27,0.02,0.55,0,0.82,0.01
		c0.82,0.02,1.19,0.37,1.19,1.16c0.01,1.58,0,3.17,0,4.75c0,0.68,0.33,1.06,0.94,1.12c0.76,0.08,1.23-0.33,1.25-1.09
		c0.06-2.7-0.44-5.3-1.48-7.82c-0.63-1.52-1.33-3.01-1.96-4.53c-0.96-2.35-1.38-4.8-1.38-7.32c0-1.87,1.31-3.17,3.29-3.2
		c0.75-0.01,1.54,0.06,2.25,0.29c1.23,0.39,1.84,1.34,1.87,2.54c0.05,1.91,0.02,3.82,0.03,5.73c0,0.34-0.17,0.49-0.53,0.52
		c-1.77,0.13-2.1-0.16-2.1-1.82c0-1.36,0-2.72,0-4.08c0-0.76-0.36-1.14-1.07-1.15c-0.75-0.01-1.1,0.36-1.11,1.16
		c-0.06,3.03,0.75,5.88,2.03,8.63c0.92,1.98,1.9,3.96,2.26,6.11c0.26,1.56,0.43,3.13,0.5,4.71c0.09,1.95-1.07,3.13-3.14,3.33
		c-0.61,0.06-1.25,0.01-1.84-0.11c-1.48-0.31-2.35-1.32-2.42-2.75c-0.04-0.93-0.01-1.86-0.01-2.79
		C123.19,167.8,123.19,167.8,123.18,167.8"/>
	<path d="M110.83,149.79v9.76c0.69,0,1.36,0,2.03,0c0.89,0,0.91,0.02,0.9,0.88c0,0.09,0,0.17-0.01,0.26
		c-0.07,0.6-0.44,0.92-1.08,0.93c-0.6,0.01-1.2,0-1.83,0v9.52c0.7,0,1.39,0,2.07,0c0.86,0,1.19,0.31,1.21,1.11
		c0,0.14-0.01,0.28,0,0.41c0.03,0.37-0.12,0.53-0.53,0.53c-1.62-0.01-3.25-0.01-4.87,0c-0.41,0-0.56-0.16-0.55-0.52
		c0.01-0.65,0-1.31,0-1.96c0-7.38,0-14.76,0-22.14c0-0.83,0-0.83,0.88-0.83c1.48,0,2.95,0.01,4.43-0.01
		c0.46-0.01,0.7,0.13,0.64,0.59c-0.02,0.15,0,0.31,0,0.46c-0.03,0.65-0.36,0.99-1.05,1.01
		C112.34,149.81,111.61,149.79,110.83,149.79"/>
	<path d="M61.55,149.85v9.7c0.71,0,1.4,0,2.09,0c0.84,0,0.84,0,0.84,0.81c0,0.14,0,0.28-0.02,0.41c-0.08,0.53-0.42,0.83-0.99,0.84
		c-0.62,0.01-1.23,0-1.9,0v9.52c0.68,0,1.36,0,2.05,0c1.02,0,1.67,0.99,1.2,1.84c-0.06,0.11-0.3,0.19-0.45,0.2
		c-1.66,0.01-3.32,0-4.98,0.01c-0.33,0-0.47-0.14-0.46-0.43c0-0.12,0-0.24,0-0.36c0-7.96,0-15.92,0-23.89c0-0.77,0-0.77,0.82-0.77
		c1.49,0,2.99,0.01,4.48-0.01c0.47-0.01,0.69,0.15,0.63,0.6c-0.02,0.12,0,0.24,0,0.36c-0.01,0.76-0.35,1.09-1.17,1.11
		c-0.66,0.01-1.31,0.01-1.97,0.01C61.69,149.8,61.66,149.82,61.55,149.85"/>
	<path d="M28.04,149.79c-0.45,0-0.79,0.02-1.14,0c-0.67-0.04-0.99-0.36-1.01-0.98c-0.05-1.08-0.05-1.08,1.1-1.08
		c1.7,0,3.39,0,5.09,0c0.72,0,0.74,0.02,0.75,0.69c0,1.11-0.27,1.37-1.43,1.38c-0.23,0-0.46,0-0.75,0v0.73c0,7.22,0,14.45,0,21.67
		c0,0.86-0.13,0.98-1.04,0.98c-1.55,0-1.55,0-1.55-1.45c0-7.05,0-14.1,0-21.16V149.79z"/>
	<path d="M19.43,179.48c0.19,0,0.37,0.02,0.54,0.06c0.18,0.04,0.34,0.1,0.49,0.17c0.13,0.05,0.26,0.12,0.38,0.19
		c0.12,0.08,0.23,0.18,0.32,0.29c0.04,0.09,0.06,0.17,0.08,0.24c0.02,0.08-0.02,0.15-0.11,0.22c-0.09,0.09-0.2,0.14-0.33,0.15
		c-0.13,0.02-0.26,0.03-0.39,0.03h-0.28c-0.09,0-0.19,0.01-0.28,0.03H19.6h-0.03c-0.21,0.02-0.4,0.03-0.57,0.04
		c-0.18,0.01-0.36,0.03-0.54,0.06c-0.37,0.03-0.73,0.08-1.07,0.13c-0.34,0.05-0.69,0.1-1.05,0.15c-0.46,0.09-0.93,0.18-1.39,0.27
		c-0.47,0.09-0.93,0.19-1.39,0.29c-0.07,0.46-0.16,0.95-0.25,1.45c-0.09,0.5-0.18,0.98-0.25,1.42c-0.02,0.05-0.03,0.11-0.03,0.18
		c1.32-0.2,2.67-0.36,4.04-0.46c0.32-0.03,0.64-0.01,0.98,0.08c0.34,0.09,0.62,0.23,0.86,0.44c0.07,0.07,0.14,0.15,0.21,0.24
		c0.06,0.09,0.08,0.18,0.04,0.27c-0.04,0.09-0.11,0.15-0.22,0.21c-0.11,0.05-0.21,0.09-0.31,0.1c-0.06,0-0.12,0-0.18,0.01
		c-0.07,0.01-0.13,0.01-0.18,0.01c-0.93,0.09-1.85,0.19-2.77,0.31c-0.92,0.12-1.84,0.27-2.75,0.46c-0.09,0.5-0.17,1-0.24,1.51
		c-0.07,0.51-0.14,1.03-0.24,1.54c-0.04,0.15-0.07,0.31-0.08,0.46s-0.04,0.3-0.06,0.44c0.5-0.12,1-0.23,1.51-0.35
		c0.5-0.11,1.01-0.22,1.53-0.32c0.65-0.12,1.3-0.22,1.95-0.29c0.65-0.08,1.3-0.12,1.95-0.12c0.17,0,0.34,0.02,0.52,0.06
		c0.18,0.04,0.34,0.1,0.49,0.17c0.32,0.12,0.55,0.28,0.7,0.49c0.13,0.19,0.13,0.34,0,0.46c-0.09,0.09-0.21,0.14-0.34,0.15
		c-0.13,0.02-0.26,0.03-0.39,0.03h-0.36c-0.04,0.02-0.08,0.03-0.14,0.03c-0.13,0-0.26,0-0.38,0.01c-0.12,0.01-0.24,0.02-0.35,0.04
		c-0.54,0.05-1.08,0.13-1.62,0.23c-0.52,0.09-1.03,0.18-1.53,0.28c-0.5,0.1-1,0.22-1.51,0.36c-0.87,0.2-1.74,0.44-2.59,0.69
		c-0.26,0.09-0.52,0.11-0.78,0.06c-0.26-0.04-0.51-0.12-0.75-0.22c-0.19-0.07-0.37-0.17-0.56-0.31c-0.19-0.14-0.26-0.31-0.22-0.51
		v-0.03c0.09-0.48,0.17-0.96,0.24-1.44c0.06-0.48,0.14-0.97,0.24-1.46c0.04-0.26,0.07-0.51,0.11-0.77c0.04-0.26,0.07-0.51,0.11-0.77
		c-0.35-0.07-0.66-0.18-0.92-0.33c-0.09-0.05-0.19-0.12-0.28-0.2s-0.16-0.19-0.19-0.31c-0.04-0.09-0.02-0.17,0.04-0.24
		c0.06-0.08,0.14-0.12,0.24-0.14c0.09-0.03,0.18-0.06,0.25-0.08c0.07-0.02,0.16-0.03,0.25-0.05c0.15-0.03,0.29-0.07,0.43-0.1
		c0.14-0.03,0.28-0.07,0.43-0.1c0.06-0.29,0.11-0.59,0.15-0.88c0.05-0.3,0.1-0.6,0.15-0.91c0.07-0.43,0.16-0.88,0.25-1.35
		c0.09-0.47,0.17-0.92,0.22-1.35c0.04-0.1,0.13-0.19,0.28-0.26c0.09-0.02,0.19-0.03,0.28-0.05s0.19-0.04,0.28-0.08
		c1.24-0.29,2.5-0.54,3.78-0.74C16.87,179.59,18.15,179.48,19.43,179.48"/>
	<path d="M28.91,189.95c0.11,0.09,0.22,0.19,0.32,0.32c0.1,0.13,0.15,0.26,0.15,0.4c0,0.17-0.02,0.29-0.06,0.36
		c-0.06,0.14-0.14,0.26-0.25,0.36c-0.19,0.17-0.38,0.32-0.59,0.44c-0.33,0.2-0.66,0.38-0.98,0.51c-0.33,0.15-0.67,0.29-1.02,0.42
		c-0.34,0.13-0.69,0.25-1.05,0.37c-0.43,0.14-0.86,0.27-1.31,0.41c-0.45,0.14-0.89,0.26-1.34,0.36c-0.3,0.09-0.59,0.1-0.86,0.05
		c-0.37-0.05-0.7-0.16-0.98-0.33c-0.09-0.05-0.19-0.12-0.28-0.2c-0.09-0.09-0.16-0.19-0.19-0.31c-0.06-0.2,0.04-0.34,0.28-0.41
		c0.26-0.07,0.51-0.13,0.74-0.19c0.23-0.06,0.48-0.13,0.74-0.22c0.33-0.1,0.67-0.21,1.02-0.32c0.34-0.11,0.68-0.23,1.02-0.35
		c0.32-0.12,0.62-0.24,0.92-0.37c0.3-0.13,0.59-0.27,0.89-0.42c0.11-0.08,0.22-0.17,0.33-0.24c0.11-0.08,0.21-0.17,0.31-0.27v-0.03
		c-0.02,0-0.03,0-0.04-0.01c-0.01-0.01-0.02-0.01-0.04-0.01c-0.11,0-0.26-0.02-0.45-0.05c-0.43-0.05-0.86-0.13-1.28-0.23
		c-0.28-0.07-0.55-0.15-0.82-0.26c-0.27-0.1-0.53-0.23-0.77-0.38c-0.21-0.14-0.41-0.3-0.61-0.5c-0.2-0.2-0.33-0.41-0.39-0.65
		c-0.04-0.19-0.03-0.38,0.01-0.56c0.05-0.19,0.12-0.36,0.21-0.51c0.15-0.26,0.33-0.53,0.53-0.82c0.19-0.27,0.38-0.54,0.57-0.81
		c0.19-0.27,0.4-0.52,0.63-0.76c0.2-0.22,0.42-0.44,0.64-0.64c0.22-0.2,0.48-0.36,0.78-0.46c0.33-0.14,0.68-0.18,1.03-0.14
		c0.35,0.04,0.7,0.13,1.03,0.27c0.48,0.17,0.85,0.46,1.09,0.87c0.09,0.2,0.16,0.41,0.21,0.6c0.05,0.2,0.09,0.4,0.13,0.6
		c0.06,0.65,0.06,1.3,0,1.95c0,0.09-0.07,0.15-0.2,0.19c-0.13,0.04-0.23,0.07-0.31,0.09c-0.17,0.03-0.33,0.04-0.5,0.01
		c-0.17-0.03-0.33-0.06-0.47-0.09c-0.15-0.05-0.3-0.11-0.45-0.18c-0.15-0.07-0.29-0.15-0.42-0.26c-0.11-0.1-0.2-0.21-0.25-0.33
		v-0.18c0.02-0.09,0.03-0.21,0.03-0.38v-0.42c0-0.14-0.01-0.29-0.03-0.42c-0.15,0.19-0.29,0.38-0.43,0.58
		c-0.14,0.2-0.28,0.39-0.43,0.58c-0.09,0.14-0.18,0.26-0.25,0.37c-0.07,0.11-0.16,0.24-0.25,0.37c-0.07,0.12-0.14,0.24-0.19,0.36
		s-0.09,0.25-0.11,0.38c0,0.05,0.02,0.13,0.06,0.23c0,0.02,0.02,0.04,0.06,0.08c0.02,0.02,0.04,0.03,0.06,0.03
		c0.11,0.03,0.19,0.06,0.22,0.08h0.14c0.06,0.02,0.11,0.03,0.15,0.04c0.05,0.01,0.1,0.01,0.15,0.01c0.04,0,0.06,0,0.07,0.01
		c0.01,0.01,0.02,0.01,0.04,0.01c0.26,0.02,0.51,0.05,0.74,0.09c0.23,0.04,0.47,0.1,0.71,0.17c0.3,0.09,0.58,0.19,0.84,0.31
		C28.41,189.6,28.66,189.76,28.91,189.95 M25.78,188.92c-0.06-0.02-0.08-0.03-0.07-0.03C25.72,188.89,25.75,188.9,25.78,188.92
		 M26.73,190.28c0.02,0,0.03-0.01,0.03-0.03h-0.08h0.03C26.7,190.27,26.71,190.28,26.73,190.28"/>
	<path d="M38.27,184.1c0.2,0.14,0.4,0.29,0.6,0.46c0.19,0.17,0.35,0.37,0.46,0.59c0.11,0.19,0.2,0.38,0.26,0.58
		c0.06,0.2,0.09,0.41,0.07,0.63c0,0.19,0,0.37-0.01,0.54c-0.01,0.17-0.06,0.33-0.15,0.49c-0.28,0.58-0.76,1.01-1.45,1.28
		c-0.63,0.27-1.3,0.42-1.99,0.44c-0.7,0.02-1.38,0-2.05-0.05c-0.19,0.72-0.38,1.43-0.59,2.14c-0.2,0.71-0.44,1.42-0.7,2.14
		c-0.28,0.77-0.59,1.54-0.92,2.3c-0.33,0.76-0.72,1.5-1.14,2.22c-0.15,0.27-0.31,0.54-0.47,0.79c-0.17,0.26-0.35,0.5-0.56,0.74
		c-0.07,0.09-0.19,0.14-0.33,0.15c-0.15,0.02-0.27,0.03-0.36,0.03c-0.39,0-0.73-0.08-1.03-0.23c-0.13-0.05-0.26-0.12-0.38-0.19
		c-0.12-0.08-0.23-0.17-0.32-0.27c-0.11-0.19-0.1-0.35,0.03-0.49l0.25-0.31c0.09-0.14,0.17-0.26,0.24-0.37
		c0.07-0.11,0.14-0.24,0.24-0.37c0.41-0.68,0.78-1.39,1.1-2.1c0.33-0.72,0.63-1.44,0.91-2.18c0.48-1.28,0.89-2.58,1.23-3.89
		c0.33-1.31,0.62-2.63,0.86-3.96c0.02-0.09,0.09-0.15,0.21-0.19c0.12-0.04,0.23-0.07,0.32-0.09c0.15-0.03,0.31-0.04,0.47-0.01
		c0.17,0.03,0.33,0.06,0.47,0.09c0.11,0.03,0.23,0.08,0.36,0.13c0.13,0.05,0.26,0.12,0.38,0.19c0.12,0.08,0.22,0.17,0.29,0.28
		c0.07,0.11,0.1,0.23,0.08,0.35c-0.06,0.29-0.11,0.59-0.17,0.9c-0.06,0.31-0.12,0.62-0.19,0.92c0.07,0,0.13-0.01,0.17-0.03h0.22
		c0.15-0.02,0.29-0.03,0.42-0.04c0.13-0.01,0.26-0.03,0.39-0.06c0.22-0.07,0.46-0.16,0.72-0.28c0.22-0.14,0.43-0.32,0.61-0.54
		c0.09-0.14,0.15-0.28,0.18-0.44c0.03-0.15,0.05-0.31,0.07-0.46c0-0.29-0.06-0.56-0.17-0.82c-0.07-0.14-0.14-0.23-0.2-0.28
		l-0.08-0.08l-0.08-0.08c-0.02,0-0.05-0.02-0.08-0.05h-0.03l-0.11-0.05l-0.03-0.03c-0.06-0.02-0.11-0.03-0.15-0.04
		c-0.05-0.01-0.1-0.02-0.15-0.04c-0.04,0-0.07,0-0.11-0.01c-0.04-0.01-0.07-0.01-0.11-0.01l-0.42-0.08h-0.11h-0.25
		c-0.09-0.02-0.18-0.03-0.25-0.03h-0.25H34.3c-0.07,0-0.14,0.01-0.21,0.03h-0.06c-0.13,0-0.22,0.01-0.28,0.03
		c-0.32,0.03-0.64,0-0.98-0.09c-0.33-0.09-0.62-0.24-0.86-0.45c-0.07-0.05-0.14-0.12-0.21-0.22c-0.07-0.09-0.08-0.18-0.04-0.27
		c0.04-0.1,0.11-0.18,0.22-0.22c0.11-0.04,0.21-0.07,0.31-0.09c0.15-0.02,0.29-0.03,0.42-0.04C32.74,183,32.87,183,33,183
		c0.8-0.03,1.55,0,2.26,0.1c0.52,0.05,0.99,0.15,1.42,0.31c0.28,0.09,0.55,0.18,0.82,0.29C37.78,183.81,38.03,183.95,38.27,184.1
		 M36.21,184.51l-0.06-0.03L36.21,184.51z"/>
	<path d="M49.2,192.49c0.2,0.12,0.32,0.26,0.33,0.41c0.04,0.09,0.03,0.16-0.03,0.23c-0.06,0.07-0.13,0.12-0.22,0.15
		c-0.26,0.09-0.55,0.1-0.86,0.05c-0.17-0.03-0.34-0.08-0.52-0.13c-0.18-0.05-0.34-0.12-0.49-0.21c-0.19-0.14-0.36-0.28-0.52-0.44
		c-0.16-0.15-0.29-0.33-0.4-0.54c-0.19-0.34-0.33-0.72-0.45-1.13c0-0.03,0-0.06-0.01-0.08c-0.01-0.02-0.01-0.04-0.01-0.08
		l-0.17,0.08c-0.28,0.09-0.57,0.16-0.86,0.23c-0.3,0.07-0.6,0.09-0.89,0.05c-0.41-0.03-0.81-0.11-1.2-0.23
		c-0.39-0.12-0.74-0.31-1.06-0.56c-0.33-0.27-0.56-0.61-0.67-1c-0.11-0.31-0.17-0.63-0.17-0.96c0-0.33,0.02-0.66,0.06-0.99
		c0.06-0.48,0.14-0.93,0.25-1.36c0.04-0.14,0.09-0.26,0.17-0.38c0.07-0.12,0.15-0.24,0.22-0.36c0.15-0.24,0.33-0.48,0.53-0.72
		c0.2-0.24,0.44-0.44,0.7-0.62c0.24-0.15,0.49-0.29,0.74-0.4c0.25-0.11,0.52-0.18,0.79-0.22c0.26-0.05,0.53-0.07,0.81-0.06
		c0.28,0.01,0.55,0.03,0.81,0.06c0.72,0.1,1.38,0.33,1.98,0.67c0.09,0.05,0.19,0.12,0.28,0.2c0.09,0.09,0.16,0.19,0.2,0.31
		c0.06,0.19-0.04,0.32-0.28,0.38c0,0.02-0.02,0.03-0.06,0.03c0.04,0.02,0.08,0.05,0.14,0.1c0.19,0.15,0.27,0.33,0.25,0.51
		c0,0.09-0.01,0.16-0.01,0.23c-0.01,0.07-0.02,0.15-0.04,0.23c-0.04,0.34-0.07,0.68-0.08,1.03c-0.02,0.34-0.04,0.68-0.06,1.03
		c0,0.36,0,0.72,0.01,1.09c0.01,0.37,0.03,0.73,0.07,1.09c0.04,0.31,0.08,0.62,0.14,0.95c0.06,0.32,0.16,0.63,0.31,0.92
		c0.06,0.12,0.13,0.23,0.22,0.33c0.04,0.03,0.07,0.06,0.11,0.09C49.29,192.52,49.28,192.52,49.2,192.49 M46,184.79
		c0-0.07,0.05-0.13,0.14-0.18c-0.07,0-0.13,0.01-0.17,0.03c-0.17,0.05-0.34,0.12-0.53,0.2c-0.41,0.27-0.77,0.62-1.09,1.05
		c-0.04,0.05-0.07,0.1-0.1,0.15c-0.03,0.05-0.06,0.1-0.1,0.15c-0.04,0.07-0.07,0.13-0.11,0.19c-0.04,0.06-0.06,0.13-0.08,0.22
		c-0.02,0-0.03,0.02-0.03,0.05c-0.02,0.09-0.04,0.16-0.06,0.22c-0.02,0.06-0.04,0.13-0.06,0.22c-0.13,0.53-0.2,1.03-0.22,1.51
		c0,0.17,0.01,0.34,0.03,0.51c0.02,0.17,0.06,0.33,0.11,0.49h0.06c0.17-0.14,0.32-0.29,0.47-0.46s0.29-0.35,0.42-0.54
		c0.35-0.5,0.63-1.03,0.82-1.59c0.2-0.56,0.34-1.14,0.43-1.74c0.02-0.09,0.03-0.17,0.03-0.24C45.97,184.96,45.98,184.88,46,184.79"
		/>
	<path d="M56.9,189.02c0.3,0.12,0.53,0.27,0.7,0.46c0.04,0.07,0.07,0.15,0.1,0.26c0.03,0.1-0.01,0.18-0.1,0.23
		c-0.43,0.24-0.85,0.47-1.27,0.69c-0.42,0.22-0.86,0.41-1.32,0.56c-0.2,0.07-0.41,0.13-0.63,0.18c-0.21,0.05-0.42,0.09-0.63,0.1
		c-0.19,0.02-0.35,0.03-0.5,0.03s-0.32-0.02-0.5-0.05c-0.17-0.02-0.33-0.05-0.5-0.09c-0.17-0.04-0.33-0.1-0.47-0.17
		c-0.35-0.14-0.66-0.33-0.92-0.58c-0.26-0.25-0.43-0.54-0.5-0.88c-0.06-0.26-0.07-0.51-0.06-0.77c0.02-0.26,0.06-0.51,0.11-0.77
		c0.07-0.43,0.2-0.88,0.39-1.36l0.33-0.85c0.07-0.14,0.14-0.26,0.21-0.38c0.06-0.12,0.14-0.25,0.24-0.38
		c0.15-0.24,0.32-0.48,0.52-0.72c0.19-0.24,0.42-0.44,0.68-0.62c0.24-0.14,0.5-0.25,0.77-0.33c0.27-0.08,0.56-0.11,0.88-0.08
		c0.37,0.03,0.73,0.1,1.07,0.19c0.34,0.09,0.67,0.24,0.99,0.42c0.2,0.14,0.4,0.29,0.6,0.46c0.2,0.17,0.37,0.36,0.52,0.56
		c0.13,0.19,0.13,0.35,0,0.49c-0.09,0.09-0.21,0.14-0.35,0.15c-0.14,0.02-0.26,0.02-0.38,0c-0.34,0-0.67-0.07-1-0.2
		c-0.13-0.05-0.26-0.12-0.39-0.19c-0.13-0.08-0.23-0.18-0.31-0.29c-0.02-0.03-0.05-0.07-0.08-0.1c-0.17,0.12-0.32,0.25-0.45,0.38
		c-0.13,0.14-0.26,0.29-0.39,0.46c-0.13,0.19-0.25,0.39-0.36,0.6c-0.11,0.21-0.21,0.44-0.31,0.68c-0.17,0.39-0.32,0.8-0.45,1.23
		c-0.13,0.43-0.2,0.86-0.22,1.31v0.38c0.37-0.12,0.72-0.26,1.05-0.42c0.33-0.16,0.65-0.33,0.96-0.5l0.25-0.15
		c0.13-0.08,0.25-0.14,0.35-0.15c0.1-0.02,0.23-0.03,0.38-0.03C56.25,188.79,56.58,188.87,56.9,189.02"/>
	<path d="M61.86,184.41c0.32,0.09,0.6,0.23,0.86,0.44c0.07,0.05,0.14,0.12,0.21,0.22c0.06,0.09,0.08,0.19,0.04,0.29
		c-0.04,0.07-0.06,0.14-0.07,0.2c-0.01,0.07-0.03,0.15-0.07,0.23c-0.32,1.13-0.57,2.26-0.77,3.4c-0.19,1.14-0.37,2.29-0.52,3.45
		c-0.02,0.1-0.09,0.18-0.21,0.22c-0.12,0.04-0.22,0.07-0.29,0.09c-0.3,0.05-0.62,0.02-0.98-0.1c-0.11-0.02-0.24-0.05-0.38-0.1
		c-0.14-0.05-0.26-0.12-0.38-0.19c-0.11-0.08-0.2-0.17-0.28-0.27c-0.07-0.1-0.1-0.22-0.08-0.36c0.06-0.46,0.12-0.92,0.18-1.37
		c0.06-0.45,0.13-0.91,0.21-1.37c0.13-0.77,0.27-1.53,0.43-2.3s0.36-1.52,0.6-2.27c0.04-0.1,0.11-0.17,0.21-0.2
		c0.1-0.03,0.2-0.06,0.29-0.08c0.17-0.03,0.33-0.04,0.5-0.01S61.71,184.37,61.86,184.41 M63.36,182.59
		c-0.17,0.03-0.33,0.04-0.5,0.01c-0.17-0.03-0.33-0.06-0.47-0.09c-0.15-0.05-0.3-0.11-0.46-0.18c-0.16-0.07-0.29-0.15-0.4-0.26
		c-0.07-0.07-0.14-0.14-0.21-0.23c-0.07-0.09-0.08-0.18-0.04-0.28c0.15-0.48,0.3-0.95,0.45-1.42c0.15-0.47,0.3-0.95,0.45-1.45
		c0.04-0.08,0.11-0.15,0.22-0.19c0.11-0.04,0.21-0.07,0.31-0.09c0.15-0.03,0.31-0.04,0.49-0.01c0.18,0.03,0.34,0.06,0.49,0.09
		c0.15,0.05,0.3,0.11,0.45,0.18c0.15,0.07,0.29,0.15,0.42,0.26c0.07,0.07,0.14,0.15,0.2,0.23c0.06,0.09,0.06,0.18,0.03,0.28
		c-0.15,0.48-0.3,0.95-0.45,1.42c-0.15,0.47-0.3,0.95-0.45,1.45c-0.04,0.09-0.11,0.15-0.21,0.19
		C63.55,182.54,63.46,182.57,63.36,182.59"/>
	<path d="M70.42,183.56c0.2,0.14,0.4,0.28,0.59,0.44c0.19,0.15,0.35,0.33,0.5,0.51c0.37,0.55,0.57,1.15,0.6,1.81
		c0.03,0.66-0.01,1.29-0.1,1.89c-0.09,0.5-0.21,0.99-0.36,1.47c-0.15,0.49-0.36,0.95-0.64,1.4c-0.15,0.22-0.3,0.44-0.46,0.64
		c-0.16,0.21-0.36,0.38-0.6,0.54c-0.32,0.19-0.62,0.32-0.92,0.38c-0.46,0.07-0.96,0.03-1.48-0.1c-0.39-0.09-0.75-0.23-1.09-0.42
		c-0.33-0.2-0.63-0.44-0.89-0.73c-0.17-0.19-0.3-0.38-0.4-0.59c-0.1-0.2-0.18-0.43-0.24-0.67c-0.13-0.48-0.18-0.97-0.15-1.48
		c0.03-0.5,0.1-1,0.21-1.5c0.09-0.43,0.21-0.85,0.35-1.26c0.14-0.41,0.32-0.8,0.54-1.18v-0.05l0.03-0.03
		c-0.07-0.08-0.12-0.17-0.14-0.27c-0.02-0.09,0.02-0.18,0.11-0.27c0.35-0.31,0.72-0.56,1.09-0.74c0.41-0.22,0.87-0.33,1.39-0.33
		c0.37-0.02,0.73,0.03,1.09,0.13C69.79,183.25,70.12,183.39,70.42,183.56 M69.72,186.48c0.02-0.29,0-0.59-0.04-0.88
		c-0.05-0.3-0.14-0.59-0.26-0.86c-0.04-0.08-0.08-0.16-0.13-0.22c-0.05-0.06-0.09-0.12-0.13-0.19c-0.06,0.03-0.11,0.06-0.15,0.06
		c-0.05,0.01-0.1,0.03-0.15,0.06c-0.13,0.09-0.26,0.18-0.38,0.27c-0.12,0.09-0.24,0.18-0.35,0.27c0.04,0.05,0.07,0.11,0.11,0.18
		c0.04,0.07,0.04,0.14,0,0.2c-0.15,0.27-0.28,0.56-0.39,0.86c-0.11,0.3-0.21,0.59-0.31,0.89c-0.2,0.67-0.33,1.38-0.36,2.13
		c-0.04,0.63,0.06,1.21,0.28,1.72c0.04,0.07,0.08,0.13,0.13,0.19c0.05,0.06,0.09,0.12,0.13,0.17c0.17-0.1,0.32-0.22,0.45-0.36
		c0.13-0.14,0.25-0.28,0.36-0.44c0.41-0.6,0.7-1.24,0.88-1.94C69.58,187.91,69.68,187.2,69.72,186.48"/>
	<path d="M84.36,185.05c-0.26,0.92-0.4,1.85-0.42,2.79c-0.02,0.39,0,0.79,0.04,1.19c0.05,0.4,0.15,0.78,0.32,1.14
		c0.07,0.15,0.19,0.32,0.33,0.49c0.11,0.1,0.2,0.18,0.28,0.23c0,0.02,0.01,0.03,0.03,0.03c0.04,0.02,0.06,0.03,0.08,0.05
		c0.02,0.02,0.05,0.03,0.08,0.05h0.03c0.04,0.02,0.06,0.03,0.07,0.04c0.01,0.01,0.03,0.02,0.07,0.04h0.06l0.11,0.05h0.11
		c0.04,0.02,0.09,0.03,0.17,0.03h0.11h0.25h0.06c0.11,0,0.19-0.01,0.25-0.03c0.09,0,0.23-0.02,0.42-0.05c0.39-0.1,0.72-0.24,1-0.41
		c0.48-0.31,0.86-0.65,1.14-1.03c0.22-0.34,0.39-0.7,0.49-1.08c0.1-0.38,0.17-0.76,0.21-1.15c0-0.1,0.06-0.18,0.2-0.22
		c0.13-0.04,0.23-0.07,0.31-0.09c0.3-0.05,0.62-0.02,0.98,0.1c0.35,0.09,0.64,0.22,0.86,0.41c0.11,0.1,0.2,0.22,0.25,0.36v0.15
		c-0.02,0.2-0.04,0.41-0.07,0.62c-0.03,0.2-0.07,0.4-0.13,0.59c-0.15,0.43-0.36,0.83-0.63,1.22c-0.27,0.38-0.6,0.71-0.99,0.99
		c-0.78,0.55-1.67,0.86-2.68,0.95c-1.25,0.1-2.44-0.07-3.57-0.51c-0.47-0.19-0.91-0.44-1.32-0.74c-0.42-0.31-0.74-0.67-0.96-1.08
		c-0.2-0.36-0.35-0.74-0.43-1.13c-0.08-0.39-0.14-0.79-0.15-1.18c-0.02-0.5,0-0.99,0.06-1.47c0.06-0.49,0.13-0.98,0.22-1.47
		c0.11-0.5,0.24-0.98,0.39-1.45c0.15-0.47,0.32-0.94,0.53-1.4c0.2-0.43,0.43-0.85,0.67-1.26c0.24-0.41,0.52-0.79,0.84-1.13
		c0.28-0.31,0.6-0.57,0.98-0.8c0.37-0.22,0.77-0.37,1.2-0.44c0.74-0.12,1.5-0.08,2.26,0.12c0.76,0.2,1.41,0.53,1.95,1.01
		c0.35,0.29,0.65,0.62,0.88,1c0.23,0.38,0.42,0.76,0.57,1.15c0.06,0.19,0.11,0.37,0.15,0.54c0.05,0.17,0.09,0.35,0.13,0.54
		c0.02,0.14-0.01,0.24-0.1,0.31c-0.08,0.07-0.19,0.12-0.31,0.14c-0.12,0.03-0.25,0.04-0.39,0.04c-0.14,0-0.26-0.01-0.35-0.03
		c-0.33-0.05-0.66-0.17-0.98-0.36c-0.09-0.05-0.19-0.12-0.29-0.21c-0.1-0.09-0.16-0.19-0.18-0.31c-0.09-0.5-0.25-0.98-0.47-1.46
		c-0.19-0.36-0.39-0.67-0.61-0.92c-0.04-0.03-0.06-0.06-0.07-0.08c-0.01-0.02-0.03-0.03-0.07-0.05l-0.11-0.1
		c-0.02,0-0.05-0.02-0.08-0.05h-0.06h-0.08c-0.02,0-0.03,0-0.04,0.01c-0.01,0.01-0.03,0.01-0.07,0.01c-0.06,0-0.1,0.01-0.14,0.03
		c-0.13,0.02-0.28,0.08-0.45,0.18c-0.26,0.17-0.5,0.37-0.73,0.59c-0.22,0.22-0.43,0.46-0.61,0.72c-0.22,0.34-0.41,0.67-0.56,0.97
		c-0.24,0.44-0.45,0.9-0.61,1.37C84.61,184.1,84.47,184.57,84.36,185.05 M85.03,191c0-0.02-0.01-0.03-0.03-0.03
		c-0.04-0.02-0.07-0.03-0.08-0.05C84.9,190.9,84.93,190.93,85.03,191 M87.93,179.74c-0.04,0-0.07,0-0.1,0.01
		c-0.03,0.01,0.01,0,0.13-0.01H87.93z M88.04,179.74h0.03c-0.11-0.02-0.15-0.02-0.13-0.01C87.97,179.74,88,179.74,88.04,179.74
		 M88.06,179.74h0.03H88.06z"/>
	<path d="M101.67,185.2c0.15,0.19,0.14,0.36-0.03,0.51c-0.09,0.09-0.21,0.14-0.35,0.17c-0.14,0.03-0.27,0.03-0.4,0.01h-0.31
		c-0.07,0-0.14,0-0.19,0.01c-0.06,0.01-0.12,0.02-0.2,0.04c-0.13,0.03-0.25,0.08-0.36,0.13c-0.11,0.05-0.22,0.1-0.33,0.15
		c-0.32,0.19-0.59,0.4-0.82,0.64c-0.23,0.24-0.45,0.5-0.66,0.77c-0.26,0.39-0.49,0.81-0.7,1.26c-0.13,0.29-0.25,0.59-0.36,0.88
		c-0.11,0.3-0.21,0.59-0.31,0.88c-0.04,0.17-0.07,0.34-0.11,0.5c-0.04,0.16-0.07,0.33-0.11,0.5c-0.04,0.1-0.12,0.18-0.24,0.22
		c-0.12,0.04-0.23,0.08-0.32,0.12c-0.17,0.02-0.34,0.01-0.52-0.01c-0.18-0.03-0.35-0.06-0.52-0.09c-0.37-0.12-0.69-0.27-0.95-0.46
		c-0.09-0.09-0.17-0.17-0.22-0.26s-0.06-0.19-0.03-0.31c0-0.03,0-0.06,0.01-0.08c0.01-0.02,0.01-0.04,0.01-0.08
		c0.04-0.12,0.06-0.24,0.08-0.35c0.02-0.11,0.05-0.23,0.08-0.37c0.11-0.44,0.22-0.9,0.32-1.36c0.1-0.46,0.21-0.91,0.32-1.36
		l0.75-3.31c0.04-0.1,0.12-0.17,0.24-0.22c0.12-0.04,0.23-0.07,0.32-0.09c0.32-0.05,0.66-0.02,1.03,0.1
		c0.35,0.09,0.67,0.24,0.95,0.46c0.17,0.12,0.25,0.26,0.25,0.41c0.61-0.15,1.22-0.22,1.81-0.21c0.41,0.03,0.77,0.12,1.09,0.26
		c0.15,0.05,0.29,0.12,0.42,0.2C101.46,184.98,101.58,185.08,101.67,185.2"/>
	<path d="M107.33,188.82c-0.8,0.05-1.6,0.05-2.4,0c-0.11,0.41-0.17,0.83-0.17,1.26c-0.04,0.27-0.01,0.54,0.08,0.79
		c0.37-0.1,0.73-0.24,1.09-0.41c0.35-0.17,0.69-0.35,1-0.54c0.07-0.02,0.15-0.06,0.22-0.13c0.22-0.12,0.46-0.17,0.73-0.15
		c0.33,0,0.67,0.07,1,0.21c0.13,0.05,0.26,0.12,0.38,0.19c0.12,0.08,0.23,0.18,0.32,0.29c0.04,0.07,0.06,0.15,0.08,0.26
		c0.02,0.1-0.02,0.18-0.11,0.23c-0.09,0.03-0.17,0.08-0.24,0.13c-0.07,0.05-0.14,0.1-0.24,0.15c-0.47,0.26-0.94,0.49-1.42,0.71
		c-0.48,0.21-0.99,0.36-1.51,0.45c-0.56,0.08-1.12,0.07-1.7-0.05c-0.58-0.12-1.08-0.35-1.51-0.69c-0.24-0.17-0.42-0.38-0.54-0.63
		c-0.12-0.25-0.2-0.51-0.24-0.78c-0.04-0.27-0.05-0.55-0.03-0.82c0.02-0.27,0.06-0.54,0.11-0.79c0-0.05,0.01-0.09,0.03-0.1
		c-0.06-0.02-0.14-0.06-0.25-0.13c-0.09-0.05-0.19-0.12-0.29-0.2c-0.1-0.09-0.17-0.19-0.21-0.31c-0.04-0.12-0.02-0.21,0.04-0.27
		c0.06-0.06,0.15-0.11,0.26-0.14c0.11-0.03,0.23-0.05,0.36-0.05h0.33c0.11-0.36,0.23-0.68,0.36-0.97c0.07-0.19,0.17-0.37,0.28-0.55
		c0.11-0.18,0.23-0.35,0.36-0.53c0.17-0.24,0.35-0.46,0.56-0.65c0.2-0.2,0.44-0.36,0.7-0.5c0.26-0.14,0.55-0.22,0.86-0.24
		c0.32-0.03,0.62-0.01,0.92,0.04c0.32,0.03,0.62,0.1,0.91,0.2c0.29,0.1,0.56,0.25,0.82,0.44c0.26,0.19,0.51,0.39,0.74,0.62
		c0.23,0.22,0.42,0.47,0.57,0.74c0.09,0.17,0.17,0.34,0.24,0.51c0.06,0.17,0.11,0.35,0.13,0.54c0.04,0.5-0.13,0.89-0.5,1.18
		c-0.3,0.24-0.64,0.41-1.02,0.51S107.7,188.78,107.33,188.82 M105.35,187.41c-0.02,0.02-0.03,0.05-0.03,0.1
		c0.13,0,0.22-0.01,0.28-0.03h0.03h0.22c0.09-0.02,0.19-0.03,0.29-0.04c0.1-0.01,0.2-0.03,0.29-0.06c0.17-0.05,0.33-0.11,0.5-0.18
		c0.06-0.03,0.11-0.07,0.17-0.12c0.06-0.04,0.1-0.1,0.14-0.17c0.04-0.05,0.06-0.11,0.08-0.18c0.02-0.07,0.04-0.15,0.06-0.23
		c-0.04-0.22-0.09-0.44-0.17-0.64c-0.06-0.1-0.12-0.2-0.18-0.29c-0.07-0.09-0.14-0.18-0.21-0.27c-0.33,0.24-0.61,0.52-0.84,0.85
		C105.71,186.54,105.5,186.96,105.35,187.41"/>
	<path d="M119.09,192.49c0.2,0.12,0.32,0.26,0.33,0.41c0.04,0.09,0.03,0.16-0.03,0.23c-0.06,0.07-0.13,0.12-0.22,0.15
		c-0.26,0.09-0.55,0.1-0.86,0.05c-0.17-0.03-0.34-0.08-0.52-0.13c-0.18-0.05-0.34-0.12-0.49-0.21c-0.19-0.14-0.36-0.28-0.52-0.44
		c-0.16-0.15-0.29-0.33-0.4-0.54c-0.19-0.34-0.33-0.72-0.45-1.13c0-0.03,0-0.06-0.01-0.08c-0.01-0.02-0.01-0.04-0.01-0.08
		l-0.17,0.08c-0.28,0.09-0.57,0.16-0.86,0.23c-0.3,0.07-0.6,0.09-0.89,0.05c-0.41-0.03-0.81-0.11-1.2-0.23
		c-0.39-0.12-0.74-0.31-1.06-0.56c-0.33-0.27-0.56-0.61-0.67-1c-0.11-0.31-0.17-0.63-0.17-0.96c0-0.33,0.02-0.66,0.06-0.99
		c0.06-0.48,0.14-0.93,0.25-1.36c0.04-0.14,0.09-0.26,0.17-0.38c0.07-0.12,0.15-0.24,0.22-0.36c0.15-0.24,0.33-0.48,0.53-0.72
		c0.2-0.24,0.44-0.44,0.7-0.62c0.24-0.15,0.49-0.29,0.74-0.4c0.25-0.11,0.52-0.18,0.79-0.22c0.26-0.05,0.53-0.07,0.81-0.06
		c0.28,0.01,0.55,0.03,0.81,0.06c0.72,0.1,1.38,0.33,1.98,0.67c0.09,0.05,0.19,0.12,0.28,0.2s0.16,0.19,0.2,0.31
		c0.06,0.19-0.04,0.32-0.28,0.38c0,0.02-0.02,0.03-0.06,0.03c0.04,0.02,0.08,0.05,0.14,0.1c0.19,0.15,0.27,0.33,0.25,0.51
		c0,0.09-0.01,0.16-0.01,0.23c-0.01,0.07-0.02,0.15-0.04,0.23c-0.04,0.34-0.07,0.68-0.08,1.03c-0.02,0.34-0.04,0.68-0.06,1.03
		c0,0.36,0,0.72,0.01,1.09c0.01,0.37,0.03,0.73,0.07,1.09c0.04,0.31,0.08,0.62,0.14,0.95c0.06,0.32,0.16,0.63,0.31,0.92
		c0.06,0.12,0.13,0.23,0.22,0.33c0.04,0.03,0.07,0.06,0.11,0.09C119.19,192.52,119.17,192.52,119.09,192.49 M115.89,184.79
		c0-0.07,0.05-0.13,0.14-0.18c-0.07,0-0.13,0.01-0.17,0.03c-0.17,0.05-0.34,0.12-0.53,0.2c-0.41,0.27-0.77,0.62-1.09,1.05
		c-0.04,0.05-0.07,0.1-0.1,0.15c-0.03,0.05-0.06,0.1-0.1,0.15c-0.04,0.07-0.07,0.13-0.11,0.19c-0.04,0.06-0.06,0.13-0.08,0.22
		c-0.02,0-0.03,0.02-0.03,0.05c-0.02,0.09-0.04,0.16-0.06,0.22c-0.02,0.06-0.04,0.13-0.06,0.22c-0.13,0.53-0.2,1.03-0.22,1.51
		c0,0.17,0.01,0.34,0.03,0.51c0.02,0.17,0.06,0.33,0.11,0.49h0.06c0.17-0.14,0.32-0.29,0.47-0.46s0.29-0.35,0.42-0.54
		c0.35-0.5,0.63-1.03,0.82-1.59c0.2-0.56,0.34-1.14,0.43-1.74c0.02-0.09,0.03-0.17,0.03-0.24
		C115.86,184.96,115.87,184.88,115.89,184.79"/>
	<path d="M129.41,179.1c0.32,0.02,0.64,0.08,0.96,0.19c0.32,0.11,0.58,0.29,0.77,0.53c0.13,0.19,0.12,0.34-0.03,0.46
		c-0.09,0.09-0.2,0.14-0.33,0.17c-0.13,0.03-0.25,0.03-0.36,0.01h-1.2c-0.07,0.02-0.2,0.03-0.36,0.03h-0.08
		c-0.13,0.02-0.25,0.03-0.36,0.03c-0.11,0-0.23,0.01-0.36,0.03c-0.74,0.05-1.48,0.12-2.2,0.19c-0.73,0.08-1.46,0.16-2.2,0.24
		c-0.07,0.51-0.14,1.02-0.19,1.53c-0.06,0.5-0.11,1-0.17,1.5c-0.07,0.65-0.13,1.3-0.18,1.94c-0.05,0.64-0.08,1.29-0.1,1.94
		c-0.02,0.38-0.02,0.75,0,1.13c0,0.41,0.03,0.82,0.08,1.23c0.09-0.14,0.19-0.26,0.28-0.37c0.09-0.11,0.19-0.24,0.28-0.37
		c0.06-0.08,0.12-0.17,0.18-0.27c0.06-0.09,0.13-0.18,0.18-0.27c0.06-0.14,0.15-0.21,0.28-0.23c0.04-0.02,0.11-0.04,0.22-0.08
		c0.3-0.05,0.62-0.02,0.98,0.1c0.35,0.09,0.64,0.22,0.86,0.41c0.06,0.05,0.13,0.13,0.21,0.23c0.08,0.1,0.1,0.2,0.04,0.28
		c-0.2,0.33-0.41,0.64-0.63,0.94c-0.21,0.3-0.45,0.59-0.71,0.89c-0.15,0.17-0.32,0.33-0.5,0.49c-0.19,0.15-0.39,0.28-0.61,0.38
		c-0.39,0.19-0.81,0.24-1.25,0.14c-0.45-0.09-0.86-0.24-1.23-0.42c-0.22-0.12-0.41-0.27-0.56-0.46c-0.15-0.19-0.27-0.39-0.36-0.62
		c-0.07-0.19-0.13-0.38-0.17-0.56c-0.04-0.19-0.07-0.38-0.11-0.56c-0.06-0.51-0.08-1.03-0.08-1.54c0-0.67,0.02-1.33,0.06-2
		c0.04-0.67,0.08-1.32,0.14-1.98c0.07-0.97,0.19-1.98,0.33-3.03c-0.47,0.07-0.92,0.14-1.38,0.21c-0.46,0.07-0.92,0.14-1.38,0.2
		c-0.17,0.03-0.34,0.04-0.5,0.01c-0.17-0.03-0.32-0.06-0.47-0.09c-0.15-0.05-0.3-0.11-0.46-0.18c-0.16-0.07-0.29-0.15-0.4-0.26
		c-0.07-0.07-0.14-0.14-0.21-0.23c-0.06-0.09-0.08-0.18-0.04-0.28c0.04-0.1,0.11-0.17,0.21-0.2c0.1-0.03,0.2-0.07,0.29-0.1
		c0.19-0.03,0.36-0.06,0.53-0.08c0.17-0.02,0.33-0.04,0.5-0.08c0.6-0.08,1.19-0.17,1.77-0.24c0.58-0.08,1.18-0.16,1.77-0.24
		c0.06-0.41,0.12-0.82,0.18-1.24c0.06-0.42,0.13-0.83,0.21-1.24c0.04-0.22,0.07-0.44,0.11-0.64c0.04-0.2,0.07-0.42,0.11-0.64
		c0.02-0.09,0.08-0.15,0.19-0.19c0.11-0.04,0.21-0.07,0.31-0.09c0.17-0.03,0.33-0.04,0.5-0.01s0.32,0.06,0.47,0.09
		c0.11,0.03,0.23,0.08,0.36,0.13c0.13,0.05,0.26,0.12,0.38,0.19c0.12,0.08,0.22,0.17,0.29,0.28c0.07,0.11,0.1,0.23,0.08,0.35
		c-0.04,0.12-0.06,0.24-0.07,0.35c-0.01,0.11-0.03,0.23-0.07,0.35c-0.06,0.34-0.11,0.68-0.17,1.01c-0.06,0.33-0.1,0.67-0.14,1.01
		c0.45-0.05,0.89-0.1,1.34-0.14c0.45-0.04,0.89-0.08,1.34-0.12c0.48-0.03,0.96-0.06,1.42-0.09
		C128.45,179.09,128.92,179.08,129.41,179.1"/>
	<path d="M129.97,184.41c0.32,0.09,0.6,0.23,0.86,0.44c0.07,0.05,0.14,0.12,0.21,0.22c0.06,0.09,0.08,0.19,0.04,0.29
		c-0.04,0.07-0.06,0.14-0.07,0.2c-0.01,0.07-0.03,0.15-0.07,0.23c-0.32,1.13-0.57,2.26-0.77,3.4c-0.2,1.14-0.37,2.29-0.52,3.45
		c-0.02,0.1-0.09,0.17-0.21,0.22c-0.12,0.04-0.22,0.07-0.29,0.09c-0.3,0.05-0.62,0.02-0.98-0.1c-0.11-0.02-0.24-0.05-0.38-0.1
		c-0.14-0.05-0.26-0.12-0.38-0.19s-0.2-0.17-0.28-0.27c-0.07-0.1-0.1-0.22-0.08-0.36c0.06-0.46,0.12-0.92,0.18-1.37
		c0.06-0.45,0.14-0.91,0.21-1.37c0.13-0.77,0.27-1.53,0.43-2.3c0.16-0.76,0.36-1.52,0.6-2.27c0.04-0.1,0.11-0.17,0.21-0.2
		c0.1-0.03,0.2-0.06,0.29-0.08c0.17-0.03,0.34-0.04,0.5-0.01C129.66,184.34,129.82,184.37,129.97,184.41 M130.98,184.18
		c-0.16-0.03-0.31-0.08-0.45-0.14c-0.15-0.06-0.28-0.12-0.41-0.18c-0.13-0.07-0.25-0.14-0.38-0.22c-0.13-0.08-0.24-0.16-0.32-0.23
		c-0.06-0.05-0.11-0.11-0.15-0.17c-0.04-0.06-0.04-0.11,0.01-0.14c0.21-0.18,0.43-0.35,0.64-0.52c0.21-0.17,0.43-0.35,0.64-0.53
		c0.05-0.03,0.13-0.04,0.23-0.02c0.11,0.01,0.2,0.03,0.29,0.05c0.14,0.03,0.29,0.07,0.44,0.14c0.15,0.06,0.29,0.12,0.42,0.18
		c0.13,0.07,0.25,0.14,0.37,0.21c0.12,0.07,0.23,0.15,0.33,0.24c0.06,0.05,0.1,0.11,0.14,0.16c0.04,0.06,0.03,0.1-0.02,0.14
		c-0.21,0.18-0.43,0.35-0.64,0.52c-0.21,0.17-0.43,0.35-0.64,0.53c-0.05,0.03-0.12,0.04-0.22,0.03
		C131.16,184.21,131.07,184.2,130.98,184.18"/>
	<path d="M141.45,183.36c0.06,0.03,0.13,0.11,0.21,0.22c0.08,0.11,0.1,0.21,0.04,0.29c-0.22,0.32-0.44,0.65-0.66,0.96
		c-0.21,0.32-0.43,0.64-0.66,0.96c-0.48,0.7-0.95,1.39-1.41,2.08c-0.46,0.68-0.92,1.39-1.41,2.1c-0.26,0.39-0.52,0.78-0.78,1.15
		c-0.26,0.38-0.52,0.76-0.78,1.15c-0.06,0.1-0.15,0.18-0.28,0.23c-0.04,0.02-0.07,0.03-0.11,0.03s-0.07,0.01-0.11,0.03
		c-0.17,0.03-0.33,0.04-0.5,0.01c-0.17-0.03-0.33-0.06-0.47-0.09c-0.15-0.05-0.3-0.11-0.46-0.18c-0.16-0.07-0.29-0.15-0.4-0.26
		c-0.13-0.07-0.21-0.18-0.25-0.33v-0.77c0.02-0.77,0.03-1.53,0.04-2.3c0.01-0.76,0.02-1.53,0.04-2.3c0.02-0.5,0.03-1,0.04-1.51
		c0.01-0.51,0.01-1.02,0.01-1.51c-0.02-0.12,0.02-0.22,0.11-0.31c0.04-0.02,0.06-0.03,0.08-0.05c0.02-0.02,0.05-0.03,0.08-0.05
		c0.15-0.05,0.29-0.08,0.43-0.08c0.14,0,0.28,0.01,0.43,0.03c0.35,0.05,0.68,0.17,0.98,0.36c0.17,0.09,0.31,0.2,0.42,0.33l0.08,0.15
		c0,0.14,0,0.27-0.01,0.38c-0.01,0.12-0.01,0.25-0.01,0.38c0,0.51,0,1.03-0.01,1.54c-0.01,0.51-0.02,1.03-0.04,1.54
		c0.24-0.34,0.48-0.69,0.71-1.05c0.23-0.36,0.48-0.72,0.74-1.08c0.26-0.39,0.52-0.78,0.78-1.15c0.26-0.38,0.52-0.76,0.78-1.15
		c0.02-0.09,0.1-0.16,0.25-0.23c0.11-0.03,0.19-0.05,0.25-0.05c0.17-0.03,0.33-0.04,0.5-0.01c0.17,0.03,0.32,0.06,0.47,0.09
		C140.9,183.01,141.19,183.15,141.45,183.36"/>
	<path d="M147.56,183.56c0.2,0.14,0.4,0.28,0.59,0.44c0.19,0.15,0.35,0.33,0.5,0.51c0.37,0.55,0.57,1.15,0.6,1.81
		c0.03,0.66-0.01,1.29-0.1,1.89c-0.09,0.5-0.21,0.99-0.36,1.47s-0.36,0.95-0.64,1.4c-0.15,0.22-0.3,0.44-0.46,0.64
		c-0.16,0.21-0.36,0.38-0.6,0.54c-0.32,0.19-0.62,0.32-0.92,0.38c-0.46,0.07-0.96,0.03-1.48-0.1c-0.39-0.09-0.75-0.23-1.09-0.42
		c-0.33-0.2-0.63-0.44-0.89-0.73c-0.17-0.19-0.3-0.38-0.4-0.59c-0.1-0.2-0.18-0.43-0.24-0.67c-0.13-0.48-0.18-0.97-0.15-1.48
		c0.03-0.5,0.1-1,0.21-1.5c0.09-0.43,0.21-0.85,0.35-1.26c0.14-0.41,0.32-0.8,0.54-1.18v-0.05l0.03-0.03
		c-0.07-0.08-0.12-0.17-0.14-0.27c-0.02-0.09,0.02-0.18,0.11-0.27c0.35-0.31,0.72-0.56,1.09-0.74c0.41-0.22,0.87-0.33,1.39-0.33
		c0.37-0.02,0.73,0.03,1.09,0.13C146.93,183.25,147.26,183.39,147.56,183.56 M146.86,186.48c0.02-0.29,0-0.59-0.04-0.88
		c-0.05-0.3-0.14-0.59-0.26-0.86c-0.04-0.08-0.08-0.16-0.13-0.22s-0.09-0.12-0.13-0.19c-0.06,0.03-0.11,0.06-0.15,0.06
		c-0.05,0.01-0.1,0.03-0.15,0.06c-0.13,0.09-0.26,0.18-0.38,0.27c-0.12,0.09-0.24,0.18-0.35,0.27c0.04,0.05,0.07,0.11,0.11,0.18
		c0.04,0.07,0.04,0.14,0,0.2c-0.15,0.27-0.28,0.56-0.39,0.86c-0.11,0.3-0.21,0.59-0.31,0.89c-0.2,0.67-0.33,1.38-0.36,2.13
		c-0.04,0.63,0.06,1.21,0.28,1.72c0.04,0.07,0.08,0.13,0.13,0.19c0.05,0.06,0.09,0.12,0.13,0.17c0.17-0.1,0.32-0.22,0.45-0.36
		c0.13-0.14,0.25-0.28,0.36-0.44c0.41-0.6,0.7-1.24,0.88-1.94C146.72,187.91,146.82,187.2,146.86,186.48"/>
</g>
</svg>
