<svg id="Capa_1" data-name="Capa 1" xmlns="http://www.w3.org/2000/svg" viewBox="0 0 12.42 14.79"><defs><style>.cls-1{fill:#fff;}.cls-2{fill:#d0b3ad;}.cls-3{fill:#357181;}.cls-4{fill:#d8ab53;}.cls-5{fill:#d15137;}</style></defs><path class="cls-1" d="M12.13,1.89H10.8c-.09,0-.11,0-.08-.11a.41.41,0,0,1,.4-.28q.3,0,.6,0a.4.4,0,0,1,.41.36v0" transform="translate(-1.93 -1.32)"/><path d="M2.35,10.77l-.09,0a.4.4,0,0,1-.31-.3.6.6,0,0,1,0-.23c.1-.4.19-.79.28-1.19.06-.25.11-.5.17-.75A.41.41,0,0,1,2.6,8a.45.45,0,0,1,.19,0H4.85c.06,0,.06,0,.06-.06l-.06-1,0-.59a.28.28,0,0,0,0-.09l-.06,0a1.88,1.88,0,0,1-.88-.44,1.61,1.61,0,0,1-.32-.42.11.11,0,0,0-.09-.06A.64.64,0,0,1,3.11,5,.49.49,0,0,1,3,4.72a.64.64,0,0,1,0-.07H2.77c-.07,0-.11,0-.13-.08s-.06-.19-.08-.29a2.09,2.09,0,0,1,0-.93A2.21,2.21,0,0,1,3,2.45a2.27,2.27,0,0,1,.31-.31A1,1,0,0,1,4,1.93h6.53s0-.07,0-.1A.62.62,0,0,1,11,1.33h.67a.69.69,0,0,1,.58.31.46.46,0,0,1,.08.21c0,.07,0,.07.08.07h.42a.57.57,0,0,1,.29,0,.36.36,0,0,1,.23.31c0,.2,0,.39,0,.59l0,1.12c0,.24,0,.47,0,.71,0,0,0,.09,0,.14h.33a.57.57,0,0,1,.51.39.5.5,0,0,1,0,.12l0,1.5v.31a.55.55,0,0,1-.55.55h-.31V7.8l0,1.56c0,.22,0,.43,0,.65a1.93,1.93,0,0,1,0,.24.49.49,0,0,1-.17.34.76.76,0,0,1-.19.12.07.07,0,0,0-.05.08V11a.46.46,0,0,1-.48.42H2.86a.53.53,0,0,1-.25,0A.42.42,0,0,1,2.35,11v-.22m.21-2.18,0,0,.17.08A.81.81,0,0,1,3.05,9l.18.27a.58.58,0,0,0,.1.12c.08.07.14.07.21,0l.08-.08.29-.37a1,1,0,0,1,.66-.36,1,1,0,0,1,.87.31,2.54,2.54,0,0,1,.29.36l.13.15a.12.12,0,0,0,.19,0,.69.69,0,0,0,.11-.13L6.4,9a1,1,0,0,1,.41-.31A1,1,0,0,1,8,8.94c.08.09.15.19.23.29a.84.84,0,0,0,.15.18.11.11,0,0,0,.17,0l0,0c0-.06.09-.11.13-.16A3.5,3.5,0,0,1,9,8.91a1,1,0,0,1,.48-.31,1,1,0,0,1,1,.24,2.24,2.24,0,0,1,.31.38c0,.06.09.12.14.17a.13.13,0,0,0,.21,0l.08-.08.18-.24a1.06,1.06,0,0,1,.35-.35,1,1,0,0,1,1.09,0,1.45,1.45,0,0,1,.39.39l.08.1,0-.06c0-.42,0-.84,0-1.26s0-1,0-1.43l0-1.35,0-1.54c0-.34,0-.67,0-1a2.72,2.72,0,0,1,0-.28A.19.19,0,0,0,13,2.11H6.51c-.06,0-.07,0-.07.07a.31.31,0,0,0,0,.1V4.43H8.59a.43.43,0,0,1,.28.13.42.42,0,0,1,.1.28V7c0,.25,0,.49,0,.74a.39.39,0,0,1,0,.21.4.4,0,0,1-.39.25H2.8a.18.18,0,0,0-.17.11,1.08,1.08,0,0,0-.07.31M7.34,4.64a.24.24,0,0,0,0,.08.62.62,0,0,1-.43.48.32.32,0,0,0-.2.16v0a1.75,1.75,0,0,1-.46.48,1.91,1.91,0,0,1-.69.29c-.07,0-.08,0-.08.1l0,.34L5.33,7.86V8H8.52a.2.2,0,0,0,.22-.22V4.85a.2.2,0,0,0-.22-.22H7.34m5.9,5.7-.06,0a1,1,0,0,1-.33-.16,2.12,2.12,0,0,1-.33-.34l-.21-.28s-.06,0-.1,0L12,9.79a1.92,1.92,0,0,1-.34.36,1.12,1.12,0,0,1-.58.22,1.13,1.13,0,0,1-.94-.37c-.1-.11-.19-.23-.28-.35l-.1-.12s0,0-.08,0l-.07.09L9.36,10a1.15,1.15,0,0,1-1.51.22,1.24,1.24,0,0,1-.36-.36l-.21-.27-.06-.06a.39.39,0,0,0-.12.14,3.65,3.65,0,0,1-.35.43,1.15,1.15,0,0,1-1.12.26,1.12,1.12,0,0,1-.58-.39c-.1-.12-.19-.25-.28-.37L4.7,9.48l-.09.11-.3.38a1.1,1.1,0,0,1-.63.37,1.09,1.09,0,0,1-1-.29,2.08,2.08,0,0,1-.27-.32l0-.07,0,.06-.12.55c0,.17,0,.28.21.27H13a.35.35,0,0,0,.28-.2m0-.39a0,0,0,0,0,0,0V9.61a.09.09,0,0,0,0-.06L13,9.25c-.08-.09-.15-.18-.23-.26a.65.65,0,0,0-.49-.21.76.76,0,0,0-.58.21,2.17,2.17,0,0,0-.24.29,1.56,1.56,0,0,1-.23.28.36.36,0,0,1-.5,0,2.52,2.52,0,0,1-.21-.25A2.16,2.16,0,0,0,10.26,9,.79.79,0,0,0,9.2,9a2.1,2.1,0,0,0-.26.33,1.78,1.78,0,0,1-.22.26.38.38,0,0,1-.48,0,.57.57,0,0,1-.11-.11l-.21-.28a1,1,0,0,0-.31-.3A.78.78,0,0,0,6.7,9a2.88,2.88,0,0,0-.28.33,2,2,0,0,1-.22.27.37.37,0,0,1-.51,0,3.25,3.25,0,0,1-.23-.29A2.2,2.2,0,0,0,5.22,9a.76.76,0,0,0-1,0,1.53,1.53,0,0,0-.27.3,1.25,1.25,0,0,1-.26.3.32.32,0,0,1-.31.08.43.43,0,0,1-.24-.15,3.39,3.39,0,0,1-.27-.39.72.72,0,0,0-.19-.24.22.22,0,0,0-.12,0v0c0,.12,0,.23-.08.35s0,0,0,.06l.13.18c.09.11.17.22.26.32A.76.76,0,0,0,4,9.79a1.94,1.94,0,0,0,.23-.27,3.45,3.45,0,0,1,.23-.28.36.36,0,0,1,.54,0,.86.86,0,0,1,.13.14c.09.12.18.25.28.36a.77.77,0,0,0,.87.21.81.81,0,0,0,.35-.26L6.8,9.4A1.12,1.12,0,0,1,7,9.2a.38.38,0,0,1,.46,0,1,1,0,0,1,.21.25A2.49,2.49,0,0,0,8,9.8a.79.79,0,0,0,1.16-.13l.28-.36a.57.57,0,0,1,.16-.15.35.35,0,0,1,.45.07c.06.06.1.12.15.18a2.69,2.69,0,0,0,.3.37.79.79,0,0,0,1,.1,1.5,1.5,0,0,0,.34-.37A2.88,2.88,0,0,1,12,9.24a.37.37,0,0,1,.55,0,3.36,3.36,0,0,1,.24.29,1.3,1.3,0,0,0,.29.33.74.74,0,0,0,.22.1m-10.68.82a1.92,1.92,0,0,0,0,.24.23.23,0,0,0,.22.2h9.84a.2.2,0,0,0,.19-.13.65.65,0,0,0,0-.31ZM3.87,4.43s0-.08,0-.12c0-.27,0-.54,0-.81l0-1.07V2.18c0-.06,0-.06-.06-.06a.72.72,0,0,0-.4.17,2.09,2.09,0,0,0-.72,1.39,2,2,0,0,0,.08.69c0,.07,0,.07.09.07h1m.84,0a6.55,6.55,0,0,0,.89,0l0-2.24a6.61,6.61,0,0,0-.89,0c0,.06,0,2.17,0,2.25M13.49,7.5a2.26,2.26,0,0,0,.37,0,.33.33,0,0,0,.26-.29c0-.14,0-.28,0-.42,0-.34,0-.68,0-1,0-.14,0-.28,0-.42a.32.32,0,0,0-.27-.29h-.36c0,.81,0,1.62,0,2.45M3.21,4.65s0,0,0,.07A.44.44,0,0,0,3.59,5h3.1A.46.46,0,0,0,7,4.86a.32.32,0,0,0,.08-.21Zm.6.61v0l0,.09a1.56,1.56,0,0,0,.7.51,1.87,1.87,0,0,0,.62.1A1.82,1.82,0,0,0,5.9,5.8a1.56,1.56,0,0,0,.56-.49s0,0,0,0ZM5.86,2.13c0,.1,0,2.19,0,2.25h.33s0,0,0,0V4c0-.24,0-.48,0-.72s0-.48,0-.72V2.2c0-.07,0-.08-.07-.08H5.86m-1.71,0c0,.75,0,1.5,0,2.24a.91.91,0,0,0,.33,0c0-.08,0-2.19,0-2.24H4.15m8-.23v0a.41.41,0,0,0-.41-.37h-.6a.42.42,0,0,0-.4.29c0,.09,0,.11.08.11h1.33" transform="translate(-1.93 -1.32)"/><path class="cls-1" d="M2.56,8.59a1.08,1.08,0,0,1,.07-.31.17.17,0,0,1,.17-.11H8.55a.4.4,0,0,0,.39-.25.53.53,0,0,0,0-.22V5.8c0-.31,0-.63,0-1a.37.37,0,0,0-.1-.28.35.35,0,0,0-.27-.13H6.43V2.19c0-.07,0-.08.08-.08H13a.2.2,0,0,1,.21.19v.27c0,.34,0,.67,0,1l0,1.54c0,.45,0,.9,0,1.34l0,1.43c0,.42,0,.84,0,1.26a.25.25,0,0,1,0,.07.76.76,0,0,1-.08-.11,1.57,1.57,0,0,0-.39-.38,1,1,0,0,0-1.09,0,1.2,1.2,0,0,0-.36.35,2,2,0,0,1-.17.23.24.24,0,0,1-.08.09.13.13,0,0,1-.21,0,1.15,1.15,0,0,1-.14-.17,2.85,2.85,0,0,0-.31-.38,1,1,0,0,0-1-.24A1,1,0,0,0,9,8.9a3.65,3.65,0,0,0-.24.31s-.09.1-.13.16l0,0a.11.11,0,0,1-.17,0l-.16-.18A3.15,3.15,0,0,0,8,8.94a1,1,0,0,0-1.2-.29A1,1,0,0,0,6.4,9l-.24.31a.69.69,0,0,1-.11.13.12.12,0,0,1-.19,0l-.13-.15a3.37,3.37,0,0,0-.29-.37,1,1,0,0,0-.87-.3,1,1,0,0,0-.66.36l-.29.37-.08.08a.13.13,0,0,1-.21,0,.58.58,0,0,1-.1-.12L3.05,9a.81.81,0,0,0-.27-.31l-.17-.08,0,0M11.1,4.84h-.81a.73.73,0,0,0-.36.08.58.58,0,0,0-.33.53c0,.38,0,.76,0,1.14,0,.17,0,.33,0,.5a.59.59,0,0,0,.34.55.83.83,0,0,0,.38.07h1.73a.61.61,0,0,0,.59-.59V6.81c0-.3,0-.6,0-.9s0-.33,0-.49A.57.57,0,0,0,12.34,5a.69.69,0,0,0-.4-.11H11.1m-.87-2.18a.72.72,0,0,0-.56.25.63.63,0,0,0-.08.66.69.69,0,0,0,.32.31.71.71,0,0,0,1-.41.56.56,0,0,0-.12-.55.74.74,0,0,0-.58-.26m1.69,0a1,1,0,0,0-.2,0,.61.61,0,0,0-.35,1,.75.75,0,0,0,1.09.12A.6.6,0,0,0,12.59,3a.73.73,0,0,0-.67-.36m-3.4,0a.88.88,0,0,0-.32.07.63.63,0,0,0-.38.52.6.6,0,0,0,.29.59.76.76,0,0,0,1-.17.62.62,0,0,0,0-.68.71.71,0,0,0-.62-.33" transform="translate(-1.93 -1.32)"/><path class="cls-1" d="M13.24,10.34a.35.35,0,0,1-.28.2H4c-.54,0-1.09,0-1.64,0a.2.2,0,0,1-.22-.27c0-.19.09-.37.13-.55a.25.25,0,0,1,0-.07l0,.07a2.06,2.06,0,0,0,.27.33,1.1,1.1,0,0,0,1,.28A1.1,1.1,0,0,0,4.31,10c.1-.12.19-.25.29-.38l.1-.11s0,0,.06.08l.29.37a1.12,1.12,0,0,0,.58.39,1.13,1.13,0,0,0,1.11-.26,2.86,2.86,0,0,0,.35-.43.57.57,0,0,1,.13-.14l.06.06.2.27a1.41,1.41,0,0,0,.37.36,1.13,1.13,0,0,0,.65.19A1.11,1.11,0,0,0,9.35,10c.1-.11.19-.23.28-.35l.07-.09s0,0,.08,0l.1.12c.09.12.17.24.27.35a1.14,1.14,0,0,0,.94.37,1.12,1.12,0,0,0,.59-.22A2.31,2.31,0,0,0,12,9.79a2.48,2.48,0,0,1,.19-.26s.06,0,.09,0a2.92,2.92,0,0,1,.21.28,2.19,2.19,0,0,0,.34.34,1.07,1.07,0,0,0,.32.16l.07,0" transform="translate(-1.93 -1.32)"/><path class="cls-2" d="M13.27,10a.74.74,0,0,1-.22-.1,1.3,1.3,0,0,1-.29-.33c-.08-.09-.15-.2-.23-.28a.37.37,0,0,0-.56,0,1.86,1.86,0,0,0-.21.28,1.7,1.7,0,0,1-.35.36.79.79,0,0,1-1-.1,3.72,3.72,0,0,1-.3-.37c-.05-.06-.09-.12-.14-.17a.39.39,0,0,0-.46-.08.77.77,0,0,0-.16.15c-.1.12-.18.24-.27.36a.83.83,0,0,1-.44.3A.77.77,0,0,1,8,9.8a2.49,2.49,0,0,1-.3-.36.81.81,0,0,0-.21-.24A.36.36,0,0,0,7,9.2a1.12,1.12,0,0,0-.18.2l-.21.28a.92.92,0,0,1-.35.27.79.79,0,0,1-.87-.22c-.1-.11-.19-.24-.28-.36L5,9.23a.37.37,0,0,0-.55,0,2.09,2.09,0,0,0-.22.28A3.08,3.08,0,0,1,4,9.79a.76.76,0,0,1-1.09,0c-.09-.1-.17-.21-.26-.32l-.13-.18a.07.07,0,0,1,0-.06c0-.12,0-.23.08-.35v0a.29.29,0,0,1,.13,0,.84.84,0,0,1,.18.24,2.7,2.7,0,0,0,.27.39.43.43,0,0,0,.24.15.35.35,0,0,0,.31-.08,1.25,1.25,0,0,0,.26-.3A1.53,1.53,0,0,1,4.2,9a.76.76,0,0,1,1,0,1.61,1.61,0,0,1,.24.28,3.36,3.36,0,0,0,.24.29.36.36,0,0,0,.5,0,2,2,0,0,0,.22-.27A2.21,2.21,0,0,1,6.71,9a.77.77,0,0,1,.9-.08,1,1,0,0,1,.31.3c.07.09.14.19.22.28a.52.52,0,0,0,.1.11.36.36,0,0,0,.48,0,1.78,1.78,0,0,0,.22-.26A2.1,2.1,0,0,1,9.2,9a.79.79,0,0,1,1.06,0,2.78,2.78,0,0,1,.27.33l.21.25a.37.37,0,0,0,.51,0,1.51,1.51,0,0,0,.22-.28A2.26,2.26,0,0,1,11.72,9a.75.75,0,0,1,.57-.21.65.65,0,0,1,.49.21c.08.08.15.17.23.26l.24.3a.09.09,0,0,1,0,.06V10" transform="translate(-1.93 -1.32)"/><path class="cls-1" d="M2.59,10.77H12.86a.74.74,0,0,1,0,.3.21.21,0,0,1-.2.14H2.81a.23.23,0,0,1-.22-.2,1.92,1.92,0,0,1,0-.24" transform="translate(-1.93 -1.32)"/><path class="cls-1" d="M3.87,4.43h-1c-.07,0-.07,0-.09-.06a1.82,1.82,0,0,1-.08-.69,2.08,2.08,0,0,1,.72-1.4.72.72,0,0,1,.4-.17c.05,0,.06,0,.06.06a2.35,2.35,0,0,1,0,.26c0,.35,0,.71,0,1.07s0,.53,0,.8c0,0,0,.08,0,.12" transform="translate(-1.93 -1.32)"/><path class="cls-1" d="M4.71,4.38c0-.08,0-2.19,0-2.25a6.61,6.61,0,0,1,.89,0l0,2.24a6.55,6.55,0,0,1-.89,0" transform="translate(-1.93 -1.32)"/><path class="cls-1" d="M13.49,7.5c0-.83,0-1.64,0-2.45h.37a.32.32,0,0,1,.27.29c0,.14,0,.28,0,.42,0,.34,0,.68,0,1,0,.14,0,.28,0,.42a.31.31,0,0,1-.26.29,2.26,2.26,0,0,1-.37,0" transform="translate(-1.93 -1.32)"/><path class="cls-1" d="M3.21,4.65H7.09A.32.32,0,0,1,7,4.86.46.46,0,0,1,6.69,5H3.59a.44.44,0,0,1-.38-.32s0,0,0-.07" transform="translate(-1.93 -1.32)"/><path class="cls-3" d="M3.81,5.26H6.48s0,0,0,0a1.56,1.56,0,0,1-.56.49A1.82,1.82,0,0,1,5.18,6a1.87,1.87,0,0,1-.62-.1,1.53,1.53,0,0,1-.69-.51.47.47,0,0,1-.06-.09v0" transform="translate(-1.93 -1.32)"/><path class="cls-3" d="M5.86,2.13h.28c.07,0,.07,0,.07.08v.35c0,.24,0,.48,0,.72s0,.48,0,.72v.34s0,0,0,0H5.85c0-.06,0-2.15,0-2.25" transform="translate(-1.93 -1.32)"/><path class="cls-3" d="M4.15,2.13h.34c0,.05,0,2.16,0,2.24a.91.91,0,0,1-.33,0c0-.74,0-1.49,0-2.24" transform="translate(-1.93 -1.32)"/><path d="M11.1,4.84h.84a.69.69,0,0,1,.4.11.57.57,0,0,1,.29.47c0,.16,0,.32,0,.48s0,.61,0,.91v.31a.61.61,0,0,1-.59.58H10.33A.83.83,0,0,1,10,7.64a.6.6,0,0,1-.34-.55c0-.17,0-.33,0-.5V5.45a.57.57,0,0,1,.33-.53.73.73,0,0,1,.36-.08Zm0,.21h-.85a.41.41,0,0,0-.44.41v.83c0,.27,0,.54,0,.81a.36.36,0,0,0,.11.27.44.44,0,0,0,.35.13H12a.44.44,0,0,0,.26-.07.37.37,0,0,0,.18-.35c0-.3,0-.6,0-.9s0-.48,0-.71A.42.42,0,0,0,12,5.05h-.84" transform="translate(-1.93 -1.32)"/><path d="M10.23,2.66a.74.74,0,0,1,.58.26.58.58,0,0,1,.12.55.72.72,0,0,1-1,.41.69.69,0,0,1-.32-.31.61.61,0,0,1,.08-.66.72.72,0,0,1,.56-.25m.49.65a.41.41,0,0,0-.05-.19A.49.49,0,0,0,9.87,3a.37.37,0,0,0-.1.34.48.48,0,0,0,.49.38.46.46,0,0,0,.46-.44" transform="translate(-1.93 -1.32)"/><path d="M11.92,2.66a.73.73,0,0,1,.67.36.6.6,0,0,1-.13.76.75.75,0,0,1-1.09-.12.61.61,0,0,1,.35-1,1,1,0,0,1,.2,0m0,.2a.45.45,0,0,0-.48.48.47.47,0,0,0,.49.41.45.45,0,0,0,.48-.43A.47.47,0,0,0,12,2.86" transform="translate(-1.93 -1.32)"/><path d="M8.52,2.66A.71.71,0,0,1,9.14,3a.62.62,0,0,1,0,.68.76.76,0,0,1-1,.17.6.6,0,0,1-.29-.59.63.63,0,0,1,.38-.52.88.88,0,0,1,.32-.07m0,1.09a.45.45,0,0,0,.34-.13A.41.41,0,0,0,8.91,3a.5.5,0,0,0-.56-.15.43.43,0,0,0-.23.66.46.46,0,0,0,.4.2" transform="translate(-1.93 -1.32)"/><path class="cls-1" d="M11.12,5.05H12a.42.42,0,0,1,.44.42c0,.23,0,.47,0,.71s0,.6,0,.9a.38.38,0,0,1-.18.35A.44.44,0,0,1,12,7.5H10.3A.44.44,0,0,1,10,7.37a.36.36,0,0,1-.11-.27c0-.27,0-.54,0-.81V5.46a.41.41,0,0,1,.44-.41h.85m.93,1a.66.66,0,0,0,0-.23.52.52,0,0,0-.28-.3.57.57,0,0,0-.56.06c-.05,0-.05,0-.11,0a.67.67,0,0,0-.37-.11.47.47,0,0,0-.39.22.64.64,0,0,0-.05.64.86.86,0,0,0,.32.36c.17.13.35.23.53.35a0,0,0,0,0,.07,0l.24-.14a2.32,2.32,0,0,0,.4-.3.73.73,0,0,0,.24-.54" transform="translate(-1.93 -1.32)"/><path class="cls-4" d="M10.72,3.31a.46.46,0,0,1-.46.44.48.48,0,0,1-.49-.38A.37.37,0,0,1,9.87,3a.49.49,0,0,1,.8.09.41.41,0,0,1,.05.19" transform="translate(-1.93 -1.32)"/><path class="cls-4" d="M12,2.86a.47.47,0,0,1,.49.46.45.45,0,0,1-.48.43.47.47,0,0,1-.49-.41A.45.45,0,0,1,12,2.86" transform="translate(-1.93 -1.32)"/><path class="cls-4" d="M8.52,3.75a.47.47,0,0,1-.4-.19.44.44,0,0,1,.23-.67A.5.5,0,0,1,8.91,3a.41.41,0,0,1-.05.58.45.45,0,0,1-.34.13" transform="translate(-1.93 -1.32)"/><path d="M12.05,6.08a.73.73,0,0,1-.24.54,2.06,2.06,0,0,1-.41.3l-.23.14s-.05,0-.07,0c-.18-.12-.36-.22-.53-.34a1,1,0,0,1-.32-.37.64.64,0,0,1,.05-.64.47.47,0,0,1,.39-.22.67.67,0,0,1,.37.11c.06,0,.06,0,.11,0a.57.57,0,0,1,.56-.06.52.52,0,0,1,.28.3.66.66,0,0,1,0,.23M11.12,6,11,5.89a.65.65,0,0,0-.16-.13.27.27,0,0,0-.34,0,.26.26,0,0,0-.09.16.52.52,0,0,0,.16.52,3,3,0,0,0,.46.33.13.13,0,0,0,.12,0l.4-.29a.58.58,0,0,0,.16-.19.47.47,0,0,0,0-.47.25.25,0,0,0-.3-.12.4.4,0,0,0-.21.12L11.12,6" transform="translate(-1.93 -1.32)"/><path class="cls-5" d="M11.12,6l.12-.11a.45.45,0,0,1,.21-.12.25.25,0,0,1,.3.12.47.47,0,0,1,0,.47.58.58,0,0,1-.16.19l-.4.29a.13.13,0,0,1-.12,0,3,3,0,0,1-.46-.33A.52.52,0,0,1,10.45,6a.26.26,0,0,1,.09-.16.27.27,0,0,1,.34,0,.65.65,0,0,1,.16.13l.08.07" transform="translate(-1.93 -1.32)"/><path d="M9.08,13.2v-.3c0-.17,0-.34,0-.51v-.17c0-.05,0-.08.08-.08s.12,0,.12.1V14c0,.06,0,.06-.06.06h0c-.07,0-.09,0-.1-.08-.05-.28-.11-.55-.16-.83a.19.19,0,0,0,0-.07v.22c0,.23,0,.45,0,.67a.08.08,0,0,1-.09.09c-.12,0-.11,0-.11-.1V12.21c0-.07,0-.07.07-.07h.05a.09.09,0,0,1,.08.07l.12.73.06.26h0" transform="translate(-1.93 -1.32)"/><path d="M7.6,13.28V14c0,.08,0,.1-.11.1s-.09,0-.09-.09V12.2c0-.06,0-.06.06-.06h.27a.23.23,0,0,1,.24.24V13a.18.18,0,0,1-.09.17s0,0,0,0a.16.16,0,0,1,.08.14V14s0,.05,0,.05h0c-.08,0-.1,0-.1-.1v-.61c0-.08,0-.1-.11-.1H7.6m0-.16h.05c.09,0,.12,0,.12-.11v-.62a.08.08,0,0,0-.06-.09H7.6Z" transform="translate(-1.93 -1.32)"/><path d="M2.52,13.11v-.76a.21.21,0,0,1,.2-.22.48.48,0,0,1,.17,0,.22.22,0,0,1,.19.23c0,.5,0,1,0,1.51a.22.22,0,0,1-.21.24H2.68a.21.21,0,0,1-.16-.21v-.78Zm.2,0v.76c0,.06,0,.09.08.09s.08,0,.08-.09c0-.5,0-1,0-1.51a.08.08,0,0,0-.1-.08s-.06,0-.06.09v.74" transform="translate(-1.93 -1.32)"/><path d="M5.15,13h.16v-.78c0-.07,0-.1.1-.1s.11,0,.11.1V14c0,.06,0,.06-.07.06s-.14,0-.14-.13v-.78H5.15V14c0,.09,0,.11-.12.11S5,14.1,5,14v-1.8c0-.07,0-.07.06-.07h0c.07,0,.1,0,.1.09V13Z" transform="translate(-1.93 -1.32)"/><path d="M12.47,13.68v-.22s0-.05,0,0h.06c.06,0,.09,0,.09.08v.37c0,.07.06.1.13.08a.09.09,0,0,0,0-.09,1.46,1.46,0,0,0-.11-.58c-.06-.14-.12-.27-.17-.41a1.38,1.38,0,0,1-.09-.53.21.21,0,0,1,.18-.21.74.74,0,0,1,.21,0,.22.22,0,0,1,.18.21v.43s0,.05,0,.05-.16,0-.15-.14v-.31a.08.08,0,0,0-.06-.09c-.07,0-.11,0-.11.08a3.16,3.16,0,0,0,0,.32,1.91,1.91,0,0,0,.18.47,1.62,1.62,0,0,1,.16.68c0,.2-.13.31-.35.28a.22.22,0,0,1-.22-.25v-.18" transform="translate(-1.93 -1.32)"/><path d="M11.17,13.68v-.22s0-.05,0,0h.07a.08.08,0,0,1,.09.09v.36a.08.08,0,0,0,.07.09.09.09,0,0,0,.1-.09,1.61,1.61,0,0,0-.12-.6l-.15-.34a1.54,1.54,0,0,1-.1-.56.24.24,0,0,1,.25-.25l.17,0a.2.2,0,0,1,.14.2c0,.14,0,.29,0,.44s0,0,0,0-.17,0-.17-.14v-.31c0-.06,0-.09-.08-.09s-.08,0-.08.09a1.52,1.52,0,0,0,.15.66,2,2,0,0,1,.18.46,2.19,2.19,0,0,1,0,.36c0,.15-.08.24-.24.26h-.14a.21.21,0,0,1-.18-.21v-.21h0" transform="translate(-1.93 -1.32)"/><path d="M10.22,12.3v.75h.16c.07,0,.07,0,.07.06v0a.1.1,0,0,1-.09.08h-.14v.72h.16c.07,0,.09,0,.09.09v0s0,0,0,0h-.37s0,0,0,0V12.21c0-.07,0-.07.07-.07h.33s.06,0,.05,0v0s0,.08-.08.08h-.17" transform="translate(-1.93 -1.32)"/><path d="M6.45,12.3v.75h.16c.06,0,.06,0,.06.06v0s0,.06-.07.06a.75.75,0,0,1-.15,0v.73h.16a.09.09,0,0,1,.09.14l0,0H6.29s0,0,0,0V12.2c0-.06,0-.06.06-.06h.35s0,0,0,0v0s0,.08-.09.08H6.45" transform="translate(-1.93 -1.32)"/><path d="M3.89,12.3H3.8a.07.07,0,0,1-.08-.08c0-.08,0-.08.09-.08H4.2s0,0,0,.06,0,.1-.11.1h0V14c0,.07,0,.08-.08.08s-.12,0-.12-.11V12.3Z" transform="translate(-1.93 -1.32)"/><path d="M3.23,14.57h.11l0,0h0v0H3l-.11,0-.1,0s0,.07,0,.11,0,.08,0,.11h0l.31,0h.07l.07,0v0s0,0,0,0H3.14l-.21,0-.21,0a.5.5,0,0,0,0,.12s0,.08,0,.11,0,0,0,0v0l.11,0,.12,0,.15,0h.19l0,0a.1.1,0,0,1,.05,0,0,0,0,0,1,0,0H3.18l-.12,0-.12,0-.12,0-.19.05H2.51l0,0s0,0,0,0h0s0-.07,0-.11a.52.52,0,0,1,0-.11v-.12l-.07,0,0,0s0,0,0,0,0,0,0,0h.12a.13.13,0,0,0,0-.06v-.07a.43.43,0,0,0,0-.11.36.36,0,0,0,0-.1l0,0h0l.29-.06.3,0" transform="translate(-1.93 -1.32)"/><path d="M4,15.37l0,0v0a0,0,0,0,1,0,0l0,0,0,0-.08,0-.07,0-.08,0-.1,0-.11,0H3.42a.11.11,0,0,1-.08,0h0a0,0,0,0,1,0,0s0,0,0,0h0l.06,0,.08,0,.08,0,.07,0,.07,0,0,0,0,0H3.65l-.07,0-.06,0,0,0s0,0,0,0v0a.05.05,0,0,1,0,0l0-.07,0-.06L3.6,15l0,0a.09.09,0,0,1,.06,0h.08l.07,0A.16.16,0,0,1,4,15v0a.09.09,0,0,1,0,.05.38.38,0,0,1,0,.15H3.83l0,0,0,0h0a0,0,0,0,0,0,0v0a0,0,0,0,0,0,0l0,0,0,.05,0,0,0,0a1041055006723.39,1041055006723.39,0,0,1,0,.06v0h.13l.05,0,.07,0,.05,0m-.24-.08h0m.08.11h0" transform="translate(-1.93 -1.32)"/><path d="M4.67,14.93l0,0a.1.1,0,0,1,0,0,.05.05,0,0,1,0,0s0,0,0,0a4110285003976.61,4110285003976.61,0,0,0,0,.08.27.27,0,0,1-.11.1.4.4,0,0,1-.15,0H4.34s0,.1,0,.16l-.06.16a1.34,1.34,0,0,1-.07.18,1.3,1.3,0,0,1-.08.17l0,.06,0,.06H4l-.08,0h0l0,0s0,0,0,0l0,0,0,0,0,0A1.19,1.19,0,0,0,4,15.78,1.22,1.22,0,0,0,4,15.61c0-.1.07-.2.1-.3s0-.2.06-.3h.17l0,0v0s0,0,0,.07a.64.64,0,0,0,0,.07h.1l0,0,0,0s0,0,0,0v0a.14.14,0,0,0,0-.07v0h-.3l-.07,0v0s0,0,0,0l0,0h.26l.11,0,.06,0,.06,0m-.16,0h0Z" transform="translate(-1.93 -1.32)"/><path d="M5.51,15.57l0,0v0H5.37l0,0,0,0a.25.25,0,0,1,0-.09h0l-.07,0H5.12l-.1,0-.08,0a.22.22,0,0,1-.05-.08.17.17,0,0,1,0-.07v-.08s0-.07,0-.1,0,0,0,0l0,0,0,0L5,14.91l0,0,.06,0h.13l.15.05,0,0v0s0,0,0,0h0l0,0v.28a.22.22,0,0,1,0,.08s0,0,0,.07a.64.64,0,0,0,0,.07l0,0h0M5.26,15v0h0l-.09.08h0v0h0v0h0v0h0a.49.49,0,0,0,0,.12v0a.08.08,0,0,0,0,0h0l0,0,0,0a.34.34,0,0,0,.06-.12.65.65,0,0,0,0-.13v0" transform="translate(-1.93 -1.32)"/><path d="M6.09,15.3a.09.09,0,0,1,.06,0v0h0l-.1.06-.1,0H5.7l-.07,0a.25.25,0,0,1,0-.07V15.3a.13.13,0,0,1,0-.06.19.19,0,0,1,0-.1l0-.07,0,0,0,0,0,0a.12.12,0,0,1,0-.05l.06,0H6l.07,0,.05,0,0,0s0,0,0,0H6l0,0,0,0H6l0,0,0,0,0,0,0,.06,0,.09a.36.36,0,0,0,0,.1v0l.08,0,.07,0H6l.07,0" transform="translate(-1.93 -1.32)"/><path d="M6.47,15l.07,0,0,0v0h0a1.31,1.31,0,0,0-.06.27,2,2,0,0,0,0,.26l0,0H6.31l0,0,0,0s0,0,0,0v-.1s0-.07,0-.1l0-.18c0-.06,0-.12.05-.17a0,0,0,0,1,0,0h.09m.12-.14H6.48l0,0,0,0v0l0-.11a.36.36,0,0,0,0-.11h.15l0,0,0,0v0l0,.11,0,.11s0,0,0,0h0" transform="translate(-1.93 -1.32)"/><path d="M7.13,14.88l0,0a.08.08,0,0,1,0,0,.22.22,0,0,1,0,.14.66.66,0,0,1,0,.14l0,.11a.22.22,0,0,1,0,.11l0,0,0,0-.07,0H6.91l-.08,0a.2.2,0,0,1-.07-.06l0,0s0,0,0,0a.49.49,0,0,1,0-.12s0-.07,0-.11l0-.1,0-.09h0v0a0,0,0,0,1,0,0l.09-.05a.17.17,0,0,1,.1,0h.09l.07,0m0,.23a.17.17,0,0,0,0-.07.25.25,0,0,0,0-.07H7v0H7l0,0,0,0v0s0,0,0,0l0,.07a.64.64,0,0,0,0,.07.41.41,0,0,0,0,.16.51.51,0,0,0,0,.13v0h0l0,0,0,0a.34.34,0,0,0,.07-.15l0-.16" transform="translate(-1.93 -1.32)"/><path d="M8.2,15a1.55,1.55,0,0,0,0,.21.28.28,0,0,0,0,.09.29.29,0,0,0,0,.09l0,0,0,0h.14l.08,0a.24.24,0,0,0,.09-.08.19.19,0,0,0,0-.08.29.29,0,0,0,0-.09l0,0h.09l.07,0,0,0h0a.07.07,0,0,1,0,0,.09.09,0,0,1,0,.05.36.36,0,0,1,0,.09l-.08.08a.48.48,0,0,1-.2.07.66.66,0,0,1-.28,0,.27.27,0,0,1-.1-.06A.18.18,0,0,1,8,15.39a.36.36,0,0,1,0-.09s0-.06,0-.09a.45.45,0,0,1,0-.11S8,15,8,15l0-.11.05-.11,0-.1a.24.24,0,0,1,.06-.08.16.16,0,0,1,.08-.06.19.19,0,0,1,.09,0,.5.5,0,0,1,.17,0,.36.36,0,0,1,.15.08.27.27,0,0,1,.07.08l0,.08a.09.09,0,0,1,0,0s0,0,0,0,0,0,0,0H8.7a.11.11,0,0,1-.07,0h0s0,0,0,0a.61.61,0,0,0,0-.11l-.05-.07h0l0,0-.05,0,0,.06,0,.07a.54.54,0,0,0,0,.11.45.45,0,0,0,0,.11m.05.45h0m.22-.86h0Zm0,0h0m0,0Z" transform="translate(-1.93 -1.32)"/><path d="M9.52,15a0,0,0,0,1,0,0H9.35l-.06.05,0,.06a.41.41,0,0,0-.05.09l0,.07a.14.14,0,0,0,0,.07v.07l0,0H9l-.08,0v0a0,0,0,0,1,0,0h0v0a.43.43,0,0,0,0-.11l0-.1L9,14.91h.12l.07,0s0,0,0,0h.14l.08,0h0l0,0" transform="translate(-1.93 -1.32)"/><path d="M10,15.29H9.77a.28.28,0,0,0,0,.09s0,0,0,.06l.09,0,.07,0H10a.1.1,0,0,1,.07,0h0l0,0v0s0,0,0,0h0l-.11.06-.12,0H9.73a.24.24,0,0,1-.11-.06s0,0,0,0a.14.14,0,0,1,0-.06.08.08,0,0,1,0-.07v-.06h0v-.05h.07l0-.07,0,0,0,0,0,0,.06,0a.07.07,0,0,1,.06,0h.07l.07,0A.09.09,0,0,1,10,15s0,0,.05,0l.05.05s0,0,0,0a.08.08,0,0,1,0,0,.09.09,0,0,1,0,.09s0,0-.08,0l-.09,0m-.15-.11h.08l0,0h0v0l0,0v0l0,0-.06.06a.31.31,0,0,0,0,.1" transform="translate(-1.93 -1.32)"/><path d="M10.85,15.57l0,0v0h-.16l0,0s0,0,0,0a.25.25,0,0,1,0-.09h0l-.07,0h-.07l-.09,0-.08,0a.22.22,0,0,1,0-.08.17.17,0,0,1,0-.07v-.08s0-.07,0-.1,0,0,0,0l0,0,0,0,0-.05.06,0,.06,0h.12l.16.05,0,0v0s0,0,0,0h0a.08.08,0,0,1,0,0v.28s0,0,0,.08a.17.17,0,0,0,0,.07.14.14,0,0,0,0,.07l0,0h0M10.61,15v0h0a.34.34,0,0,0-.09.08h0v0h0v0h0v0h0s0,.08,0,.12v0a.08.08,0,0,0,0,0h0l0,0,0,0a.67.67,0,0,0,.06-.12.31.31,0,0,0,0-.13v0" transform="translate(-1.93 -1.32)"/><path d="M11.64,14.54l.08,0,.06,0s0,0,0,0l0,0h-.21l-.17,0-.17,0s0,.07,0,.11a.49.49,0,0,0,0,.12c0,.05,0,.1,0,.15a.76.76,0,0,1,0,.15v.08s0,.06,0,.1,0,0,0,0l0,0,0,0v0l0,0h.09l.07,0,0,0v0l0,.07-.05.07,0,0,0,0a.14.14,0,0,1-.09,0l-.1,0,0,0,0,0s0,0,0-.05v0s0-.08,0-.12,0-.1,0-.15A.76.76,0,0,1,11,15a1.79,1.79,0,0,1,0-.23h-.1l-.11,0h-.11l0,0v0l0,0h.1l.14,0H11l0-.1s0-.06,0-.09a.11.11,0,0,0,0-.05.43.43,0,0,1,0,0v0h.13l0,0,0,0a0,0,0,0,1,0,0s0,0,0,0v0s0,.05,0,.08,0,.05,0,.07h.42" transform="translate(-1.93 -1.32)"/><path d="M11.69,15l.06,0,0,0v0h0l-.06.27c0,.08,0,.17,0,.26v0h-.13l0,0,0,0s0,0,0,0l0-.1s0-.07,0-.1a1.16,1.16,0,0,1,0-.18.85.85,0,0,1,0-.17,0,0,0,0,1,0,0h.1m.07,0H11.7l0,0,0,0h0l0,0,.05,0h.07l0,0h0l0,0h0l-.05,0,0,0h0" transform="translate(-1.93 -1.32)"/><path d="M12.56,14.87l0,0s0,0,0,0l-.05.07a.18.18,0,0,1,0,.07c0,.06-.07.11-.1.16l-.11.16-.06.09-.06.09,0,0H12l0,0,0,0,0,0v-.24a1,1,0,0,1,0-.17v-.23a0,0,0,0,1,0,0h.08a.11.11,0,0,1,.07,0s0,0,0,0h0v.18a.49.49,0,0,1,0,.12l.06-.08.06-.08.06-.09a.41.41,0,0,0,.05-.09l0,0h.1l.06,0" transform="translate(-1.93 -1.32)"/><path d="M13,14.88l.05,0,0,0a.29.29,0,0,1,0,.14.66.66,0,0,1,0,.14.36.36,0,0,1,0,.11.37.37,0,0,1-.05.11l0,0,0,0-.07,0h-.12l-.08,0a.2.2,0,0,1-.07-.06l0,0,0,0a.49.49,0,0,1,0-.12.52.52,0,0,1,0-.11.36.36,0,0,1,0-.1l0-.09h0a0,0,0,0,1,0,0v0l.09-.05a.17.17,0,0,1,.1,0H13l.07,0m0,.23V15A.64.64,0,0,1,13,15h0v0h0l0,0,0,0v0h0a.11.11,0,0,0,0,.07l0,.07,0,.16a.28.28,0,0,0,0,.13v0h0l0,0,0,0a1,1,0,0,0,.07-.15.88.88,0,0,0,0-.16" transform="translate(-1.93 -1.32)"/></svg>