<?xml version="1.0" encoding="iso-8859-1"?>
<!-- Generator: Adobe Illustrator 21.0.2, SVG Export Plug-In . SVG Version: 6.00 Build 0)  -->
<svg version="1.1" id="Layer_1_1_" xmlns="http://www.w3.org/2000/svg" xmlns:xlink="http://www.w3.org/1999/xlink" x="0px" y="0px"
	 viewBox="0 0 64 64" style="enable-background:new 0 0 64 64;" xml:space="preserve">
<path style="fill:#F6BF58;" d="M28,42l14-14l11-11l3-3l3.757-3.757C60.553,9.447,61,8.368,61,7.243C61,4.899,59.101,3,56.757,3
	c-1.125,0-2.204,0.447-3,1.243L50,8l-3,3L36,22L22,36L6,52l-3,9l9-3L28,42z"/>
<polygon style="fill:#66CEDB;" points="32,18 27,13 22,8 17,3 3,17 22,36 36,22 "/>
<polygon style="fill:#66CEDB;" points="47,61 61,47 56,42 51,37 46,32 42,28 28,42 "/>
<path style="fill:#F6BF58;" d="M8,43c0-2.764,2.236-5,5-5c-2.764,0-5-2.236-5-5c0,2.764-2.236,5-5,5C5.764,38,8,40.236,8,43z"/>
<g>
</g>
<rect x="31.964" y="27.5" transform="matrix(0.7071 -0.7071 0.7071 0.7071 -9.7548 33.4497)" style="fill:#010133;" width="7.071" height="2"/>
<path style="fill:#010133;" d="M20.586,36L5.293,51.293c-0.11,0.11-0.192,0.244-0.242,0.391l-3,9
	c-0.12,0.359-0.026,0.756,0.242,1.023C2.483,61.898,2.739,62,3,62c0.106,0,0.212-0.017,0.316-0.051l9-3
	c0.147-0.049,0.281-0.132,0.391-0.242L28,43.414l18.293,18.293C46.488,61.902,46.744,62,47,62s0.512-0.098,0.707-0.293l14-14
	c0.391-0.391,0.391-1.023,0-1.414L43.414,28l10.293-10.293l3-3l3.757-3.757C61.455,9.959,62,8.643,62,7.243
	C62,4.352,59.648,2,56.757,2c-1.4,0-2.717,0.545-3.707,1.536l-3.757,3.757l-3,3L36,20.586L17.707,2.293
	c-0.391-0.391-1.023-0.391-1.414,0l-14,14c-0.391,0.391-0.391,1.023,0,1.414L20.586,36z M6.437,53.851l3.712,3.712l-5.568,1.856
	L6.437,53.851z M44.586,32l-3.293,3.293l1.414,1.414L46,33.414L49.586,37l-3.293,3.293l1.414,1.414L51,38.414L54.586,42
	l-3.293,3.293l1.414,1.414L56,43.414L59.586,47L47,59.586L29.414,42L42,29.414L44.586,32z M41.293,27.293l-14,14L12,56.586
	L10.414,55l21.293-21.293l-1.414-1.414L9,53.586L7.414,52l15.293-15.293l14-14L47,12.414L48.586,14l-5.293,5.293l1.414,1.414
	L50,15.414L51.586,17L41.293,27.293z M54.464,4.95C55.077,4.337,55.891,4,56.757,4C58.545,4,60,5.455,60,7.243
	c0,0.866-0.337,1.68-0.95,2.293L56,12.586L51.414,8L54.464,4.95z M50,9.414L54.586,14L53,15.586L48.414,11L50,9.414z M17,4.414
	L20.586,8l-3.293,3.293l1.414,1.414L22,9.414L25.586,13l-3.293,3.293l1.414,1.414L27,14.414L30.586,18l-3.293,3.293l1.414,1.414
	L32,19.414L34.586,22L22,34.586L4.414,17L17,4.414z"/>
<rect x="39.586" y="22" transform="matrix(0.7071 -0.7071 0.7071 0.7071 -4.2548 35.7279)" style="fill:#010133;" width="2.828" height="2"/>
<path style="fill:#010133;" d="M3,39c2.206,0,4,1.794,4,4c0,0.552,0.448,1,1,1s1-0.448,1-1c0-2.206,1.794-4,4-4c0.552,0,1-0.448,1-1
	s-0.448-1-1-1c-2.206,0-4-1.794-4-4c0-0.552-0.448-1-1-1s-1,0.448-1,1c0,2.206-1.794,4-4,4c-0.552,0-1,0.448-1,1S2.448,39,3,39z
	 M8,36.313C8.444,36.981,9.019,37.556,9.687,38C9.019,38.444,8.444,39.019,8,39.687C7.556,39.019,6.981,38.444,6.313,38
	C6.981,37.556,7.556,36.981,8,36.313z"/>
</svg>
