<?xml version="1.0" encoding="utf-8"?>
<!-- Generator: Adobe Illustrator 25.4.1, SVG Export Plug-In . SVG Version: 6.00 Build 0)  -->
<svg version="1.1" id="Color" xmlns="http://www.w3.org/2000/svg" xmlns:xlink="http://www.w3.org/1999/xlink" x="0px" y="0px"
	 viewBox="0 0 512 512" enable-background="new 0 0 512 512" xml:space="preserve">
<path fill="#C96744" d="M405.3,371.44c1.68,19.6-13.76,36.56-33.52,36.56h-83.84c-20.72,0-36.48-18.48-33.2-38.96l19.68-122.88
	c3.2-20-12.32-38.16-32.56-38.16H188.5c-6.64,0-12,5.36-12,12s-5.36,12-12,12h-24c-6.64,0-12,5.36-12,12c0,15.44-12.56,28-28,28h-40
	c-6.64,0-12-5.36-12-11.92c0-11.68,0-122.32,0-134.96c0-10.24,4.16-19.52,10.88-26.24C66.1,92.16,75.38,88,85.7,88
	c8,0,15.6,2.56,21.76,7.04c3.84,2.8,7.2,6.32,9.76,10.4c1.52,2.48,2.8,5.12,3.76,8c4.48,13.44,17.12,22.56,31.28,22.56h197.12
	c19.84,0,36.48,15.2,38.24,34.96l2.56,29.04l2.8,32L405.3,371.44z"/>
<path fill="#A84540" d="M405.3,371.44c1.68,19.6-13.76,36.56-33.52,36.56h-83.84c-15.44,0-28.16-10.32-32.16-24
	c0.08,0,0.08,0,0.16,0h83.84c19.76,0,35.2-16.96,33.52-36.56L360.98,208l-2.8-32l-2.56-29.04c-0.32-3.76-1.2-7.44-2.56-10.8
	c18.16,1.76,32.88,16.24,34.56,34.8l2.56,29.04l2.8,32L405.3,371.44z"/>
<circle fill="#E6E6E6" cx="328.5" cy="336" r="24"/>
<path fill="#C1AEAE" d="M352.5,336c0,13.28-10.72,24-24,24c-12.64,0-22.96-9.68-23.84-22.08c4.24,3.76,9.76,6.08,15.84,6.08
	c13.28,0,24-10.72,24-24c0-0.64,0-1.28-0.16-1.92C349.38,322.4,352.5,328.8,352.5,336z"/>
<path fill="#E6E6E6" d="M416.5,416v40c0,4.4-3.6,8-8,8h-392c-4.4,0-8-3.6-8-8v-40c0-4.4,3.6-8,8-8h392
	C412.9,408,416.5,411.6,416.5,416z"/>
<path fill="#C1AEAE" d="M416.5,416v40c0,4.4-3.6,8-8,8h-392c-4.4,0-8-3.6-8-8v-16h376c4.4,0,8-3.6,8-8v-24h16
	C412.9,408,416.5,411.6,416.5,416z"/>
<path fill="#75BCD0" d="M256.5,104v32h-24v-32V92c0-6.64,5.36-12,12-12s12,5.36,12,12V104z"/>
<rect x="304.5" y="64" fill="#75BCD0" width="48" height="24"/>
<polygon fill="#75BCD0" points="416.5,200 416.5,232 392.98,232 390.18,200 "/>
<polygon fill="#75BCD0" points="472.5,152 472.5,216 448.5,216 448.5,184 "/>
<polygon fill="#4B90A0" points="472.5,216 472.5,280 448.5,248 448.5,216 "/>
<path fill="#75BCD0" d="M24.5,179.84c-2.88-1.04-6.08-0.88-8.88,0.56c-0.72,0.4-1.52,0.56-2.24,0.56c-2.56,0-4.88-2.08-4.88-4.96
	v-17.2c0-4.16,2.4-8,6.08-9.84l2.24-1.12c4.64-2.32,10.08-1.44,13.76,2.24L48.5,168c0,13.44,0,27.12,0,40l-18.08-24.08
	C28.9,181.92,26.82,180.48,24.5,179.84z"/>
<polygon fill="#4B90A0" points="48.5,168 48.5,208 32.5,186.72 32.5,152 "/>
<circle fill="#75BCD0" cx="88.5" cy="232" r="16"/>
<path fill="#4B90A0" d="M76.004,241.852C78.941,245.563,83.428,248,88.5,248c8.8,0,16-7.2,16-16c0-3.875-1.452-7.393-3.766-10.169
	C96.591,234,89.523,242.143,76.004,241.852z"/>
<path fill="#75BCD0" d="M118.98,174.72c0.8,4.88-2.96,9.28-7.92,9.28H81.94c-4.96,0-8.72-4.4-7.92-9.28l3.84-22.96
	C79.38,142.64,87.3,136,96.5,136s17.12,6.64,18.64,15.76L118.98,174.72z"/>
<path fill="#4B90A0" d="M74.081,175.777C73.958,180.202,77.354,184,81.94,184h29.12c4.96,0,8.72-4.4,7.92-9.28l-3.302-19.745
	C107.94,165.471,95.284,173.117,74.081,175.777z"/>
<path fill="#75BCD0" d="M328.5,288c26.48,0,48,21.52,48,48s-21.52,48-48,48s-48-21.52-48-48S302.02,288,328.5,288z M352.5,336
	c0-13.28-10.72-24-24-24s-24,10.72-24,24s10.72,24,24,24S352.5,349.28,352.5,336z"/>
<path fill="#4B90A0" d="M360.5,344c0,13.28-10.72,24-24,24c-8.72,0-16.32-4.56-20.48-11.52c3.6,2.24,7.92,3.52,12.48,3.52
	c13.28,0,24-10.72,24-24c0-4.56-1.28-8.88-3.52-12.48C355.94,327.68,360.5,335.28,360.5,344z"/>
<path fill="#E6E6E6" d="M352.5,48v16h-48V48c0-4.4,3.6-8,8-8h16h16C348.9,40,352.5,43.6,352.5,48z"/>
<path fill="#E6E6E6" d="M352.5,88v16c0,4.4-3.6,8-8,8h-16h-16c-4.4,0-8-3.6-8-8V88H352.5z"/>
<path fill="#4B90A0" d="M352.5,64v24h-17.44c0.96-1.84,1.44-3.92,1.44-6.08V64H352.5z"/>
<path fill="#C1AEAE" d="M352.5,48v16h-16V40h8C348.9,40,352.5,43.6,352.5,48z"/>
<path fill="#C1AEAE" d="M352.5,88v16c0,4.4-3.6,8-8,8h-32c-4.4,0-8-3.6-8-8v-8h17.92c5.6,0,10.4-3.28,12.64-8H352.5z"/>
<path fill="#C96744" d="M504.5,152v128c0,4.4-3.6,8-8,8h-16c-4.4,0-8-3.6-8-8V152c0-4.4,3.6-8,8-8h16
	C500.9,144,504.5,147.6,504.5,152z"/>
<path fill="#A84540" d="M504.5,152v128c0,4.4-3.6,8-8,8h-16c-4.4,0-8-3.6-8-8v-8h8c4.4,0,8-3.6,8-8V144h8
	C500.9,144,504.5,147.6,504.5,152z"/>
<path fill="#C96744" d="M448.5,248c0,4.4-3.6,8-8,8h-16c-4.4,0-8-3.6-8-8v-64c0-4.4,3.6-8,8-8h16c4.4,0,8,3.6,8,8V248z"/>
<path fill="#A84540" d="M448.5,184v64c0,4.4-3.6,8-8,8h-16c-4.4,0-8-3.6-8-8v-8h8c4.4,0,8-3.6,8-8v-56h8
	C444.9,176,448.5,179.6,448.5,184z"/>
<path fill="#C96744" d="M384.5,464l-6.48,25.92c-0.88,3.6-4.08,6.08-7.76,6.08h-75.52c-3.68,0-6.88-2.48-7.76-6.08L280.5,464H384.5z
	"/>
<path fill="#A84540" d="M384.5,464l-6.48,25.92c-0.88,3.6-4.08,6.08-7.76,6.08h-75.52c-3.68,0-6.88-2.48-7.76-6.08L284.5,480h69.76
	c3.68,0,6.88-2.48,7.76-6.08l2.48-9.92H384.5z"/>
<path fill="#C96744" d="M144.5,464l-6.48,25.92c-0.88,3.6-4.08,6.08-7.76,6.08H54.74c-3.68,0-6.88-2.48-7.76-6.08L40.5,464H144.5z"
	/>
<path fill="#A84540" d="M144.5,464l-6.48,25.92c-0.88,3.6-4.08,6.08-7.76,6.08H54.74c-3.68,0-6.88-2.48-7.76-6.08L44.5,480h69.76
	c3.68,0,6.88-2.48,7.76-6.08l2.48-9.92H144.5z"/>
<path fill="#EAC4B9" d="M80.285,117.38c3.198-2.01,8.732-5.284,7.072-9.544c-0.704-1.807-2.62-3.103-4.678-3.162
	c-4.52-0.129-12.479,5.403-11.556,10.134c0.373,1.909,2.041,3.587,4.072,3.966C76.956,119.102,78.682,118.387,80.285,117.38z"/>
<path fill="#FFFFFF" d="M61.29,418.854H35.15c-4.185,0-8.194,3.68-8,8c0.194,4.334,3.515,8,8,8h26.14c4.185,0,8.193-3.68,8-8
	C69.096,422.519,65.775,418.854,61.29,418.854z"/>
<path fill="#B2E2ED" d="M94.462,148.458c-5.148,0-5.156,8,0,8C99.609,156.458,99.618,148.458,94.462,148.458z"/>
<path fill="#B2E2ED" d="M87.124,226.42c-5.147,0-5.156,8,0,8C92.272,234.42,92.28,226.42,87.124,226.42z"/>
<path fill="#FFFFFF" d="M322.691,325.63c-5.147,0-5.156,8,0,8C327.839,333.63,327.847,325.63,322.691,325.63z"/>
<path fill="#472B3C" d="M496.5,136h-16c-7.77,0-14.248,5.566-15.688,12.919l-16.075,21.434c-2.414-1.462-5.213-2.353-8.236-2.353
	h-16c-8.824,0-16,7.176-16,16v8h-11.029l-1.916-21.715C393.43,146.18,373.574,128,349.375,128H336.5v-8h8c8.824,0,16-7.176,16-16V48
	c0-8.824-7.176-16-16-16h-8V16c0-4.418-3.582-8-8-8s-8,3.582-8,8v16h-8c-8.824,0-16,7.176-16,16v34.233l-32,10.667V92
	c0-11.027-8.973-20-20-20s-20,8.973-20,20v4h-104c-0.141,0-0.258,0.073-0.397,0.08C111.697,86.141,99.29,80,85.691,80
	c-24.918,0-45.188,20.254-45.188,45.148l0,23.542l-4.304-4.304c-6.051-6.051-15.262-7.539-22.93-3.719l-2.23,1.121
	c-6.5,3.246-10.539,9.777-10.539,17.043v17.176c0,4.516,2.293,8.629,6.133,11.004c3.008,1.855,6.533,2.341,9.867,1.521v82.405
	c0,18.371,9.125,35.426,24.414,45.621L64.5,332.28V376c0,4.418,3.582,8,8,8s8-3.582,8-8v-96h8v40c0,4.418,3.582,8,8,8s8-3.582,8-8
	v-40.404c17.951-2.02,32-17.114,32-35.596c0-2.207,1.793-4,4-4h24c11.027,0,20-8.973,20-20c0-2.207,1.793-4,4-4h53.336
	c7.324,0,14.25,3.195,19,8.77s6.812,12.914,5.656,20.145l-19.656,122.863c-1.842,11.486,1.239,23.11,8.377,32.223H16.5
	c-8.824,0-16,7.176-16,16v40c0,8.824,7.176,16,16,16h17.753l4.97,19.883C41.008,499.02,47.391,504,54.746,504h75.508
	c7.355,0,13.738-4.98,15.523-12.117l4.97-19.883h123.506l4.97,19.883c1.785,7.137,8.168,12.117,15.523,12.117h75.508
	c7.355,0,13.738-4.98,15.523-12.117l4.97-19.883H408.5c8.824,0,16-7.176,16-16v-40c0-8.824-7.176-16-16-16h-3.988
	c6.474-8.279,9.659-18.769,8.727-29.301L401.706,240h6.794v8c0,8.824,7.176,16,16,16h16c3.023,0,5.822-0.891,8.236-2.353
	l16.075,21.434C466.252,290.434,472.73,296,480.5,296h16c8.824,0,16-7.176,16-16V152C512.5,143.176,505.324,136,496.5,136z
	 M456.5,224h8v32.001l-8-10.667V224z M464.5,208h-8v-21.334l8-10.667V208z M312.5,104v-8h16c4.418,0,8-3.582,8-8s-3.582-8-8-8h-16
	v-8h32.005l0.007,32H312.5z M344.5,48l0.001,8H312.5v-8H344.5z M296.5,99.099V104c0,8.824,7.176,16,16,16h8v8h-56v-18.233
	L296.5,99.099z M240.5,92c0-2.207,1.793-4,4-4s4,1.793,4,4v36h-8V92z M224.5,128h-72.211c-10.375,0-19.54-6.402-23.258-16H224.5V128
	z M16.5,158.832c0-1.164,0.648-2.211,1.699-2.734l2.23-1.121c1.5-0.738,3.281-0.453,4.457,0.723l15.616,15.616v12.687l-3.667-4.889
	c-4.801-6.398-12.82-9.168-20.336-7.438V158.832z M64.5,313.052l-14.711-9.806C38.965,296.027,32.5,283.949,32.5,270.938v-70.94
	l8.001,10.67L40.5,260.039c0,11.008,8.973,19.961,20,19.961h4V313.052z M130.254,488H54.746l-4-16h83.507L130.254,488z M408.5,456
	h-80c-4.418,0-8,3.582-8,8s3.582,8,8,8h45.753l-4,16h-75.508l-4-16H304.5c4.418,0,8-3.582,8-8s-3.582-8-8-8h-288v-40h392V456z
	 M287.953,400c-7.523,0-14.637-3.281-19.516-9.004s-6.992-13.262-5.805-20.688l19.656-122.863
	c1.898-11.863-1.48-23.914-9.277-33.059c-7.797-9.141-19.16-14.387-31.176-14.387H188.5c-11.027,0-20,8.973-20,20
	c0,2.207-1.793,4-4,4h-24c-11.027,0-20,8.973-20,20s-8.973,20-20,20h-40c-2.207,0-4-1.777-4-3.961l0.004-134.891
	C56.504,109.074,69.598,96,85.691,96c12.582,0,23.715,8.023,27.695,19.965c5.59,16.77,21.223,28.035,38.902,28.035h197.086
	c15.848,0,28.852,11.906,30.242,27.691l17.684,200.414c0.641,7.25-1.715,14.199-6.629,19.566
	c-4.914,5.371-11.633,8.328-18.914,8.328H287.953z M400.294,224l-1.412-16h9.618v16H400.294z M424.5,248v-64h16l0.012,64H424.5z
	 M480.5,280V152h16l0.012,128H480.5z"/>
<path fill="#472B3C" d="M88.5,208c-13.234,0-24,10.766-24,24s10.766,24,24,24s24-10.766,24-24S101.734,208,88.5,208z M88.5,240
	c-4.41,0-8-3.59-8-8s3.59-8,8-8s8,3.59,8,8S92.91,240,88.5,240z"/>
<path fill="#472B3C" d="M123.02,150.469C120.852,137.449,109.699,128,96.5,128s-24.352,9.449-26.52,22.465l-3.82,22.906
	c-0.773,4.648,0.527,9.375,3.574,12.973C72.781,189.938,77.23,192,81.945,192h29.109c4.715,0,9.164-2.062,12.211-5.656
	c3.047-3.598,4.348-8.324,3.574-12.977L123.02,150.469z M81.941,176l3.82-22.906C86.641,147.824,91.156,144,96.5,144
	s9.859,3.824,10.738,9.098L111.074,176H81.941z"/>
<path fill="#472B3C" d="M328.5,280c-30.879,0-56,25.121-56,56s25.121,56,56,56s56-25.121,56-56S359.379,280,328.5,280z M328.5,376
	c-22.055,0-40-17.945-40-40s17.945-40,40-40s40,17.945,40,40S350.555,376,328.5,376z"/>
<path fill="#472B3C" d="M328.5,304c-17.645,0-32,14.355-32,32s14.355,32,32,32s32-14.355,32-32S346.145,304,328.5,304z M328.5,352
	c-8.824,0-16-7.176-16-16s7.176-16,16-16s16,7.176,16,16S337.324,352,328.5,352z"/>
</svg>
