<svg xmlns="http://www.w3.org/2000/svg" xmlns:xlink="http://www.w3.org/1999/xlink" viewBox="0 0 500 500" width="500" height="500" preserveAspectRatio="xMidYMid meet" style="width: 100%; height: 100%; transform: translate3d(0px, 0px, 0px); content-visibility: visible;"><defs><clipPath id="__lottie_element_51"><rect width="500" height="500" x="0" y="0"/></clipPath></defs><g clip-path="url(#__lottie_element_51)"><g transform="matrix(0.9919230937957764,-0.12686581909656525,0.12686581909656525,0.9919230937957764,-31.902496337890625,35.062347412109375)" opacity="1" style="display: block;"><g opacity="1" transform="matrix(1,0,0,1,296.25201416015625,181.1840057373047)"><path fill="rgb(99,109,120)" fill-opacity="1" d=" M43.29600143432617,-99.28199768066406 C42.41600036621094,-101.38200378417969 39.51599884033203,-101.56199645996094 38.375999450683594,-99.59200286865234 C38.375999450683594,-99.59200286865234 -23.445999145507812,7.460999965667725 -42.198001861572266,39.93199920654297 C-44.249000549316406,43.483001708984375 -54.268001556396484,60.09000015258789 -55.051998138427734,61.44599914550781 C-55.051998138427734,61.44599914550781 -28.384000778198242,100.96900177001953 -28.384000778198242,100.96900177001953 C4.665999889373779,43.5989990234375 47.145999908447266,-29.881999969482422 47.145999908447266,-29.881999969482422 C56.36600112915039,-45.84199905395508 57.58599853515625,-65.18199920654297 50.465999603271484,-82.1719970703125 C50.465999603271484,-82.1719970703125 43.29600143432617,-99.28199768066406 43.29600143432617,-99.28199768066406z"/></g><g opacity="0.5" transform="matrix(1,0,0,1,300.5679931640625,187.44200134277344)" style="mix-blend-mode: multiply;"><path fill="rgb(99,109,120)" fill-opacity="1" d=" M42.83000183105469,-36.14099884033203 C52.04999923706055,-52.10100173950195 53.27000045776367,-71.44100189208984 46.150001525878906,-88.43099975585938 C46.150001525878906,-88.43099975585938 43.51900100708008,-94.70999908447266 43.51900100708008,-94.70999908447266 C23.163999557495117,-59.46200180053711 -24.275999069213867,22.684999465942383 -41.32099914550781,52.20000076293945 C-42.68299865722656,54.55799865722656 -47.047000885009766,61.83399963378906 -50.736000061035156,67.9800033569336 C-50.736000061035156,67.9800033569336 -32.69900131225586,94.70999908447266 -32.69900131225586,94.70999908447266 C0.35100001096725464,37.34000015258789 42.83000183105469,-36.14099884033203 42.83000183105469,-36.14099884033203z"/></g></g><g transform="matrix(0.9919230937957764,-0.12686581909656525,0.12686581909656525,0.9919230937957764,246.83444213867188,251.70172119140625)" opacity="1" style="display: block;"><g opacity="1" transform="matrix(1,0,0,1,0,0)"><path fill="rgb(241,75,0)" fill-opacity="1" d=" M-117.61499786376953,143.63600158691406 C-87.28099822998047,161.14999389648438 -48.492000579833984,150.7550048828125 -30.979000091552734,120.4219970703125 C-30.371999740600586,119.37000274658203 -8.302000045776367,80.66000366210938 17.371000289916992,36.19200134277344 C31.170000076293945,12.291000366210938 -5.938000202178955,-9.133000373840332 -20.197999954223633,15.565999984741211 C-26.292999267578125,26.12299919128418 -38.28099822998047,46.88800048828125 -38.28099822998047,46.88800048828125 C-45.2859992980957,38.91299819946289 -54.375999450683594,32.415000915527344 -65.66699981689453,28.621999740600586 C-92.16000366210938,19.722999572753906 -122.01699829101562,29.468000411987305 -137.93699645996094,52.43899917602539 C-159.3489990234375,83.33200073242188 -149.4929962158203,125.23100280761719 -117.61499786376953,143.63600158691406z M-112.88500213623047,88.33300018310547 C-112.88500213623047,73.47699737548828 -100.84200286865234,61.43299865722656 -85.98500061035156,61.43299865722656 C-71.12899780273438,61.43299865722656 -59.084999084472656,73.47699737548828 -59.084999084472656,88.33300018310547 C-59.084999084472656,103.18900299072266 -71.12899780273438,115.23300170898438 -85.98500061035156,115.23300170898438 C-100.84200286865234,115.23300170898438 -112.88500213623047,103.18900299072266 -112.88500213623047,88.33300018310547z"/><path fill="rgb(241,75,0)" fill-opacity="0.5" d=" M-117.61499786376953,143.63600158691406 C-87.28099822998047,161.14999389648438 -48.492000579833984,150.7550048828125 -30.979000091552734,120.4219970703125 C-30.371999740600586,119.37000274658203 -8.302000045776367,80.66000366210938 17.371000289916992,36.19200134277344 C31.170000076293945,12.291000366210938 -5.938000202178955,-9.133000373840332 -20.197999954223633,15.565999984741211 C-26.292999267578125,26.12299919128418 -38.28099822998047,46.88800048828125 -38.28099822998047,46.88800048828125 C-45.2859992980957,38.91299819946289 -54.375999450683594,32.415000915527344 -65.66699981689453,28.621999740600586 C-92.16000366210938,19.722999572753906 -122.01699829101562,29.468000411987305 -137.93699645996094,52.43899917602539 C-159.3489990234375,83.33200073242188 -149.4929962158203,125.23100280761719 -117.61499786376953,143.63600158691406z M-112.88500213623047,88.33300018310547 C-112.88500213623047,73.47699737548828 -100.84200286865234,61.43299865722656 -85.98500061035156,61.43299865722656 C-71.12899780273438,61.43299865722656 -59.084999084472656,73.47699737548828 -59.084999084472656,88.33300018310547 C-59.084999084472656,103.18900299072266 -71.12899780273438,115.23300170898438 -85.98500061035156,115.23300170898438 C-100.84200286865234,115.23300170898438 -112.88500213623047,103.18900299072266 -112.88500213623047,88.33300018310547z" style="mix-blend-mode: multiply;"/></g></g><g transform="matrix(0.9919230937957764,0.12686581909656525,-0.12686581909656525,0.9919230937957764,38.510223388671875,-26.781295776367188)" opacity="1" style="display: block;"><g opacity="1" transform="matrix(1,0,0,1,210.1179962158203,192.8560028076172)"><path fill="rgb(99,109,120)" fill-opacity="1" d=" M-47.29899978637695,-111.10299682617188 C-48.4370002746582,-113.072998046875 -51.3380012512207,-112.88999938964844 -52.21699905395508,-110.79199981689453 C-52.21699905395508,-110.79199981689453 -56.83700180053711,-99.77100372314453 -56.83700180053711,-99.77100372314453 C-56.83700180053711,-99.77100372314453 -59.388999938964844,-93.68399810791016 -59.388999938964844,-93.68399810791016 C-66.51200103759766,-76.69300079345703 -65.28500366210938,-57.35100173950195 -56.07400131225586,-41.395999908447266 C-56.07400131225586,-41.395999908447266 -0.08299999684095383,54.86000061035156 32.97100067138672,112.22899627685547 C32.97100067138672,112.22899627685547 54.50299835205078,92.45099639892578 54.50299835205078,92.45099639892578 C54.50299835205078,92.45099639892578 63.974998474121094,83.93199920654297 63.974998474121094,83.93199920654297 C29.014999389648438,23.378999710083008 -47.29899978637695,-111.10299682617188 -47.29899978637695,-111.10299682617188z"/></g><g opacity="1" transform="matrix(1,0,0,1,213.89599609375,182.8419952392578)"><path fill="rgb(235,230,238)" fill-opacity="1" d=" M60.196998596191406,93.94599914550781 C25.23699951171875,33.39400100708008 -51.07699966430664,-101.08899688720703 -51.07699966430664,-101.08899688720703 C-52.21500015258789,-103.05899810791016 -55.11600112915039,-102.8759994506836 -55.994998931884766,-100.77799987792969 C-55.994998931884766,-100.77799987792969 -60.196998596191406,-90.75399780273438 -60.196998596191406,-90.75399780273438 C-45.584999084472656,-65.55999755859375 17.7810001373291,45.42900085449219 50.724998474121094,102.46499633789062 C50.724998474121094,102.46499633789062 60.196998596191406,93.94599914550781 60.196998596191406,93.94599914550781z"/></g></g><g transform="matrix(0.9919230937957764,0.12686581909656525,-0.12686581909656525,0.9919230937957764,255.84866333007812,251.90017700195312)" opacity="1" style="display: block;"><g opacity="1" transform="matrix(1,0,0,1,0,0)"><path fill="rgb(241,75,0)" fill-opacity="1" d=" M135.35299682617188,52.43899917602539 C119.43299865722656,29.468000411987305 89.57599639892578,19.722999572753906 63.08300018310547,28.621999740600586 C51.79199981689453,32.415000915527344 42.70199966430664,38.91299819946289 35.696998596191406,46.88800048828125 C35.696998596191406,46.88800048828125 23.708999633789062,26.12299919128418 17.61400032043457,15.565999984741211 C10.744000434875488,3.6670000553131104 -1.5379999876022339,1.8569999933242798 -10.767000198364258,6.486999988555908 C-20.69499969482422,11.468000411987305 -27.104999542236328,23.805999755859375 -19.95400047302246,36.19200134277344 C5.718999862670898,80.66000366210938 27.788000106811523,119.37000274658203 28.395000457763672,120.4219970703125 C45.90800094604492,150.7550048828125 84.6969985961914,161.14999389648438 115.03099822998047,143.63600158691406 C146.90899658203125,125.23100280761719 156.76499938964844,83.33200073242188 135.35299682617188,52.43899917602539z M83.4020004272461,115.23300170898438 C68.5459976196289,115.23300170898438 56.50199890136719,103.18900299072266 56.50199890136719,88.33300018310547 C56.50199890136719,73.47699737548828 68.5459976196289,61.43299865722656 83.4020004272461,61.43299865722656 C98.25900268554688,61.43299865722656 110.302001953125,73.47699737548828 110.302001953125,88.33300018310547 C110.302001953125,103.18900299072266 98.25900268554688,115.23300170898438 83.4020004272461,115.23300170898438z"/></g></g><g transform="matrix(-0.8486637473106384,-0.3552039861679077,-0.3552039861679077,0.8486637473106384,260.21209716796875,252.05091857910156)" opacity="1" style="display: block;"><g opacity="1" transform="matrix(1,0,0,1,0,0)"/></g><g transform="matrix(0.8486637473106384,-0.3552039861679077,0.3552039861679077,0.8486637473106384,239.7878875732422,252.05091857910156)" opacity="1" style="display: block;"><g opacity="1" transform="matrix(1,0,0,1,0,0)"/></g><g transform="matrix(-0.8486637473106384,-0.3552039861679077,-0.3552039861679077,0.8486637473106384,260.21209716796875,252.05091857910156)" opacity="1" style="display: block;"><g opacity="1" transform="matrix(1,0,0,1,0,0)"/><g opacity="1" transform="matrix(1,0,0,1,0,0)"/></g><g transform="matrix(0.8486637473106384,-0.3552039861679077,0.3552039861679077,0.8486637473106384,239.7878875732422,252.05091857910156)" opacity="1" style="display: block;"><g opacity="1" transform="matrix(1,0,0,1,0,0)"/><g opacity="1" transform="matrix(1,0,0,1,0,0)"/></g><g class="com" transform="matrix(2.65159010887146,0,0,2.65159010887146,37.9818115234375,480.39056396484375)" opacity="0.2" style="display: none;"><g opacity="1" transform="matrix(1,0,0,1,0,0)"><path fill="rgb(0,0,0)" fill-opacity="1" d=" M141.6959991455078,0 C141.6959991455078,0 144.6699981689453,0 144.6699981689453,0 C144.6699981689453,0 144.6699981689453,-12.715999603271484 144.6699981689453,-12.715999603271484 C144.6699981689453,-12.715999603271484 148.62899780273438,0 148.62899780273438,0 C148.62899780273438,0 151.25399780273438,0 151.25399780273438,0 C151.25399780273438,0 155.2949981689453,-12.715999603271484 155.2949981689453,-12.715999603271484 C155.2949981689453,-12.715999603271484 155.2949981689453,0 155.2949981689453,0 C155.2949981689453,0 158.4530029296875,0 158.4530029296875,0 C158.4530029296875,0 158.4530029296875,-14.829000473022461 158.4530029296875,-14.829000473022461 C158.4530029296875,-14.829000473022461 153.4080047607422,-14.829000473022461 153.4080047607422,-14.829000473022461 C153.4080047607422,-14.829000473022461 150.0240020751953,-4.040999889373779 150.0240020751953,-4.040999889373779 C150.0240020751953,-4.040999889373779 146.88499450683594,-14.829000473022461 146.88499450683594,-14.829000473022461 C146.88499450683594,-14.829000473022461 141.6959991455078,-14.829000473022461 141.6959991455078,-14.829000473022461 C141.6959991455078,-14.829000473022461 141.6959991455078,0 141.6959991455078,0z"/></g><g opacity="1" transform="matrix(1,0,0,1,0,0)"><path fill="rgb(0,0,0)" fill-opacity="1" d=" M128.80499267578125,-7.302000045776367 C128.80499267578125,-8.984000205993652 129.05099487304688,-10.583000183105469 129.89199829101562,-11.609000205993652 C130.48699951171875,-12.368000030517578 131.42999267578125,-12.859999656677246 132.6199951171875,-12.859999656677246 C134.13800048828125,-12.859999656677246 135.38900756835938,-12.0600004196167 136.00399780273438,-10.234999656677246 C136.31199645996094,-9.333000183105469 136.3730010986328,-8.307000160217285 136.3730010986328,-7.589000225067139 C136.3730010986328,-5.230000019073486 135.86000061035156,-4.080999851226807 135.3679962158203,-3.3429999351501465 C134.7729949951172,-2.4200000762939453 133.89100646972656,-1.968999981880188 132.5989990234375,-1.968999981880188 C131.1219940185547,-1.968999981880188 130.36300659179688,-2.5439999103546143 129.91200256347656,-3.1589999198913574 C129.02999877929688,-4.308000087738037 128.80499267578125,-5.88700008392334 128.80499267578125,-7.302000045776367z M125.48200225830078,-7.198999881744385 C125.48200225830078,-5.84499979019165 125.68800354003906,-3.384000062942505 127.30799865722656,-1.6610000133514404 C128.66200256347656,-0.2460000067949295 130.60899353027344,0.36899998784065247 132.55799865722656,0.36899998784065247 C133.78900146484375,0.36899998784065247 136.18800354003906,0.10300000011920929 137.82899475097656,-1.7430000305175781 C139.03900146484375,-3.0969998836517334 139.6959991455078,-5.394000053405762 139.6959991455078,-7.547999858856201 C139.6959991455078,-9.003999710083008 139.38800048828125,-11.321999549865723 137.8090057373047,-13.126999855041504 C136.35299682617188,-14.767999649047852 134.17799377441406,-15.13700008392334 132.5989990234375,-15.13700008392334 C127.26599884033203,-15.13700008392334 125.48200225830078,-11.13700008392334 125.48200225830078,-7.198999881744385z"/></g><g opacity="1" transform="matrix(1,0,0,1,0,0)"><path fill="rgb(0,0,0)" fill-opacity="1" d=" M124.04000091552734,-9.98900032043457 C124.04000091552734,-12.942999839782715 121.76399993896484,-14.91100025177002 118.52300262451172,-14.91100025177002 C114.35900115966797,-14.91100025177002 111.73400115966797,-11.793999671936035 111.73400115966797,-7.0970001220703125 C111.73400115966797,-3.4260001182556152 113.3949966430664,0.3490000069141388 118.50199890136719,0.3490000069141388 C119.85600280761719,0.3490000069141388 121.51699829101562,0.04100000113248825 122.83000183105469,-1.312999963760376 C124.0199966430664,-2.5439999103546143 124.10099792480469,-3.9170000553131104 124.16300201416016,-4.798999786376953 C124.16300201416016,-4.798999786376953 120.81999969482422,-4.798999786376953 120.81999969482422,-4.798999786376953 C120.75800323486328,-2.8299999237060547 119.48699951171875,-1.9900000095367432 118.15399932861328,-1.9900000095367432 C115.05699920654297,-1.9900000095367432 115.05699920654297,-6.193999767303467 115.05699920654297,-7.076000213623047 C115.05699920654297,-10.131999969482422 116.04100036621094,-12.593000411987305 118.4000015258789,-12.593000411987305 C120.55400085449219,-12.593000411987305 120.73799896240234,-10.501999855041504 120.80000305175781,-9.98900032043457 C120.80000305175781,-9.98900032043457 124.04000091552734,-9.98900032043457 124.04000091552734,-9.98900032043457z"/></g><g opacity="1" transform="matrix(1,0,0,1,0,0)"><path fill="rgb(0,0,0)" fill-opacity="1" d=" M106.89299774169922,0 C106.89299774169922,0 109.49700164794922,0 109.49700164794922,0 C109.49700164794922,0 109.49700164794922,-2.7279999256134033 109.49700164794922,-2.7279999256134033 C109.49700164794922,-2.7279999256134033 106.89299774169922,-2.7279999256134033 106.89299774169922,-2.7279999256134033 C106.89299774169922,-2.7279999256134033 106.89299774169922,0 106.89299774169922,0z"/></g><g opacity="1" transform="matrix(1,0,0,1,0,0)"><path fill="rgb(0,0,0)" fill-opacity="1" d=" M91.00700378417969,0 C91.00700378417969,0 94.0009994506836,0 94.0009994506836,0 C94.0009994506836,0 94.0009994506836,-12.305999755859375 94.0009994506836,-12.305999755859375 C94.0009994506836,-12.305999755859375 99.74400329589844,0 99.74400329589844,0 C99.74400329589844,0 104.11299896240234,0 104.11299896240234,0 C104.11299896240234,0 104.11299896240234,-14.829000473022461 104.11299896240234,-14.829000473022461 C104.11299896240234,-14.829000473022461 101.15899658203125,-14.829000473022461 101.15899658203125,-14.829000473022461 C101.15899658203125,-14.829000473022461 101.15899658203125,-3.1589999198913574 101.15899658203125,-3.1589999198913574 C101.15899658203125,-3.1589999198913574 95.60099792480469,-14.829000473022461 95.60099792480469,-14.829000473022461 C95.60099792480469,-14.829000473022461 91.00700378417969,-14.829000473022461 91.00700378417969,-14.829000473022461 C91.00700378417969,-14.829000473022461 91.00700378417969,0 91.00700378417969,0z"/></g><g opacity="1" transform="matrix(1,0,0,1,0,0)"><path fill="rgb(0,0,0)" fill-opacity="1" d=" M77.86900329589844,-7.302000045776367 C77.86900329589844,-8.984000205993652 78.11499786376953,-10.583000183105469 78.95600128173828,-11.609000205993652 C79.5510025024414,-12.368000030517578 80.49400329589844,-12.859999656677246 81.68399810791016,-12.859999656677246 C83.2020034790039,-12.859999656677246 84.4530029296875,-12.0600004196167 85.06800079345703,-10.234999656677246 C85.3759994506836,-9.333000183105469 85.43699645996094,-8.307000160217285 85.43699645996094,-7.589000225067139 C85.43699645996094,-5.230000019073486 84.92400360107422,-4.080999851226807 84.43199920654297,-3.3429999351501465 C83.83699798583984,-2.4200000762939453 82.95500183105469,-1.968999981880188 81.66300201416016,-1.968999981880188 C80.18599700927734,-1.968999981880188 79.4280014038086,-2.5439999103546143 78.97699737548828,-3.1589999198913574 C78.09500122070312,-4.308000087738037 77.86900329589844,-5.88700008392334 77.86900329589844,-7.302000045776367z M74.5459976196289,-7.198999881744385 C74.5459976196289,-5.84499979019165 74.75199890136719,-3.384000062942505 76.37200164794922,-1.6610000133514404 C77.72599792480469,-0.2460000067949295 79.6729965209961,0.36899998784065247 81.62200164794922,0.36899998784065247 C82.85299682617188,0.36899998784065247 85.25299835205078,0.10300000011920929 86.89399719238281,-1.7430000305175781 C88.10399627685547,-3.0969998836517334 88.76000213623047,-5.394000053405762 88.76000213623047,-7.547999858856201 C88.76000213623047,-9.003999710083008 88.4520034790039,-11.321999549865723 86.87300109863281,-13.126999855041504 C85.41699981689453,-14.767999649047852 83.24199676513672,-15.13700008392334 81.66300201416016,-15.13700008392334 C76.33000183105469,-15.13700008392334 74.5459976196289,-11.13700008392334 74.5459976196289,-7.198999881744385z"/></g><g opacity="1" transform="matrix(1,0,0,1,0,0)"><path fill="rgb(0,0,0)" fill-opacity="1" d=" M73.10399627685547,-9.98900032043457 C73.10399627685547,-12.942999839782715 70.8280029296875,-14.91100025177002 67.58699798583984,-14.91100025177002 C63.42300033569336,-14.91100025177002 60.79800033569336,-11.793999671936035 60.79800033569336,-7.0970001220703125 C60.79800033569336,-3.4260001182556152 62.45899963378906,0.3490000069141388 67.56600189208984,0.3490000069141388 C68.91999816894531,0.3490000069141388 70.58100128173828,0.04100000113248825 71.89399719238281,-1.312999963760376 C73.08399963378906,-2.5439999103546143 73.16500091552734,-3.9170000553131104 73.22699737548828,-4.798999786376953 C73.22699737548828,-4.798999786376953 69.88400268554688,-4.798999786376953 69.88400268554688,-4.798999786376953 C69.8219985961914,-2.8299999237060547 68.5510025024414,-1.9900000095367432 67.21800231933594,-1.9900000095367432 C64.12100219726562,-1.9900000095367432 64.12100219726562,-6.193999767303467 64.12100219726562,-7.076000213623047 C64.12100219726562,-10.131999969482422 65.1050033569336,-12.593000411987305 67.46399688720703,-12.593000411987305 C69.61799621582031,-12.593000411987305 69.802001953125,-10.501999855041504 69.86399841308594,-9.98900032043457 C69.86399841308594,-9.98900032043457 73.10399627685547,-9.98900032043457 73.10399627685547,-9.98900032043457z"/></g><g opacity="1" transform="matrix(1,0,0,1,0,0)"><path fill="rgb(0,0,0)" fill-opacity="1" d=" M55.66899871826172,0 C55.66899871826172,0 58.8489990234375,0 58.8489990234375,0 C58.8489990234375,0 58.8489990234375,-14.869999885559082 58.8489990234375,-14.869999885559082 C58.8489990234375,-14.869999885559082 55.66899871826172,-14.869999885559082 55.66899871826172,-14.869999885559082 C55.66899871826172,-14.869999885559082 55.66899871826172,0 55.66899871826172,0z"/></g><g opacity="1" transform="matrix(1,0,0,1,0,0)"><path fill="rgb(0,0,0)" fill-opacity="1" d=" M44.28799819946289,-12.387999534606934 C46.112998962402344,-12.470000267028809 46.95500183105469,-12.368000030517578 47.611000061035156,-12.182999610900879 C49.60100173950195,-11.628999710083008 50.31800079345703,-9.701000213623047 50.31800079345703,-7.609000205993652 C50.31800079345703,-6.890999794006348 50.236000061035156,-4.676000118255615 48.98500061035156,-3.424999952316284 C48.0620002746582,-2.502000093460083 46.893001556396484,-2.4000000953674316 45.53900146484375,-2.4000000953674316 C45.16999816894531,-2.4000000953674316 44.637001037597656,-2.4200000762939453 44.28799819946289,-2.440999984741211 C44.28799819946289,-2.440999984741211 44.28799819946289,-12.387999534606934 44.28799819946289,-12.387999534606934z M41.06800079345703,0 C41.06800079345703,0 45.68299865722656,0 45.68299865722656,0 C47.18000030517578,0 47.79499816894531,-0.061000000685453415 48.3489990234375,-0.164000004529953 C51.159000396728516,-0.6769999861717224 53.599998474121094,-3.055999994277954 53.599998474121094,-7.609000205993652 C53.599998474121094,-9.722000122070312 52.94300079345703,-12.0600004196167 51.07699966430664,-13.434000015258789 C49.292999267578125,-14.746999740600586 46.790000915527344,-14.767999649047852 45.970001220703125,-14.767999649047852 C45.970001220703125,-14.767999649047852 41.06800079345703,-14.788000106811523 41.06800079345703,-14.788000106811523 C41.06800079345703,-14.788000106811523 41.06800079345703,0 41.06800079345703,0z"/></g><g opacity="1" transform="matrix(1,0,0,1,0,0)"><path fill="rgb(0,0,0)" fill-opacity="1" d=" M30.518999099731445,-12.491000175476074 C30.518999099731445,-12.491000175476074 32.652000427246094,-12.491000175476074 32.652000427246094,-12.491000175476074 C33.65700149536133,-12.491000175476074 34.25199890136719,-12.491000175476074 34.74399948120117,-12.142000198364258 C35.03099822998047,-11.956999778747559 35.52399826049805,-11.486000061035156 35.52399826049805,-10.480999946594238 C35.52399826049805,-9.4350004196167 34.92900085449219,-8.92199993133545 34.702999114990234,-8.758000373840332 C34.189998626708984,-8.347999572753906 33.45199966430664,-8.347999572753906 33.08300018310547,-8.347999572753906 C33.08300018310547,-8.347999572753906 30.518999099731445,-8.347999572753906 30.518999099731445,-8.347999572753906 C30.518999099731445,-8.347999572753906 30.518999099731445,-12.491000175476074 30.518999099731445,-12.491000175476074z M27.381000518798828,0 C27.381000518798828,0 30.621999740600586,0 30.621999740600586,0 C30.621999740600586,0 30.621999740600586,-5.988999843597412 30.621999740600586,-5.988999843597412 C30.621999740600586,-5.988999843597412 33.4109992980957,-5.988999843597412 33.4109992980957,-5.988999843597412 C33.944000244140625,-5.988999843597412 34.7239990234375,-5.988999843597412 35.01100158691406,-5.1479997634887695 C35.215999603271484,-4.573999881744385 35.66699981689453,-0.8199999928474426 35.81100082397461,0 C35.81100082397461,0 39.31800079345703,0 39.31800079345703,0 C39.15399932861328,-0.2460000067949295 39.03099822998047,-0.41100001335144043 38.867000579833984,-1.0670000314712524 C38.763999938964844,-1.4769999980926514 38.641998291015625,-2.194999933242798 38.41600036621094,-3.937999963760376 C38.14899826049805,-5.866000175476074 37.98500061035156,-7.138000011444092 35.749000549316406,-7.3429999351501465 C36.46699905395508,-7.547999858856201 38.84700012207031,-8.204000473022461 38.84700012207031,-10.972999572753906 C38.84700012207031,-11.937000274658203 38.47700119018555,-13.02400016784668 37.55400085449219,-13.824000358581543 C36.36399841308594,-14.850000381469727 34.70399856567383,-14.850000381469727 33.0629997253418,-14.829000473022461 C33.0629997253418,-14.829000473022461 27.381000518798828,-14.829000473022461 27.381000518798828,-14.829000473022461 C27.381000518798828,-14.829000473022461 27.381000518798828,0 27.381000518798828,0z"/></g><g opacity="1" transform="matrix(1,0,0,1,0,0)"><path fill="rgb(0,0,0)" fill-opacity="1" d=" M14.489999771118164,-7.302000045776367 C14.489999771118164,-8.984000205993652 14.736000061035156,-10.583000183105469 15.57699966430664,-11.609000205993652 C16.172000885009766,-12.368000030517578 17.114999771118164,-12.859999656677246 18.30500030517578,-12.859999656677246 C19.822999954223633,-12.859999656677246 21.073999404907227,-12.0600004196167 21.68899917602539,-10.234999656677246 C21.996999740600586,-9.333000183105469 22.058000564575195,-8.307000160217285 22.058000564575195,-7.589000225067139 C22.058000564575195,-5.230000019073486 21.545000076293945,-4.080999851226807 21.05299949645996,-3.3429999351501465 C20.45800018310547,-2.4200000762939453 19.576000213623047,-1.968999981880188 18.284000396728516,-1.968999981880188 C16.80699920654297,-1.968999981880188 16.04800033569336,-2.5439999103546143 15.597000122070312,-3.1589999198913574 C14.71500015258789,-4.308000087738037 14.489999771118164,-5.88700008392334 14.489999771118164,-7.302000045776367z M11.166999816894531,-7.198999881744385 C11.166999816894531,-5.84499979019165 11.371999740600586,-3.384000062942505 12.991999626159668,-1.6610000133514404 C14.345999717712402,-0.2460000067949295 16.29400062561035,0.36899998784065247 18.243000030517578,0.36899998784065247 C19.474000930786133,0.36899998784065247 21.87299919128418,0.10300000011920929 23.513999938964844,-1.7430000305175781 C24.724000930786133,-3.0969998836517334 25.381000518798828,-5.394000053405762 25.381000518798828,-7.547999858856201 C25.381000518798828,-9.003999710083008 25.072999954223633,-11.321999549865723 23.493999481201172,-13.126999855041504 C22.038000106811523,-14.767999649047852 19.863000869750977,-15.13700008392334 18.284000396728516,-15.13700008392334 C12.951000213623047,-15.13700008392334 11.166999816894531,-11.13700008392334 11.166999816894531,-7.198999881744385z"/></g><g opacity="1" transform="matrix(1,0,0,1,0,0)"><path fill="rgb(0,0,0)" fill-opacity="1" d=" M1.4149999618530273,0 C1.4149999618530273,0 11.013999938964844,0 11.013999938964844,0 C11.013999938964844,0 11.013999938964844,-2.5230000019073486 11.013999938964844,-2.5230000019073486 C11.013999938964844,-2.5230000019073486 4.656000137329102,-2.5230000019073486 4.656000137329102,-2.5230000019073486 C4.656000137329102,-2.5230000019073486 4.656000137329102,-14.809000015258789 4.656000137329102,-14.809000015258789 C4.656000137329102,-14.809000015258789 1.4149999618530273,-14.809000015258789 1.4149999618530273,-14.809000015258789 C1.4149999618530273,-14.809000015258789 1.4149999618530273,0 1.4149999618530273,0z"/></g></g></g></svg>