<?xml version="1.0" encoding="UTF-8"?>
<!DOCTYPE svg PUBLIC "-//W3C//DTD SVG 1.1//EN" "http://www.w3.org/Graphics/SVG/1.1/DTD/svg11.dtd">
<!-- Creator: CorelDRAW -->
<svg xmlns="http://www.w3.org/2000/svg" xml:space="preserve" width="512px" height="512px" style="shape-rendering:geometricPrecision; text-rendering:geometricPrecision; image-rendering:optimizeQuality; fill-rule:evenodd; clip-rule:evenodd"
viewBox="0 0 512 512"
 xmlns:xlink="http://www.w3.org/1999/xlink">
 <defs>
  <style type="text/css">
   <![CDATA[
    .fil0 {fill:#52050D}
    .fil1 {fill:orangered}
    .fil2 {fill:#FFD300}
   ]]>
  </style>
 </defs>
 <g id="Layer_x0020_1">
  <metadata id="CorelCorpID_0Corel-Layer"/>
  <path class="fil0" d="M259.471 242.105c-5.89844,0 -11.5122,-2.39174 -15.5965,-6.52915l-36.13 0c-19.9831,44.4119 -78.3333,112.868 -130.35,171.102l16.3099 16.3099 106.321 -152.68c4.88624,-7.01695 15.5481,0.4063 10.6607,7.42443l-107.589 154.497c8.93507,8.05987 33.1643,27.1406 64.9396,30.0178 25.669,-68.8301 64.9195,-176.588 65.9175,-186.194 0.74764,-8.64924 13.539,-7.50947 12.9567,0.930712 -0.862207,12.4807 -51.7443,149.684 -66.4195,189.044 54.9533,28.1044 129.883,7.87325 151.633,0.980318 -5.27718,-14.1969 -18.6331,-50.3305 -31.5887,-86.9648 -34.167,-96.6121 -32.3836,-102.403 -31.3194,-105.864 2.16969,-7.05357 13.5496,-5.90435 12.567,3.23623 -0.0838585,11.3634 32.2206,103.975 63.3734,187.373 21.4371,0.0141733 51.1998,-18.4134 65.9896,-29.2418 -15.6284,-22.0666 -72.0817,-102.637 -91.6231,-132.043 -18.9993,-28.5899 -18.6603,-29.9387 -17.8453,-33.1985 1.41615,-5.66458 10.3146,-7.69609 12.7181,0.55512 4.4445,10.2697 59.6022,89.6495 100.094,146.93l20.1272 -20.126c-31.7009,-35.5773 -100.043,-112.839 -123.359,-162.089l-36.1855 0c-4.08308,4.13741 -9.69806,6.53034 -15.6,6.53034zm-46.8131 -19.5201l25.0394 0 0 -4.76576 -23.8217 0c-0.328347,1.53898 -0.734648,3.12639 -1.21772,4.76576zm-10.9134 -10.9122c0.647246,-12.267 -4.86852,-26.406 -14.1626,-33.0981 -0.437009,-0.265749 -0.850396,-0.588191 -1.22835,-0.964964 -24.1076,-24.0709 -20.8442,-61.5392 4.17049,-77.2042l3.12993 -73.8463c0.0909452,-3.52088 2.97166,-6.32718 6.49372,-6.32718l18.1843 0c3.47954,0 6.34018,2.74135 6.49018,6.21852l2.3067 54.0911 7.29569 18.365c7.14451,3.12284 14.9989,8.05869 23.3528,15.6154 9.67798,-8.78507 18.9627,-14.4107 27.6001,-17.6008l7.21183 -18.156 2.30788 -54.0899c0.147638,-3.47718 3.00946,-6.2197 6.489,-6.2197 28.6619,0.00118111 24.2139,-3.48899 25.1942,26.1863l2.31733 57.8069c23.465,18.9851 18.9036,57.3675 -0.258662,74.6849 -10.1492,9.17247 -13.4563,21.0131 -12.2894,34.1741 5.28663,39.9001 103.431,150.142 132.045,182.297 2.28662,2.57009 2.17324,6.476 -0.261024,8.91026l-26.0328 26.0328c2.47087,3.48781 7.58624,8.9894 2.0256,13.4363 -1.99016,1.59213 -48.4667,38.367 -82.7483,35.6505 -5.8949,2.07993 -28.7753,9.68861 -58.4494,13.6099 -11.6327,1.53662 -22.8757,2.29961 -33.6533,2.29961 -30.4914,0 -57.2683,-6.10986 -78.6971,-18.0898 -46.506,-2.50749 -78.2731,-35.3411 -80.6436,-37.8615 -29.9706,-30.9036 -33.4454,-27.0143 -21.9343,-39.9025 30.469,-34.1139 129.651,-144.99 133.744,-186.017zm12.926 -6.84451l29.1981 0c8.55948,-8.70948 22.6666,-8.71302 31.2095,0l27.8528 0c0.454726,-14.2252 6.49018,-27.5091 16.8308,-37.1777 32.0481,-32.4391 -2.76379,-94.2097 -57.3864,-39.5635 -7.90396,7.9075 -12.6307,-8.78743 -35.634,-18.3048 -18.2174,-7.53782 -37.4292,0.827955 -42.6615,20.3422 -3.48426,12.9922 0.569293,27.0119 10.8461,37.6714 11.5583,10.3252 18.4075,21.1631 19.7445,37.0324zm89.8585 12.9922l-23.2808 -0.00118111 0 4.76458 24.7005 0c-0.548033,-1.64292 -1.02048,-3.23151 -1.41969,-4.7634zm-100.735 -122.784c3.91537,-0.827955 8.95396,-1.29095 14.8937,-0.557482 -0.994491,-2.50394 -4.40434,-10.2697 -4.48938,-12.2847l-2.0882 -48.9698 -5.63151 0 -2.68465 61.812zm96.8731 -1.4126c5.40356,-0.305906 10.4138,0.360237 14.9457,1.75512l-2.37048 -63.9309 -5.63033 0c-0.264568,6.19844 -1.59686,48.7147 -2.54174,51.0899l-4.40316 11.0859zm-48.4431 131.764c6.93191,9.65908 21.4725,-0.996853 14.3693,-10.5437 -6.81971,-9.16538 -21.0957,0.79016 -14.3693,10.5437z"/>
  <path class="fil1" d="M259.471 242.105c-5.89844,0 -11.5122,-2.39174 -15.5965,-6.52915l-36.13 0c-19.9831,44.4119 -78.3333,112.868 -130.35,171.102l16.3099 16.3099 106.321 -152.68c4.88624,-7.01695 15.5481,0.4063 10.6607,7.42443l-107.589 154.497c8.93507,8.05987 33.1643,27.1406 64.9396,30.0178 25.669,-68.8301 64.9195,-176.588 65.9175,-186.194 0.74764,-8.64924 13.539,-7.50947 12.9567,0.930712 -0.862207,12.4807 -51.7443,149.684 -66.4195,189.044 54.9533,28.1044 129.883,7.87325 151.633,0.980318 -5.27718,-14.1969 -18.6331,-50.3305 -31.5887,-86.9648 -34.167,-96.6121 -32.3836,-102.403 -31.3194,-105.864 2.16969,-7.05357 13.5496,-5.90435 12.567,3.23623 -0.0838585,11.3634 32.2206,103.975 63.3734,187.373 21.4371,0.0141733 51.1998,-18.4134 65.9896,-29.2418 -15.6284,-22.0666 -72.0817,-102.637 -91.6231,-132.043 -18.9993,-28.5899 -18.6603,-29.9387 -17.8453,-33.1985 1.41615,-5.66458 10.3146,-7.69609 12.7181,0.55512 4.4445,10.2697 59.6022,89.6495 100.094,146.93l20.1272 -20.126c-31.7009,-35.5773 -100.043,-112.839 -123.359,-162.089l-36.1855 0c-4.08308,4.13741 -9.69806,6.53034 -15.6,6.53034z"/>
  <path class="fil2" d="M252.224 225.388c6.93191,9.65908 21.4725,-0.996853 14.3693,-10.5437 -6.81971,-9.16538 -21.0957,0.79016 -14.3693,10.5437z"/>
  <path class="fil2" d="M281.249 222.584l24.7005 0c-0.548033,-1.64292 -1.02048,-3.23151 -1.41969,-4.7634l-23.2808 -0.00118111 0 4.76458z"/>
  <path class="fil2" d="M237.698 222.585l0 -4.76576 -23.8217 0c-0.328347,1.53898 -0.734648,3.12639 -1.21772,4.76576l25.0394 0z"/>
  <path class="fil2" d="M243.869 204.829c8.55948,-8.70948 22.6666,-8.71302 31.2095,0l27.8528 0c0.454726,-14.2252 6.49018,-27.5091 16.8308,-37.1777 32.0481,-32.4391 -2.76379,-94.2097 -57.3864,-39.5635 -7.90396,7.9075 -12.6307,-8.78743 -35.634,-18.3048 -18.2174,-7.53782 -37.4292,0.827955 -42.6615,20.3422 -3.48426,12.9922 0.569293,27.0119 10.8461,37.6714 11.5583,10.3252 18.4075,21.1631 19.7445,37.0324l29.1981 0z"/>
  <path class="fil2" d="M300.667 93.6239c5.40356,-0.305906 10.4138,0.360237 14.9457,1.75512l-2.37048 -63.9309 -5.63033 0c-0.264568,6.19844 -1.59686,48.7147 -2.54174,51.0899l-4.40316 11.0859z"/>
  <path class="fil2" d="M218.688 94.479c-0.994491,-2.50394 -4.40434,-10.2697 -4.48938,-12.2847l-2.0882 -48.9698 -5.63151 0 -2.68465 61.812c3.91537,-0.827955 8.95396,-1.29095 14.8937,-0.557482z"/>
 </g>
</svg>
